SplineFontDB: 3.0
FontName: Rokkitt-Black
FullName: Rokkitt Black
FamilyName: Rokkitt
Weight: Black
Copyright: 
Version: 2
ItalicAngle: 0
UnderlinePosition: 0
UnderlineWidth: 0
Ascent: 1638
Descent: 410
UFOAscent: 1152
UFODescent: -410
LayerCount: 2
Layer: 0 0 "Back"  1
Layer: 1 0 "Fore"  0
OS2Version: 0
OS2_WeightWidthSlopeOnly: 0
OS2_UseTypoMetrics: 0
CreationTime: 1390513424
ModificationTime: 1390527680
PfmFamily: 0
TTFWeight: 300
TTFWidth: 5
LineGap: 0
VLineGap: 0
Panose: 2 0 5 3 5 0 0 2 0 3
OS2TypoAscent: 0
OS2TypoAOffset: 1
OS2TypoDescent: 0
OS2TypoDOffset: 1
OS2TypoLinegap: 0
OS2WinAscent: 0
OS2WinAOffset: 1
OS2WinDescent: 0
OS2WinDOffset: 1
HheadAscent: 0
HheadAOffset: 1
HheadDescent: 0
HheadDOffset: 1
OS2SubXSize: 1331
OS2SubYSize: 1228
OS2SubXOff: 0
OS2SubYOff: 153
OS2SupXSize: 1331
OS2SupYSize: 1228
OS2SupXOff: 0
OS2SupYOff: 716
OS2StrikeYSize: 0
OS2StrikeYPos: 501
OS2Vendor: 'PfEd'
Lookup: 258 0 0 "'kern' Horizontal Kerning in Latin lookup 0"  {"'kern' Horizontal Kerning in Latin lookup 0 subtable"  } ['kern' ('latn' <'dflt' > ) ]
MarkAttachClasses: 1
DEI: 91125
PickledData: "(dp1
S'com.typemytype.robofont.compileSettings.generateFormat'
p2
I0
sS'com.petr.ptt'
p3
(dp4
S'originals'
p5
(dp6
S'maxp'
p7
(dp8
S'numGlyphs'
p9
I423
sS'tableTag'
p10
S'maxp'
p11
sS'tableVersion'
p12
I20480
ssssS'com.schriftgestaltung.weight'
p13
S'Light'
p14
sS'com.typemytype.robofont.compileSettings.autohint'
p15
I0
sS'GSDimensionPlugin.Dimensions'
p16
(dp17
S'1F09728C-766D-4240-AE17-E499EF32E23D'
p18
(dp19
sS'98C086B7-81AA-4491-8494-0C6A76849168'
p20
(dp21
sS'EFCDB4D9-E20B-4A8D-9DB5-150AD166B0AE'
p22
(dp23
ssS'com.typemytype.robofont.compileSettings.checkOutlines'
p24
I1
sS'com.typemytype.robofont.compileSettings.MacRomanFirst'
p25
I1
sS'com.typemytype.robofont.shouldAddPointsInSplineConversion'
p26
I1
sS'com.typemytype.robofont.compileSettings.decompose'
p27
I1
sS'com.typemytype.robofont.compileSettings.path'
p28

StartChar: A
Encoding: 65 65 0
Width: 1697
VWidth: 0
Flags: HW
PickledData: "(dp1
S'org.robofab.postScriptHintData'
p2
(dp3
sS'com.typemytype.robofont.layerData'
p4
(dp5
S'b'
(dp6
S'name'
p7
S'A'
sS'lib'
p8
(dp9
sS'unicodes'
p10
(tsS'width'
p11
I1433
sS'contours'
p12
(tsS'components'
p13
(tsS'anchors'
p14
(tsss."
AnchorPoint: "top" 814 1152 basechar 0
LayerCount: 2
Fore
SplineSet
631 569 m 1
 765 908 l 1
 777 908 l 1
 900 569 l 1
 631 569 l 1
51 0 m 1
 684 0 l 1
 684 224 l 1
 516 224 l 1
 583 412 l 1
 953 412 l 1
 1015 224 l 1
 825 224 l 1
 825 0 l 1
 1645 0 l 1
 1645 224 l 1
 1482 224 l 1
 1184 928 l 1
 1330 928 l 1
 1330 1152 l 1
 352 1152 l 1
 352 928 l 1
 516 928 l 1
 210 224 l 1
 51 224 l 1
 51 0 l 1
EndSplineSet
EndChar

StartChar: AE
Encoding: 198 198 1
Width: 2004
VWidth: 0
Flags: HW
PickledData: "(dp1
S'org.robofab.postScriptHintData'
p2
(dp3
sS'com.typemytype.robofont.layerData'
p4
(dp5
S'b'
(dp6
S'name'
p7
S'AE'
p8
sS'lib'
p9
(dp10
sS'unicodes'
p11
(tsS'width'
p12
I1877
sS'contours'
p13
(tsS'components'
p14
(tsS'anchors'
p15
(tsss."
AnchorPoint: "top" 1277 1152 basechar 0
LayerCount: 2
Fore
SplineSet
38 0 m 257
 659 0 l 257
 659 224 l 257
 584 224 l 257
 674 413 l 257
 963 413 l 257
 963 224 l 257
 830 224 l 257
 830 0 l 257
 1960 0 l 257
 1960 391 l 257
 1758 391 l 257
 1758 224 l 257
 1379 224 l 257
 1379 524 l 257
 1503 524 l 257
 1503 375 l 257
 1641 375 l 257
 1641 789 l 257
 1503 789 l 257
 1503 625 l 257
 1378 625 l 257
 1378 928 l 257
 1756 928 l 257
 1756 768 l 257
 1958 768 l 257
 1958 1152 l 257
 474 1152 l 257
 474 928 l 257
 592 928 l 257
 208 224 l 257
 38 224 l 257
 38 0 l 257
740 544 m 257
 939 928 l 257
 963 928 l 257
 963 544 l 257
 740 544 l 257
EndSplineSet
EndChar

StartChar: B
Encoding: 66 66 13
Width: 1495
VWidth: 0
Flags: HW
PickledData: "(dp1
S'org.robofab.postScriptHintData'
p2
(dp3
sS'com.typemytype.robofont.layerData'
p4
(dp5
S'b'
(dp6
S'name'
p7
S'B'
sS'lib'
p8
(dp9
sS'unicodes'
p10
(tsS'width'
p11
I1260
sS'contours'
p12
((dp13
S'points'
p14
((dp15
S'segmentType'
p16
S'line'
p17
sS'x'
I353
sS'smooth'
p18
I0
sS'y'
I1095
s(dp19
g16
S'line'
p20
sS'x'
I740
sg18
I1
sS'y'
I1095
s(dp21
S'y'
I1095
sS'x'
I917
sg18
I0
s(dp22
S'y'
I983
sS'x'
I1004
sg18
I0
s(dp23
g16
S'curve'
p24
sS'x'
I1004
sg18
I1
sS'y'
I868
s(dp25
S'y'
I751
sS'x'
I1004
sg18
I0
s(dp26
S'y'
I634
sS'x'
I928
sg18
I0
s(dp27
g16
S'curve'
p28
sS'x'
I784
sg18
I1
sS'y'
I634
s(dp29
g16
S'line'
p30
sS'x'
I353
sg18
I0
sS'y'
I634
stp31
s(dp32
g14
((dp33
g16
S'line'
p34
sS'x'
I353
sg18
I0
sS'y'
I573
s(dp35
g16
S'line'
p36
sS'x'
I793
sg18
I1
sS'y'
I573
s(dp37
S'y'
I573
sS'x'
I979
sg18
I0
s(dp38
S'y'
I439
sS'x'
I1072
sg18
I0
s(dp39
g16
S'curve'
p40
sS'x'
I1072
sg18
I1
sS'y'
I320
s(dp41
S'y'
I187
sS'x'
I1072
sg18
I0
s(dp42
S'y'
I58
sS'x'
I985
sg18
I0
s(dp43
g16
S'curve'
p44
sS'x'
I807
sg18
I1
sS'y'
I58
s(dp45
g16
S'line'
p46
sS'x'
I353
sg18
I0
sS'y'
I58
stp47
s(dp48
g14
((dp49
g16
S'line'
p50
sS'x'
I807
sg18
I1
sS'y'
I0
s(dp51
S'y'
I0
sS'x'
I1031
sg18
I0
s(dp52
S'y'
I158
sS'x'
I1146
sg18
I0
s(dp53
g16
S'curve'
p54
sS'x'
I1146
sg18
I1
sS'y'
I316
s(dp55
S'y'
I439
sS'x'
I1146
sg18
I0
s(dp56
S'y'
I568
sS'x'
I1074
sg18
I0
s(dp57
g16
S'curve'
p58
sS'x'
I919
sg18
I0
sS'y'
I611
s(dp59
S'y'
I669
sS'x'
I1029
sg18
I0
s(dp60
S'y'
I769
sS'x'
I1079
sg18
I0
s(dp61
g16
S'curve'
p62
sS'x'
I1079
sg18
I1
sS'y'
I870
s(dp63
S'y'
I1012
sS'x'
I1079
sg18
I0
s(dp64
S'y'
I1154
sS'x'
I964
sg18
I0
s(dp65
g16
S'curve'
p66
sS'x'
I740
sg18
I1
sS'y'
I1154
s(dp67
g16
S'line'
p68
sS'x'
I122
sg18
I0
sS'y'
I1154
s(dp69
g16
S'line'
p70
sS'x'
I122
sg18
I0
sS'y'
I1095
s(dp71
g16
S'line'
p72
sS'x'
I278
sg18
I0
sS'y'
I1095
s(dp73
g16
S'line'
p74
sS'x'
I278
sg18
I0
sS'y'
I58
s(dp75
g16
S'line'
p76
sS'x'
I135
sg18
I0
sS'y'
I58
s(dp77
g16
S'line'
p78
sS'x'
I135
sg18
I0
sS'y'
I0
stp79
stp80
sS'components'
p81
(tsS'anchors'
p82
(tsss."
AnchorPoint: "top" 644 1152 basechar 0
LayerCount: 2
Fore
SplineSet
41 1152 m 1
 41 928 l 1
 214 928 l 1
 214 224 l 1
 41 224 l 1
 41 0 l 1
 824 0 l 2
 1292 0 1412 163 1412 357 c 0
 1412 461 1364 604 1108 636 c 1
 1278 661 1350 753 1350 897 c 0
 1350 1031 1218 1152 897 1152 c 2
 41 1152 l 1
800 931.914789263 m 1
 889.41728434 929.981219162 930 895.203586772 930 834 c 0
 930 751 887 726 787 726 c 2
 626 726 l 1
 626 928 l 1
 800 928 l 1
 800 931.914789263 l 1
626 532 m 1
 797 532 l 2
 978 532 983 440 983 380 c 0
 983 306 945 225 800 225 c 2
 626 225 l 1
 626 532 l 1
EndSplineSet
EndChar

StartChar: C
Encoding: 67 67 15
Width: 1505
VWidth: 0
Flags: HW
PickledData: "(dp1
S'org.robofab.postScriptHintData'
p2
(dp3
sS'com.typemytype.robofont.layerData'
p4
(dp5
S'b'
(dp6
S'name'
p7
S'C'
sS'lib'
p8
(dp9
sS'unicodes'
p10
(tsS'width'
p11
I1440
sS'contours'
p12
(tsS'components'
p13
(tsS'anchors'
p14
(tsss."
AnchorPoint: "bot" 754 0 basechar 0
AnchorPoint: "top" 760 1152 basechar 0
LayerCount: 2
Fore
SplineSet
775 -22 m 0
 1185 -22 1380 183 1423 443 c 1
 1118 514 l 1
 1081 307 941 246 790 246 c 0
 604 246 487 375 487 575 c 0
 487 778 591 906 785 906 c 0
 946 906 1049 847 1114 695 c 1
 1399 695 l 1
 1399 1151 l 1
 1146 1151 l 1
 1146 1030 l 1
 1147 1042 1040 1174 776 1174 c 0
 380 1174 80 951 80 565 c 0
 80 185 379 -22 775 -22 c 0
EndSplineSet
EndChar

StartChar: D
Encoding: 68 68 22
Width: 1581
VWidth: 0
Flags: HW
PickledData: "(dp1
S'org.robofab.postScriptHintData'
p2
(dp3
sS'com.typemytype.robofont.layerData'
p4
(dp5
S'b'
(dp6
S'name'
p7
S'D'
sS'lib'
p8
(dp9
sS'unicodes'
p10
(tsS'width'
p11
I1488
sS'contours'
p12
(tsS'components'
p13
(tsS'anchors'
p14
(tsss."
AnchorPoint: "top" 817 1148 basechar 0
LayerCount: 2
Fore
SplineSet
846 1152 m 2
 43 1152 l 1
 43 928 l 1
 216 928 l 1
 216 224 l 1
 43 224 l 1
 43 0 l 1
 846 0 l 2
 1288 0 1508 229 1508 575 c 0
 1508 905 1286 1152 846 1152 c 2
628 928 m 1
 701.666666667 928 775.333333333 928 849 928 c 0
 989 928 1064 788 1064 576 c 0
 1064 356 988 224 850 224 c 0
 776 224 702 224 628 224 c 1
 628 928 l 1
EndSplineSet
EndChar

StartChar: Delta
Encoding: 916 916 26
Width: 1229
VWidth: 0
Flags: HW
PickledData: "(dp1
S'org.robofab.postScriptHintData'
p2
(dp3
s."
LayerCount: 2
Fore
SplineSet
58 0 m 257
 1172 0 l 257
 1172 216 l 257
 759 1152 l 257
 461 1152 l 257
 58 216 l 257
 58 0 l 257
327 229 m 257
 596 901 l 257
 848 229 l 257
 327 229 l 257
EndSplineSet
EndChar

StartChar: E
Encoding: 69 69 29
Width: 1323
VWidth: 0
Flags: HW
PickledData: "(dp1
S'org.robofab.postScriptHintData'
p2
(dp3
sS'com.typemytype.robofont.layerData'
p4
(dp5
S'b'
(dp6
S'name'
p7
S'E'
sS'lib'
p8
(dp9
sS'unicodes'
p10
(tsS'width'
p11
I1314
sS'contours'
p12
(tsS'components'
p13
(tsS'anchors'
p14
(tsss."
AnchorPoint: "bot" 619 0 basechar 0
AnchorPoint: "top" 700 1152 basechar 0
LayerCount: 2
Fore
SplineSet
971 757 m 1
 1255 757 l 1
 1255 1152 l 1
 44 1152 l 1
 44 928 l 1
 217 928 l 1
 217 224 l 1
 44 224 l 1
 44 0 l 1
 1264 0 l 1
 1264 446 l 1
 973 446 l 1
 973 225 l 1
 629 225 l 1
 629 495 l 1
 765 495 l 1
 765 391 l 1
 871 391 l 1
 871 833 l 1
 763 833 l 1
 763 711 l 1
 629 711 l 1
 629 923.53358209 l 1
 971 928 l 1
 971 757 l 1
EndSplineSet
EndChar

StartChar: Eng
Encoding: 330 330 38
Width: 1761
VWidth: 0
Flags: HW
PickledData: "(dp1
S'org.robofab.postScriptHintData'
p2
(dp3
s."
LayerCount: 2
Fore
SplineSet
961 -372 m 257
 1003.09034908 -372 1045.55012249 -372.854293774 1087.2952267 -372.854293774 c 0
 1320.27803802 -372.854293774 1531 -346.244353183 1531 4 c 258
 1531 490 l 257
 1269 490 l 257
 1269 18 l 258
 1269 -180.458715596 1097.85211683 -185.010521 977.918308393 -185.010521 c 0
 972.152259911 -185.010521 966.504587156 -185 961 -185 c 257
 961 -372 l 257
EndSplineSet
Refer: 78 78 N 1 0 0 1 0 0 2
EndChar

StartChar: Euro
Encoding: 8364 8364 41
Width: 1525
VWidth: 0
Flags: HW
PickledData: "(dp1
S'org.robofab.postScriptHintData'
p2
(dp3
s."
LayerCount: 2
Fore
SplineSet
-13 395 m 257
 722 395 l 257
 762 516 l 257
 356 516 l 257
 356 634 l 257
 722 634 l 257
 762 755 l 257
 27 755 l 257
 -13 634 l 257
 284 634 l 257
 284 516 l 257
 27 516 l 257
 -13 395 l 257
EndSplineSet
Refer: 15 67 N 1 0 0 1 0 0 2
EndChar

StartChar: F
Encoding: 70 70 42
Width: 1293
VWidth: 0
Flags: HW
PickledData: "(dp1
S'org.robofab.postScriptHintData'
p2
(dp3
sS'com.typemytype.robofont.layerData'
p4
(dp5
S'b'
(dp6
S'name'
p7
S'F'
sS'lib'
p8
(dp9
sS'unicodes'
p10
(tsS'width'
p11
I1193
sS'contours'
p12
((dp13
S'points'
p14
((dp15
S'segmentType'
p16
S'line'
p17
sS'x'
I990
sS'smooth'
p18
I0
sS'y'
I1086
s(dp19
g16
S'line'
p20
sS'x'
I990
sg18
I0
sS'y'
I802
s(dp21
g16
S'line'
p22
sS'x'
I1062
sg18
I0
sS'y'
I802
s(dp23
g16
S'line'
p24
sS'x'
I1062
sg18
I0
sS'y'
I1152
s(dp25
g16
S'line'
p26
sS'x'
I122
sg18
I0
sS'y'
I1152
s(dp27
g16
S'line'
p28
sS'x'
I122
sg18
I0
sS'y'
I1086
s(dp29
g16
S'line'
p30
sS'x'
I286
sg18
I0
sS'y'
I1086
s(dp31
g16
S'line'
p32
sS'x'
I286
sg18
I0
sS'y'
I1039
s(dp33
g16
S'line'
p34
sS'x'
I363
sg18
I0
sS'y'
I1039
s(dp35
g16
S'line'
p36
sS'x'
I363
sg18
I0
sS'y'
I1086
stp37
s(dp38
g14
((dp39
g16
S'line'
p40
sS'x'
I286
sg18
I0
sS'y'
I1039
s(dp41
g16
S'line'
p42
sS'x'
I286
sg18
I0
sS'y'
I677
s(dp43
g16
S'line'
p44
sS'x'
I363
sg18
I0
sS'y'
I677
s(dp45
g16
S'line'
p46
sS'x'
I363
sg18
I0
sS'y'
I1039
stp47
s(dp48
g14
((dp49
g16
S'line'
p50
sS'x'
I286
sg18
I0
sS'y'
I677
s(dp51
g16
S'line'
p52
sS'x'
I286
sg18
I0
sS'y'
I65
s(dp53
g16
S'line'
p54
sS'x'
I122
sg18
I0
sS'y'
I65
s(dp55
g16
S'line'
p56
sS'x'
I122
sg18
I0
sS'y'
I0
s(dp57
g16
S'line'
p58
sS'x'
I552
sg18
I0
sS'y'
I0
s(dp59
g16
S'line'
p60
sS'x'
I552
sg18
I0
sS'y'
I65
s(dp61
g16
S'line'
p62
sS'x'
I363
sg18
I0
sS'y'
I65
s(dp63
g16
S'line'
p64
sS'x'
I363
sg18
I0
sS'y'
I539
s(dp65
g16
S'line'
p66
sS'x'
I824
sg18
I0
sS'y'
I539
s(dp67
g16
S'line'
p68
sS'x'
I824
sg18
I0
sS'y'
I378
s(dp69
g16
S'line'
p70
sS'x'
I886
sg18
I0
sS'y'
I378
s(dp71
g16
S'line'
p72
sS'x'
I886
sg18
I0
sS'y'
I764
s(dp73
g16
S'line'
p74
sS'x'
I824
sg18
I0
sS'y'
I764
s(dp75
g16
S'line'
p76
sS'x'
I824
sg18
I0
sS'y'
I601
s(dp77
g16
S'line'
p78
sS'x'
I363
sg18
I0
sS'y'
I601
s(dp79
g16
S'line'
p80
sS'x'
I363
sg18
I0
sS'y'
I677
stp81
stp82
sS'components'
p83
(tsS'anchors'
p84
(tsss."
AnchorPoint: "top" 665 1152 basechar 0
LayerCount: 2
Fore
SplineSet
1000 765 m 1
 1233 765 l 1
 1233 1152 l 1
 44 1152 l 1
 44 928 l 1
 217 928 l 1
 217 224 l 1
 44 224 l 1
 44 0 l 1
 803 0 l 1
 803 224 l 1
 629 224 l 1
 629 495 l 1
 801 495 l 1
 801 392 l 1
 924 392 l 1
 924 764 l 1
 798 764 l 1
 798 659 l 1
 629 659 l 1
 629 928 l 1
 752.666666667 928 876.333333333 928 1000 928 c 1
 1000 765 l 1
EndSplineSet
EndChar

StartChar: G
Encoding: 71 71 44
Width: 1561
VWidth: 0
Flags: HW
PickledData: "(dp1
S'org.robofab.postScriptHintData'
p2
(dp3
sS'com.typemytype.robofont.layerData'
p4
(dp5
S'b'
(dp6
S'name'
p7
S'G'
sS'lib'
p8
(dp9
sS'unicodes'
p10
(tsS'width'
p11
I1488
sS'contours'
p12
(tsS'components'
p13
(tsS'anchors'
p14
(tsss."
AnchorPoint: "bot" 818 0 basechar 0
AnchorPoint: "top" 833 1152 basechar 0
LayerCount: 2
Fore
SplineSet
802 -23 m 0
 1220 -23 1422 165 1427 604 c 1
 844 604 l 1
 844 389 l 1
 1066 389 l 1
 1053.13003902 293.960288173 967.73311787 244.984996999 814.660687409 244.984996999 c 0
 813.114032419 244.984996999 811.560468281 244.989996998 810 245 c 0
 659 245 498 345 498 568 c 0
 498 794 616 906 820 906 c 0
 956 906 1073 850 1150 706 c 1
 1408 706 l 1
 1408 1166 l 1
 1136 1166 l 1
 1136 1015 l 1
 1129 1084 932 1174 784 1174 c 0
 385 1174 95 927 95 568 c 0
 95 203 328 -23 802 -23 c 0
EndSplineSet
EndChar

StartChar: Gcommaaccent
Encoding: 290 290 49
Width: 1561
VWidth: 0
Flags: HW
PickledData: "(dp1
S'org.robofab.postScriptHintData'
p2
(dp3
sS'com.typemytype.robofont.layerData'
p4
(dp5
S'b'
(dp6
S'name'
p7
S'Gcommaaccent'
p8
sS'lib'
p9
(dp10
sS'unicodes'
p11
(tsS'width'
p12
I1488
sS'contours'
p13
(tsS'components'
p14
(tsS'anchors'
p15
(tsss."
LayerCount: 2
Fore
SplineSet
610 -695 m 257
 879 -695 990 -607 990 -441 c 258
 990 -129 l 257
 610 -129 l 257
 610 -364 l 257
 727 -364 l 257
 727 -465.731468214 721.367732449 -511.140260918 620.063664193 -511.140260918 c 0
 616.808864347 -511.140260918 613.455305031 -511.093386622 610 -511 c 257
 610 -695 l 257
EndSplineSet
Refer: 44 71 N 1 0 0 1 0 0 2
EndChar

StartChar: H
Encoding: 72 72 51
Width: 1679
VWidth: 0
Flags: HW
PickledData: "(dp1
S'org.robofab.postScriptHintData'
p2
(dp3
sS'com.typemytype.robofont.layerData'
p4
(dp5
S'b'
(dp6
S'name'
p7
S'H'
sS'lib'
p8
(dp9
sS'unicodes'
p10
(tsS'width'
p11
I1513
sS'contours'
p12
(tsS'components'
p13
(tsS'anchors'
p14
(tsss."
AnchorPoint: "bot" 847 0 basechar 0
AnchorPoint: "top" 845 1152 basechar 0
LayerCount: 2
Fore
SplineSet
44 0 m 1
 803 0 l 1
 803 224 l 1
 629 224 l 1
 629 473 l 1
 1050 473 l 1
 1050 224 l 1
 877 224 l 1
 877 0 l 1
 1636 0 l 1
 1636 224 l 1
 1462 224 l 1
 1462 928 l 1
 1636 928 l 1
 1636 1152 l 1
 877 1152 l 1
 877 928 l 1
 1050 928 l 1
 1050 684 l 1
 629 684 l 1
 629 928 l 1
 803 928 l 1
 803 1152 l 1
 44 1152 l 1
 44 928 l 1
 217 928 l 1
 217 224 l 1
 44 224 l 1
 44 0 l 1
EndSplineSet
EndChar

StartChar: Hbar
Encoding: 294 294 52
Width: 1442
VWidth: 0
Flags: HW
PickledData: "(dp1
S'org.robofab.postScriptHintData'
p2
(dp3
sS'com.typemytype.robofont.layerData'
p4
(dp5
S'b'
(dp6
S'name'
p7
S'Hbar'
p8
sS'lib'
p9
(dp10
sS'unicodes'
p11
(tsS'width'
p12
I1535
sS'contours'
p13
(tsS'components'
p14
(tsS'anchors'
p15
(tsss."
LayerCount: 2
Fore
SplineSet
99 723 m 257
 1506 723 l 257
 1506 895 l 257
 99 895 l 257
 99 723 l 257
EndSplineSet
Refer: 51 72 N 1 0 0 1 0 0 2
EndChar

StartChar: I
Encoding: 73 73 54
Width: 825
VWidth: 0
Flags: HW
PickledData: "(dp1
S'org.robofab.postScriptHintData'
p2
(dp3
sS'com.typemytype.robofont.layerData'
p4
(dp5
S'b'
(dp6
S'name'
p7
S'I'
sS'lib'
p8
(dp9
sS'unicodes'
p10
(tsS'width'
p11
I786
sS'contours'
p12
(tsS'components'
p13
(tsS'anchors'
p14
(tsss."
AnchorPoint: "top" 405 1148 basechar 0
LayerCount: 2
Fore
SplineSet
33 0 m 1
 792 0 l 1
 792 224 l 1
 618 224 l 1
 618 928 l 1
 792 928 l 1
 792 1152 l 1
 33 1152 l 1
 33 928 l 1
 206 928 l 1
 206 224 l 1
 33 224 l 1
 33 0 l 1
EndSplineSet
EndChar

StartChar: J
Encoding: 74 74 65
Width: 873
VWidth: 0
Flags: HW
PickledData: "(dp1
S'org.robofab.postScriptHintData'
p2
(dp3
sS'com.typemytype.robofont.layerData'
p4
(dp5
S'b'
(dp6
S'name'
p7
S'J'
sS'lib'
p8
(dp9
sS'unicodes'
p10
(tsS'width'
p11
I792
sS'contours'
p12
(tsS'components'
p13
(tsS'anchors'
p14
(tsss."
AnchorPoint: "top" 425 1152 basechar 0
LayerCount: 2
Fore
SplineSet
24 -326 m 1
 220 -326 l 2
 602 -326 649 -91 649 240 c 2
 649 928 l 1
 841 928 l 1
 841 1152 l 1
 26 1152 l 1
 26 928 l 1
 242 928 l 1
 242 187 l 2
 242 90 218 -26 110 -26 c 2
 24 -26 l 1
 24 -326 l 1
EndSplineSet
EndChar

StartChar: K
Encoding: 75 75 67
Width: 1664
VWidth: 0
Flags: HW
PickledData: "(dp1
S'org.robofab.postScriptHintData'
p2
(dp3
sS'com.typemytype.robofont.guides'
p4
((dp5
S'y'
I593
sS'x'
I467
sS'magnetic'
p6
I5
sS'angle'
p7
I0
sS'isGlobal'
p8
I0
stp9
sS'com.typemytype.robofont.layerData'
p10
(dp11
S'b'
(dp12
S'name'
p13
S'K'
sS'lib'
p14
(dp15
sS'unicodes'
p16
(tsS'width'
p17
I1384
sS'contours'
p18
(tsS'components'
p19
(tsS'anchors'
p20
(tsss."
AnchorPoint: "bot" 874 0 basechar 0
AnchorPoint: "top" 871 1152 basechar 0
LayerCount: 2
Fore
SplineSet
896 0 m 1
 1624 0 l 1
 1624 224 l 1
 1513 224 l 1
 1074 665 l 1
 1406 928 l 1
 1605 928 l 1
 1605 1152 l 1
 898 1152 l 1
 898 928 l 1
 1074 928 l 1
 629 610.85077951 l 1
 629 928 l 1
 803 928 l 1
 803 1152 l 1
 44 1152 l 1
 44 928 l 1
 217 928 l 1
 217 224 l 1
 44 224 l 1
 44 0 l 1
 803 0 l 1
 803 224 l 1
 629 224 l 1
 629 603.791780822 l 1
 990 224 l 1
 896 224 l 1
 896 0 l 1
EndSplineSet
EndChar

StartChar: Kcommaaccent
Encoding: 310 310 68
Width: 1664
VWidth: 0
Flags: HW
PickledData: "(dp1
S'org.robofab.postScriptHintData'
p2
(dp3
sS'com.typemytype.robofont.layerData'
p4
(dp5
S'b'
(dp6
S'name'
p7
S'Kcommaaccent'
p8
sS'lib'
p9
(dp10
sS'unicodes'
p11
(tsS'width'
p12
I1384
sS'contours'
p13
(tsS'components'
p14
(tsS'anchors'
p15
(tsss."
LayerCount: 2
Fore
SplineSet
666 -695 m 257
 935 -695 1046 -607 1046 -441 c 258
 1046 -129 l 257
 666 -129 l 257
 666 -364 l 257
 783 -364 l 257
 783 -465.731468214 777.367732449 -511.140260918 676.063664193 -511.140260918 c 0
 672.808864347 -511.140260918 669.455305031 -511.093386622 666 -511 c 257
 666 -695 l 257
EndSplineSet
Refer: 67 75 N 1 0 0 1 0 0 2
EndChar

StartChar: L
Encoding: 76 76 69
Width: 1376
VWidth: 0
Flags: HW
PickledData: "(dp1
S'org.robofab.postScriptHintData'
p2
(dp3
sS'com.typemytype.robofont.layerData'
p4
(dp5
S'b'
(dp6
S'name'
p7
S'L'
sS'lib'
p8
(dp9
sS'unicodes'
p10
(tsS'width'
p11
I1189
sS'contours'
p12
(tsS'components'
p13
(tsS'anchors'
p14
(tsss."
AnchorPoint: "bot" 690 0 basechar 0
AnchorPoint: "caron.alt" 724 936 basechar 0
AnchorPoint: "top" 372 1152 basechar 0
LayerCount: 2
Fore
SplineSet
629 224 m 1
 629 928 l 1
 803 928 l 1
 803 1152 l 1
 44 1152 l 1
 44 928 l 1
 217 928 l 1
 217 224 l 1
 44 224 l 1
 44 0 l 1
 1307 0 l 1
 1307 585 l 1
 979 585 l 1
 979 224 l 1
 862.333333333 224 745.666666667 224 629 224 c 1
EndSplineSet
EndChar

StartChar: Lcommaaccent
Encoding: 315 315 72
Width: 1376
VWidth: 0
Flags: HW
PickledData: "(dp1
S'org.robofab.postScriptHintData'
p2
(dp3
sS'com.typemytype.robofont.layerData'
p4
(dp5
S'b'
(dp6
S'name'
p7
S'Lcommaaccent'
p8
sS'lib'
p9
(dp10
sS'unicodes'
p11
(tsS'width'
p12
I1189
sS'contours'
p13
(tsS'components'
p14
(tsS'anchors'
p15
(tsss."
LayerCount: 2
Fore
SplineSet
482 -695 m 257
 751 -695 862 -607 862 -441 c 258
 862 -129 l 257
 482 -129 l 257
 482 -364 l 257
 599 -364 l 257
 599 -465.731468214 593.367732449 -511.140260918 492.063664193 -511.140260918 c 0
 488.808864347 -511.140260918 485.455305031 -511.093386622 482 -511 c 257
 482 -695 l 257
EndSplineSet
Refer: 69 76 N 1 0 0 1 0 0 2
EndChar

StartChar: Lslash
Encoding: 321 321 75
Width: 1320
VWidth: 0
Flags: HW
PickledData: "(dp1
S'org.robofab.postScriptHintData'
p2
(dp3
sS'com.typemytype.robofont.layerData'
p4
(dp5
S'b'
(dp6
S'name'
p7
S'Lslash'
p8
sS'lib'
p9
(dp10
sS'unicodes'
p11
(tsS'width'
p12
I1189
sS'contours'
p13
(tsS'components'
p14
(tsS'anchors'
p15
(tsss."
LayerCount: 2
Fore
SplineSet
29 349 m 257
 850 678 l 257
 850 838 l 257
 29 514 l 257
 29 349 l 257
EndSplineSet
Refer: 69 76 N 1 0 0 1 0 0 2
EndChar

StartChar: M
Encoding: 77 77 76
Width: 2044
VWidth: 0
Flags: HW
PickledData: "(dp1
S'org.robofab.postScriptHintData'
p2
(dp3
sS'com.typemytype.robofont.layerData'
p4
(dp5
S'b'
(dp6
S'name'
p7
S'M'
sS'lib'
p8
(dp9
sS'unicodes'
p10
(tsS'width'
p11
I1856
sS'contours'
p12
(tsS'components'
p13
(tsS'anchors'
p14
(tsss."
AnchorPoint: "top" 1022 1152 basechar 0
LayerCount: 2
Fore
SplineSet
44 0 m 1
 639 0 l 1
 639 224 l 1
 485 224 l 1
 485 903 l 1
 852 23 l 1
 1038 23 l 1
 1409 904 l 1
 1409 224 l 1
 1241 224 l 1
 1241 0 l 1
 1999 0 l 1
 1999 224 l 1
 1809 224 l 1
 1809 928 l 1
 1995 928 l 1
 1995 1152 l 1
 1290 1152 l 1
 1021 535 l 1
 753 1152 l 1
 44 1152 l 1
 44 928 l 1
 220 928 l 1
 220 224 l 1
 44 224 l 1
 44 0 l 1
EndSplineSet
EndChar

StartChar: N
Encoding: 78 78 78
Width: 1741
VWidth: 0
Flags: HW
PickledData: "(dp1
S'org.robofab.postScriptHintData'
p2
(dp3
sS'com.typemytype.robofont.layerData'
p4
(dp5
S'b'
(dp6
S'name'
p7
S'N'
sS'lib'
p8
(dp9
sS'unicodes'
p10
(tsS'width'
p11
I1571
sS'contours'
p12
(tsS'components'
p13
(tsS'anchors'
p14
(tsss."
AnchorPoint: "bot" 978 0 basechar 0
AnchorPoint: "top" 921 1152 basechar 0
LayerCount: 2
Fore
SplineSet
44 0 m 1
 664 0 l 1
 664 224 l 1
 490 224 l 1
 490 765 l 1
 1180 0 l 1
 1509 0 l 1
 1509 928 l 1
 1703 928 l 1
 1703 1152 l 1
 1076 1152 l 1
 1076 928 l 1
 1244 928 l 1
 1244 551 l 1
 662 1152 l 1
 44 1152 l 1
 44 928 l 1
 230 928 l 1
 230 224 l 1
 44 224 l 1
 44 0 l 1
EndSplineSet
EndChar

StartChar: Ncommaaccent
Encoding: 325 325 81
Width: 1741
VWidth: 0
Flags: HW
PickledData: "(dp1
S'org.robofab.postScriptHintData'
p2
(dp3
sS'com.typemytype.robofont.layerData'
p4
(dp5
S'b'
(dp6
S'name'
p7
S'Ncommaaccent'
p8
sS'lib'
p9
(dp10
sS'unicodes'
p11
(tsS'width'
p12
I1571
sS'contours'
p13
(tsS'components'
p14
(tsS'anchors'
p15
(tsss."
LayerCount: 2
Fore
SplineSet
769 -695 m 257
 1038 -695 1149 -607 1149 -441 c 258
 1149 -129 l 257
 769 -129 l 257
 769 -364 l 257
 886 -364 l 257
 886 -465.731468214 880.367732449 -511.140260918 779.063664193 -511.140260918 c 0
 775.808864347 -511.140260918 772.455305031 -511.093386622 769 -511 c 257
 769 -695 l 257
EndSplineSet
Refer: 78 78 N 1 0 0 1 0 0 2
EndChar

StartChar: O
Encoding: 79 79 84
Width: 1572
VWidth: 0
Flags: HW
PickledData: "(dp1
S'org.robofab.postScriptHintData'
p2
(dp3
sS'com.typemytype.robofont.layerData'
p4
(dp5
S'b'
(dp6
S'name'
p7
S'O'
sS'lib'
p8
(dp9
sS'unicodes'
p10
(tsS'width'
p11
I1538
sS'contours'
p12
(tsS'components'
p13
(tsS'anchors'
p14
(tsss."
AnchorPoint: "top" 777 1148 basechar 0
LayerCount: 2
Fore
SplineSet
786 -22 m 3
 1213.32487785 -22 1492 204.120137746 1492 571 c 0
 1492 936 1213 1174 787 1174 c 0
 360 1174 80 936 80 570 c 0
 80 204.135425876 359.696923804 -22 786 -22 c 3
787 246 m 0
 603 246 484 380 484 583 c 0
 484 785.439304208 601.986415479 906 786 906 c 3
 970.970309967 906 1089 787.736454002 1089 583 c 4
 1089 380 970 246 787 246 c 0
EndSplineSet
EndChar

StartChar: OE
Encoding: 338 338 85
Width: 2470
VWidth: 0
Flags: HW
PickledData: "(dp1
S'org.robofab.postScriptHintData'
p2
(dp3
sS'com.typemytype.robofont.layerData'
p4
(dp5
S'b'
(dp6
S'name'
p7
S'OE'
p8
sS'lib'
p9
(dp10
sS'unicodes'
p11
(tsS'width'
p12
I2046
sS'contours'
p13
(tsS'components'
p14
(tsS'anchors'
p15
(tsss."
LayerCount: 2
Fore
SplineSet
1180 0 m 258
 2368 0 l 257
 2368 384 l 257
 2072 384 l 257
 2072 203 l 257
 1701 203 l 257
 1701 526 l 257
 1884 526 l 257
 1884 441 l 257
 1990 441 l 257
 1990 817 l 257
 1885 817 l 257
 1885 770 l 257
 1708 770 l 257
 1708 945 l 257
 2074 945 l 257
 2074 767 l 257
 2354 767 l 257
 2354 1152 l 257
 1177 1152 l 258
 1169.35800961 1152.05207489 1161.76262818 1152.07821825 1154.21392853 1152.07821825 c 0
 581.928518898 1152.07821825 277.947925108 1001.81854825 274 609 c 257
 278 171 591 0 1180 0 c 258
1090 203 m 258
 1084.31906214 202.830780574 1078.69539471 202.746298007 1073.12949216 202.746298007 c 0
 848.453992352 202.746298007 717.903303185 340.406163967 714 599 c 257
 718 829 894 942 1111 945 c 257
 1291 949 l 257
 1291 210 l 257
 1090 203 l 258
EndSplineSet
EndChar

StartChar: Omega
Encoding: 937 937 93
Width: 1488
VWidth: 0
Flags: HW
PickledData: "(dp1
S'org.robofab.postScriptHintData'
p2
(dp3
s."
LayerCount: 2
Fore
SplineSet
76 0 m 257
 690 0 l 257
 690 201 l 257
 484 257 415 457 415 618 c 256
 415 825 540 935 744 935 c 256
 948 935 1073 825 1073 617 c 256
 1073 457 1004 257 799 201 c 257
 799 0 l 257
 1413 0 l 257
 1413 224 l 257
 1180 224 l 257
 1345 318 1413 474 1413 639 c 256
 1413 930 1167 1174 744 1174 c 256
 324 1174 76 929 76 637 c 256
 76 473 144 318 310 224 c 257
 76 224 l 257
 76 0 l 257
EndSplineSet
EndChar

StartChar: Oslash
Encoding: 216 216 94
Width: 1611
VWidth: 0
Flags: HW
PickledData: "(dp1
S'org.robofab.postScriptHintData'
p2
(dp3
sS'com.typemytype.robofont.layerData'
p4
(dp5
S'b'
(dp6
S'name'
p7
S'Oslash'
p8
sS'lib'
p9
(dp10
sS'unicodes'
p11
(tsS'width'
p12
I1439
sS'contours'
p13
(tsS'components'
p14
(tsS'anchors'
p15
(tsss."
LayerCount: 2
Fore
SplineSet
402 -113 m 257
 1361 1159 l 257
 1211 1266 l 257
 252 -6 l 257
 402 -113 l 257
EndSplineSet
Refer: 84 79 N 1 0 0 1 0 0 2
EndChar

StartChar: P
Encoding: 80 80 97
Width: 1362
VWidth: 0
Flags: HW
PickledData: "(dp1
S'org.robofab.postScriptHintData'
p2
(dp3
sS'com.typemytype.robofont.layerData'
p4
(dp5
S'b'
(dp6
S'name'
p7
S'P'
sS'lib'
p8
(dp9
sS'unicodes'
p10
(tsS'width'
p11
I1250
sS'contours'
p12
((dp13
S'points'
p14
((dp15
S'segmentType'
p16
S'line'
p17
sS'x'
I353
sS'smooth'
p18
I0
sS'y'
I1095
s(dp19
g16
S'line'
p20
sS'x'
I759
sg18
I1
sS'y'
I1095
s(dp21
S'y'
I1095
sS'x'
I936
sg18
I0
s(dp22
S'y'
I960
sS'x'
I1024
sg18
I0
s(dp23
g16
S'curve'
p24
sS'x'
I1024
sg18
I1
sS'y'
I823
s(dp25
S'y'
I683
sS'x'
I1024
sg18
I0
s(dp26
S'y'
I544
sS'x'
I934
sg18
I0
s(dp27
g16
S'curve'
p28
sS'x'
I759
sg18
I1
sS'y'
I544
s(dp29
g16
S'line'
p30
sS'x'
I353
sg18
I0
sS'y'
I544
stp31
s(dp32
g14
((dp33
g16
S'line'
p34
sS'x'
I135
sg18
I0
sS'y'
I0
s(dp35
g16
S'line'
p36
sS'x'
I512
sg18
I0
sS'y'
I0
s(dp37
g16
S'line'
p38
sS'x'
I512
sg18
I0
sS'y'
I58
s(dp39
g16
S'line'
p40
sS'x'
I353
sg18
I0
sS'y'
I58
s(dp41
g16
S'line'
p42
sS'x'
I353
sg18
I0
sS'y'
I483
s(dp43
g16
S'line'
p44
sS'x'
I759
sg18
I1
sS'y'
I483
s(dp45
S'y'
I483
sS'x'
I984
sg18
I0
s(dp46
S'y'
I656
sS'x'
I1098
sg18
I0
s(dp47
g16
S'curve'
p48
sS'x'
I1098
sg18
I1
sS'y'
I826
s(dp49
S'y'
I989
sS'x'
I1098
sg18
I0
s(dp50
S'y'
I1154
sS'x'
I984
sg18
I0
s(dp51
g16
S'curve'
p52
sS'x'
I759
sg18
I1
sS'y'
I1154
s(dp53
g16
S'line'
p54
sS'x'
I122
sg18
I0
sS'y'
I1154
s(dp55
g16
S'line'
p56
sS'x'
I122
sg18
I0
sS'y'
I1095
s(dp57
g16
S'line'
p58
sS'x'
I278
sg18
I0
sS'y'
I1095
s(dp59
g16
S'line'
p60
sS'x'
I278
sg18
I0
sS'y'
I58
s(dp61
g16
S'line'
p62
sS'x'
I135
sg18
I0
sS'y'
I58
stp63
stp64
sS'components'
p65
(tsS'anchors'
p66
(tsss."
AnchorPoint: "top" 619 1152 basechar 0
LayerCount: 2
Fore
SplineSet
709 450 m 1
 728 450 l 2
 1236 450 1322 557 1322 807 c 0
 1322 1083 1143 1152 810 1152 c 2
 44 1152 l 1
 44 928 l 1
 217 928 l 1
 217 224 l 1
 44 224 l 1
 44 0 l 1
 803 0 l 1
 803 224 l 1
 629 224 l 1
 629 928 l 1
 688.333333333 928 747.666666667 928 807 928 c 0
 851 928 916 897 916 808 c 0
 916 712 892 660 756 660 c 2
 709 660 l 1
 709 450 l 1
EndSplineSet
EndChar

StartChar: Q
Encoding: 81 81 99
Width: 1572
VWidth: 0
Flags: HW
PickledData: "(dp1
S'org.robofab.postScriptHintData'
p2
(dp3
sS'com.typemytype.robofont.layerData'
p4
(dp5
S'b'
(dp6
S'name'
p7
S'Q'
sS'lib'
p8
(dp9
sS'unicodes'
p10
(tsS'width'
p11
I1538
sS'contours'
p12
(tsS'components'
p13
(tsS'anchors'
p14
(tsss."
LayerCount: 2
Fore
SplineSet
1404 -357 m 257
 1404 -99 l 257
 1325.27247986 -125.114494485 1238.13836179 -146.214527042 1158.96641307 -146.214527042 c 0
 1031.98110624 -146.214527042 925.478899492 -91.9335818579 907 83 c 257
 559 83 l 257
 600.318232776 -291.001244952 866.454535513 -400.09270995 1119.52387053 -400.09270995 c 0
 1221.69774038 -400.09270995 1321.74163058 -382.310267513 1404 -357 c 257
EndSplineSet
Refer: 84 79 N 1 0 0 1 0 0 2
EndChar

StartChar: R
Encoding: 82 82 100
Width: 1568
VWidth: 0
Flags: HW
PickledData: "(dp1
S'org.robofab.postScriptHintData'
p2
(dp3
sS'com.typemytype.robofont.layerData'
p4
(dp5
S'b'
(dp6
S'name'
p7
S'R'
sS'lib'
p8
(dp9
sS'unicodes'
p10
(tsS'width'
p11
I1373
sS'contours'
p12
((dp13
S'points'
p14
((dp15
S'segmentType'
p16
S'line'
p17
sS'x'
I135
sS'smooth'
p18
I0
sS'y'
I0
s(dp19
g16
S'line'
p20
sS'x'
I512
sg18
I0
sS'y'
I0
s(dp21
g16
S'line'
p22
sS'x'
I512
sg18
I0
sS'y'
I58
s(dp23
g16
S'line'
p24
sS'x'
I353
sg18
I0
sS'y'
I58
s(dp25
g16
S'line'
p26
sS'x'
I353
sg18
I0
sS'y'
I539
s(dp27
g16
S'line'
p28
sS'x'
I641
sg18
I0
sS'y'
I539
s(dp29
g16
S'line'
p30
sS'x'
I961
sg18
I0
sS'y'
I0
s(dp31
g16
S'line'
p32
sS'x'
I1178
sg18
I0
sS'y'
I0
s(dp33
g16
S'line'
p34
sS'x'
I1178
sg18
I0
sS'y'
I58
s(dp35
g16
S'line'
p36
sS'x'
I1015
sg18
I0
sS'y'
I58
s(dp37
g16
S'line'
p38
sS'x'
I721
sg18
I0
sS'y'
I539
s(dp39
S'y'
I539
sS'x'
I945
sg18
I0
s(dp40
S'y'
I696
sS'x'
I1059
sg18
I0
s(dp41
g16
S'curve'
p42
sS'x'
I1059
sg18
I1
sS'y'
I848
s(dp43
S'y'
I1000
sS'x'
I1059
sg18
I0
s(dp44
S'y'
I1154
sS'x'
I945
sg18
I0
s(dp45
g16
S'curve'
p46
sS'x'
I721
sg18
I1
sS'y'
I1154
s(dp47
g16
S'line'
p48
sS'x'
I122
sg18
I0
sS'y'
I1154
s(dp49
g16
S'line'
p50
sS'x'
I122
sg18
I0
sS'y'
I1095
s(dp51
g16
S'line'
p52
sS'x'
I278
sg18
I0
sS'y'
I1095
s(dp53
g16
S'line'
p54
sS'x'
I278
sg18
I0
sS'y'
I58
s(dp55
g16
S'line'
p56
sS'x'
I135
sg18
I0
sS'y'
I58
stp57
s(dp58
g14
((dp59
g16
S'line'
p60
sS'x'
I353
sg18
I0
sS'y'
I1095
s(dp61
g16
S'line'
p62
sS'x'
I721
sg18
I1
sS'y'
I1095
s(dp63
S'y'
I1095
sS'x'
I898
sg18
I0
s(dp64
S'y'
I971
sS'x'
I985
sg18
I0
s(dp65
g16
S'curve'
p66
sS'x'
I985
sg18
I1
sS'y'
I845
s(dp67
S'y'
I723
sS'x'
I985
sg18
I0
s(dp68
S'y'
I600
sS'x'
I896
sg18
I0
s(dp69
g16
S'curve'
p70
sS'x'
I721
sg18
I1
sS'y'
I600
s(dp71
g16
S'line'
p72
sS'x'
I353
sg18
I0
sS'y'
I600
stp73
stp74
sS'components'
p75
(tsS'anchors'
p76
(tsss."
AnchorPoint: "bot" 783 0 basechar 0
AnchorPoint: "top" 609 1152 basechar 0
LayerCount: 2
Fore
SplineSet
1038 0 m 1
 1508 0 l 1
 1508 225 l 1
 1344 225 l 1
 1181 514 l 1
 1261 538 1425 582 1425 833 c 0
 1425 1107 1213 1152 935 1152 c 2
 44 1152 l 1
 44 928 l 1
 217 928 l 1
 217 224 l 1
 44 224 l 1
 44 0 l 1
 803 0 l 1
 803 224 l 1
 629 224 l 1
 629 928 l 1
 709.666666667 928 790.333333333 928 871 928 c 0
 974 928 1016 873 1016 810 c 0
 1016 730 977 685 851 685 c 2
 713 685 l 1
 713 477 l 1
 788 477 l 1
 1038 0 l 1
EndSplineSet
EndChar

StartChar: Rcommaaccent
Encoding: 342 342 103
Width: 1568
VWidth: 0
Flags: HW
PickledData: "(dp1
S'org.robofab.postScriptHintData'
p2
(dp3
sS'com.typemytype.robofont.layerData'
p4
(dp5
S'b'
(dp6
S'name'
p7
S'Rcommaaccent'
p8
sS'lib'
p9
(dp10
sS'unicodes'
p11
(tsS'width'
p12
I1373
sS'contours'
p13
(tsS'components'
p14
(tsS'anchors'
p15
(tsss."
LayerCount: 2
Fore
SplineSet
575 -695 m 257
 844 -695 955 -607 955 -441 c 258
 955 -129 l 257
 575 -129 l 257
 575 -364 l 257
 692 -364 l 257
 692 -465.731468214 686.367732449 -511.140260918 585.063664193 -511.140260918 c 0
 581.808864347 -511.140260918 578.455305031 -511.093386622 575 -511 c 257
 575 -695 l 257
EndSplineSet
Refer: 100 82 N 1 0 0 1 0 0 2
EndChar

StartChar: S
Encoding: 83 83 104
Width: 1206
VWidth: 0
Flags: HW
PickledData: "(dp1
S'org.robofab.postScriptHintData'
p2
(dp3
sS'com.typemytype.robofont.layerData'
p4
(dp5
S'b'
(dp6
S'name'
p7
S'S'
sS'lib'
p8
(dp9
sS'unicodes'
p10
(tsS'width'
p11
I1170
sS'contours'
p12
((dp13
S'points'
p14
((dp15
S'segmentType'
p16
S'curve'
p17
sS'x'
I636
sS'smooth'
p18
I1
sS'y'
S'-23'
p19
s(dp20
S'y'
S'-23'
p21
sS'x'
I930
sg18
I0
s(dp22
S'y'
I171
sS'x'
I1026
sg18
I0
s(dp23
g16
S'curve'
p24
sS'x'
I1026
sg18
I1
sS'y'
I295
s(dp25
S'y'
I543
sS'x'
I1026
sg18
I0
s(dp26
S'y'
I599
sS'x'
I829
sg18
I0
s(dp27
g16
S'curve'
p28
sS'x'
I606
sg18
I1
sS'y'
I622
s(dp29
S'y'
I643
sS'x'
I405
sg18
I0
s(dp30
S'y'
I667
sS'x'
I269
sg18
I0
s(dp31
g16
S'curve'
p32
sS'x'
I269
sg18
I1
sS'y'
I851
s(dp33
S'y'
I998
sS'x'
I269
sg18
I0
s(dp34
S'y'
I1104
sS'x'
I360
sg18
I0
s(dp35
g16
S'curve'
p36
sS'x'
I573
sg18
I1
sS'y'
I1104
s(dp37
S'y'
I1104
sS'x'
I719
sg18
I0
s(dp38
S'y'
I1024
sS'x'
I885
sg18
I0
s(dp39
g16
S'curve'
p40
sS'x'
I885
sg18
I1
sS'y'
I941
s(dp41
g16
S'line'
p42
sS'x'
I885
sg18
I0
sS'y'
I839
s(dp43
g16
S'line'
p44
sS'x'
I959
sg18
I0
sS'y'
I839
s(dp45
g16
S'line'
p46
sS'x'
I959
sg18
I0
sS'y'
I1152
s(dp47
g16
S'line'
p48
sS'x'
I885
sg18
I0
sS'y'
I1152
s(dp49
g16
S'line'
p50
sS'x'
I885
sg18
I0
sS'y'
I1049
s(dp51
S'y'
I1131
sS'x'
I828
sg18
I0
s(dp52
S'y'
I1172
sS'x'
I673
sg18
I0
s(dp53
g16
S'curve'
p54
sS'x'
I561
sg18
I1
sS'y'
I1172
s(dp55
S'y'
I1172
sS'x'
I360
sg18
I0
s(dp56
S'y'
I1066
sS'x'
I184
sg18
I0
s(dp57
g16
S'curve'
p58
sS'x'
I184
sg18
I1
sS'y'
I863
s(dp59
S'y'
I635
sS'x'
I184
sg18
I0
s(dp60
S'y'
I579
sS'x'
I332
sg18
I0
s(dp61
g16
S'curve'
p62
sS'x'
I584
sg18
I1
sS'y'
I553
s(dp63
S'y'
I531
sS'x'
I805
sg18
I0
s(dp64
S'y'
I488
sS'x'
I942
sg18
I0
s(dp65
g16
S'curve'
p66
sS'x'
I942
sg18
I1
sS'y'
I300
s(dp67
S'y'
I169
sS'x'
I942
sg18
I0
s(dp68
S'y'
I47
sS'x'
I831
sg18
I0
s(dp69
g16
S'curve'
p70
sS'x'
I644
sg18
I1
sS'y'
I47
s(dp71
S'y'
I47
sS'x'
I448
sg18
I0
s(dp72
S'y'
I118
sS'x'
I261
sg18
I0
s(dp73
g16
S'curve'
p74
sS'x'
I261
sg18
I1
sS'y'
I247
s(dp75
g16
S'line'
p76
sS'x'
I261
sg18
I0
sS'y'
I387
s(dp77
g16
S'line'
p78
sS'x'
I187
sg18
I0
sS'y'
I387
s(dp79
g16
S'line'
p80
sS'x'
I187
sg18
I0
sS'y'
S'-1'
p81
s(dp82
g16
S'line'
p83
sS'x'
I261
sg18
I0
sS'y'
S'-1'
p84
s(dp85
g16
S'line'
p86
sS'x'
I261
sg18
I0
sS'y'
I122
s(dp87
S'y'
I22
sS'x'
I335
sg18
I0
s(dp88
S'y'
S'-23'
p89
sS'x'
I496
sg18
I0
stp90
stp91
sS'components'
p92
(tsS'anchors'
p93
(tsss."
AnchorPoint: "bot" 667 0 basechar 0
AnchorPoint: "top" 583 1148 basechar 0
LayerCount: 2
Fore
SplineSet
673 -23 m 0
 993.616335482 -23 1105.75207082 171.581893468 1105.75207082 355.102019388 c 0
 1105.75207082 368.486780493 1105.15558807 381.812700824 1104 395 c 0
 1090 551 1053 635 706 751 c 0
 526.598771786 812.136731402 519.974944165 838.622492577 519.974944165 885.753220127 c 0
 519.974944165 920.061297479 548.785961998 951 595 951 c 0
 705 951 792 879 798 875 c 1
 798 801 l 1
 1044 801 l 1
 1044 1151 l 1
 798 1151 l 1
 798 1070 l 1
 774 1112 702 1174 536 1174 c 0
 192.826975354 1174 98.992044897 975.123186777 98.992044897 844.087012051 c 0
 98.992044897 665.009068544 151.521514061 563.15023701 531 444 c 0
 680 396 732 382 732 303 c 0
 732 225 663 206 603 206 c 0
 503 206 419 253 375 283 c 1
 375 448 l 1
 108 448 l 1
 108 0 l 1
 375 0 l 1
 375 70 l 1
 432 10 567 -23 673 -23 c 0
EndSplineSet
EndChar

StartChar: Scommaaccent
Encoding: 536 536 110
Width: 1206
VWidth: 0
Flags: HW
PickledData: "(dp1
S'org.robofab.postScriptHintData'
p2
(dp3
s."
LayerCount: 2
Fore
SplineSet
459 -695 m 257
 728 -695 839 -607 839 -441 c 258
 839 -129 l 257
 459 -129 l 257
 459 -364 l 257
 576 -364 l 257
 576 -465.731468214 570.367732449 -511.140260918 469.063664193 -511.140260918 c 0
 465.808864347 -511.140260918 462.455305031 -511.093386622 459 -511 c 257
 459 -695 l 257
EndSplineSet
Refer: 104 83 N 1 0 0 1 0 0 2
EndChar

StartChar: Sigma
Encoding: 931 931 112
Width: 1176
VWidth: 0
Flags: HW
PickledData: "(dp1
S'org.robofab.postScriptHintData'
p2
(dp3
s."
LayerCount: 2
Fore
SplineSet
88 0 m 257
 1083 0 l 257
 1083 220 l 257
 608 220 l 257
 864 557 l 257
 561 931 l 257
 1049 931 l 257
 1049 1152 l 257
 105 1152 l 257
 105 986 l 257
 383 617 l 257
 88 221 l 257
 88 0 l 257
EndSplineSet
EndChar

StartChar: T
Encoding: 84 84 113
Width: 1410
VWidth: 0
Flags: HW
PickledData: "(dp1
S'org.robofab.postScriptHintData'
p2
(dp3
sS'com.typemytype.robofont.layerData'
p4
(dp5
S'b'
(dp6
S'name'
p7
S'T'
sS'lib'
p8
(dp9
sS'unicodes'
p10
(tsS'width'
p11
I1252
sS'contours'
p12
(tsS'components'
p13
(tsS'anchors'
p14
(tsss."
AnchorPoint: "bot" 737 0 basechar 0
AnchorPoint: "top" 712 1152 basechar 0
LayerCount: 2
Fore
SplineSet
-2 627 m 1
 262 627 l 1
 262 928 l 1
 343 928 424 928 505 928 c 1
 505 224 l 1
 332 224 l 1
 332 0 l 1
 1091 0 l 1
 1091 224 l 1
 917 224 l 1
 917 928 l 1
 996 928 1075 928 1154 928 c 1
 1154 627 l 1
 1412 627 l 1
 1412 1152 l 1
 -2 1152 l 1
 -2 627 l 1
EndSplineSet
EndChar

StartChar: Thorn
Encoding: 222 222 118
Width: 1374
VWidth: 0
Flags: HW
PickledData: "(dp1
S'org.robofab.postScriptHintData'
p2
(dp3
sS'com.typemytype.robofont.layerData'
p4
(dp5
S'b'
(dp6
S'name'
p7
S'Thorn'
p8
sS'lib'
p9
(dp10
sS'unicodes'
p11
(tsS'width'
p12
I1124
sS'contours'
p13
(tsS'components'
p14
(tsS'anchors'
p15
(tsss."
LayerCount: 2
Fore
SplineSet
41 0 m 257
 800 0 l 257
 800 224 l 257
 626 224 l 257
 626 928 l 257
 800 928 l 257
 800 1152 l 257
 41 1152 l 257
 41 928 l 257
 214 928 l 257
 214 224 l 257
 41 224 l 257
 41 0 l 257
680 335 m 257
 684 335 l 258
 1242 335 1360 421 1360 593 c 256
 1360 796 1179 840 836 840 c 258
 446 840 l 257
 446 690 l 257
 821 690 l 258
 868 690 933 668 933 593 c 256
 933 529 905 479 758 479 c 258
 680 479 l 257
 680 335 l 257
EndSplineSet
EndChar

StartChar: U
Encoding: 85 85 119
Width: 1667
VWidth: 0
Flags: HW
PickledData: "(dp1
S'org.robofab.postScriptHintData'
p2
(dp3
sS'com.typemytype.robofont.layerData'
p4
(dp5
S'b'
(dp6
S'name'
p7
S'U'
sS'lib'
p8
(dp9
sS'unicodes'
p10
(tsS'width'
p11
I1428
sS'contours'
p12
(tsS'components'
p13
(tsS'anchors'
p14
(tsss."
AnchorPoint: "top" 907 1152 basechar 0
LayerCount: 2
Fore
SplineSet
848 -23 m 0
 1243 -23 1439 159 1439 497 c 2
 1439 928 l 1
 1618 928 l 1
 1618 1152 l 1
 997 1152 l 1
 997 928 l 1
 1185 928 l 1
 1185 499 l 2
 1185 319 1088 225 903 225 c 0
 729 225 638 318 638 500 c 2
 638 928 l 1
 847 928 l 1
 847 1152 l 1
 47 1152 l 1
 47 928 l 1
 225 928 l 1
 225 493 l 2
 225 145 450 -23 848 -23 c 0
EndSplineSet
EndChar

StartChar: V
Encoding: 86 86 130
Width: 1595
VWidth: 0
Flags: HW
PickledData: "(dp1
S'org.robofab.postScriptHintData'
p2
(dp3
sS'com.typemytype.robofont.layerData'
p4
(dp5
S'b'
(dp6
S'name'
p7
S'V'
sS'lib'
p8
(dp9
sS'unicodes'
p10
(tsS'width'
p11
I1407
sS'contours'
p12
(tsS'components'
p13
(tsS'anchors'
p14
(tsss."
LayerCount: 2
Fore
SplineSet
671 0 m 1
 948 0 l 1
 1367 928 l 1
 1553 928 l 1
 1553 1152 l 1
 939 1152 l 1
 939 928 l 1
 1104 928 l 1
 872 424 l 1
 648 928 l 1
 805 928 l 1
 805 1152 l 1
 56 1152 l 1
 56 928 l 1
 203 928 l 1
 671 0 l 1
EndSplineSet
EndChar

StartChar: W
Encoding: 87 87 131
Width: 2055
VWidth: 0
Flags: HW
PickledData: "(dp1
S'org.robofab.postScriptHintData'
p2
(dp3
sS'com.typemytype.robofont.layerData'
p4
(dp5
S'b'
(dp6
S'name'
p7
S'W'
sS'lib'
p8
(dp9
sS'unicodes'
p10
(tsS'width'
p11
I1935
sS'contours'
p12
(tsS'components'
p13
(tsS'anchors'
p14
(tsss."
AnchorPoint: "top" 1125 1152 basechar 0
LayerCount: 2
Fore
SplineSet
559 0 m 1
 745 0 l 1
 1033 547 l 1
 1322 0 l 1
 1522 0 l 1
 1842 928 l 1
 1990 928 l 1
 1990 1152 l 1
 1460 1152 l 1
 1460 928 l 1
 1612 928 l 1
 1461 506 l 1
 1160 1112 l 1
 1084 1112 l 1
 759 506 l 1
 623 928 l 1
 748 928 l 1
 748 1152 l 1
 65 1152 l 1
 65 928 l 1
 211 928 l 1
 559 0 l 1
EndSplineSet
EndChar

StartChar: X
Encoding: 88 88 136
Width: 1575
VWidth: 0
Flags: HW
PickledData: "(dp1
S'org.robofab.postScriptHintData'
p2
(dp3
sS'com.typemytype.robofont.layerData'
p4
(dp5
S'b'
(dp6
S'name'
p7
S'X'
sS'lib'
p8
(dp9
sS'unicodes'
p10
(tsS'width'
p11
I1434
sS'contours'
p12
(tsS'components'
p13
(tsS'anchors'
p14
(tsss."
LayerCount: 2
Fore
SplineSet
36 0 m 1
 648 0 l 1
 648 225 l 1
 507 225 l 1
 711 399 l 1
 898 225 l 1
 784 225 l 1
 784 0 l 1
 1540 0 l 1
 1540 225 l 1
 1393 225 l 1
 997 612 l 1
 1331 926 l 1
 1499 926 l 1
 1499 1152 l 1
 902 1152 l 1
 902 926 l 1
 1017 926 l 1
 852 770 l 1
 684 926 l 1
 774 926 l 1
 774 1152 l 1
 55 1152 l 1
 55 926 l 1
 176 926 l 1
 562 557 l 1
 191 225 l 1
 36 225 l 1
 36 0 l 1
EndSplineSet
EndChar

StartChar: Y
Encoding: 89 89 137
Width: 1464
VWidth: 0
Flags: HW
PickledData: "(dp1
S'org.robofab.postScriptHintData'
p2
(dp3
sS'com.typemytype.robofont.layerData'
p4
(dp5
S'b'
(dp6
S'name'
p7
S'Y'
sS'lib'
p8
(dp9
sS'unicodes'
p10
(tsS'width'
p11
I1337
sS'contours'
p12
(tsS'components'
p13
(tsS'anchors'
p14
(tsss."
AnchorPoint: "top" 713 1148 basechar 0
LayerCount: 2
Fore
SplineSet
314 0 m 1
 1116 0 l 1
 1116 224 l 1
 921 224 l 1
 921 443 l 1
 1286 928 l 1
 1455 928 l 1
 1455 1152 l 1
 847 1152 l 1
 847 928 l 1
 962 928 l 1
 766 639 l 1
 562 928 l 1
 681 928 l 1
 681 1152 l 1
 -38 1152 l 1
 -38 928 l 1
 124 928 l 1
 509 438 l 1
 509 224 l 1
 314 224 l 1
 314 0 l 1
EndSplineSet
EndChar

StartChar: Z
Encoding: 90 90 142
Width: 1324
VWidth: 0
Flags: HW
PickledData: "(dp1
S'org.robofab.postScriptHintData'
p2
(dp3
sS'com.typemytype.robofont.layerData'
p4
(dp5
S'b'
(dp6
S'name'
p7
S'Z'
sS'lib'
p8
(dp9
sS'unicodes'
p10
(tsS'width'
p11
I1256
sS'contours'
p12
(tsS'components'
p13
(tsS'anchors'
p14
(tsss."
AnchorPoint: "top" 664 1152 basechar 0
LayerCount: 2
Fore
SplineSet
48 0 m 1
 1253 0 l 1
 1253 640 l 1
 997 640 l 1
 997 225 l 1
 561 225 l 1
 1223 929 l 1
 1223 1152 l 1
 26 1152 l 1
 26 556 l 1
 286 556 l 1
 286 928 l 1
 675 928 l 1
 48 240 l 1
 48 0 l 1
EndSplineSet
EndChar

StartChar: a
Encoding: 97 97 146
Width: 1039
VWidth: 0
Flags: HW
PickledData: "(dp1
S'org.robofab.postScriptHintData'
p2
(dp3
sS'com.typemytype.robofont.layerData'
p4
(dp5
S'b'
(dp6
S'name'
p7
S'a'
sS'lib'
p8
(dp9
sS'unicodes'
p10
(tsS'width'
p11
I1003
sS'contours'
p12
((dp13
S'points'
p14
((dp15
S'segmentType'
p16
S'curve'
p17
sS'x'
I310
sS'smooth'
p18
I1
sS'y'
S'-14'
p19
s(dp20
S'y'
S'-14'
p21
sS'x'
I507
sg18
I0
s(dp22
S'y'
I21
sS'x'
I593
sg18
I0
s(dp23
g16
S'curve'
p24
sS'x'
I687
sg18
I0
sS'y'
I91
s(dp25
g16
S'line'
p26
sS'x'
I703
sg18
I0
sS'y'
S'-1'
p27
s(dp28
g16
S'line'
p29
sS'x'
I890
sg18
I0
sS'y'
S'-1'
p30
s(dp31
g16
S'line'
p32
sS'x'
I890
sg18
I0
sS'y'
I57
s(dp33
g16
S'line'
p34
sS'x'
I764
sg18
I0
sS'y'
I57
s(dp35
g16
S'line'
p36
sS'x'
I764
sg18
I1
sS'y'
I569
s(dp37
S'y'
I672
sS'x'
I764
sg18
I0
s(dp38
S'y'
I819
sS'x'
I710
sg18
I0
s(dp39
g16
S'curve'
p40
sS'x'
I461
sg18
I1
sS'y'
I819
s(dp41
S'y'
I819
sS'x'
I332
sg18
I0
s(dp42
S'y'
I792
sS'x'
I226
sg18
I0
s(dp43
g16
S'curve'
p44
sS'x'
I155
sg18
I0
sS'y'
I724
s(dp45
g16
S'line'
p46
sS'x'
I190
sg18
I0
sS'y'
I668
s(dp47
S'y'
I726
sS'x'
I247
sg18
I0
s(dp48
S'y'
I755
sS'x'
I339
sg18
I0
s(dp49
g16
S'curve'
p50
sS'x'
I459
sg18
I1
sS'y'
I755
s(dp51
S'y'
I755
sS'x'
I600
sg18
I0
s(dp52
S'y'
I706
sS'x'
I687
sg18
I0
s(dp53
g16
S'curve'
p54
sS'x'
I687
sg18
I1
sS'y'
I551
s(dp55
g16
S'line'
p56
sS'x'
I687
sg18
I0
sS'y'
I428
s(dp57
S'y'
I443
sS'x'
I609
sg18
I0
s(dp58
S'y'
I455
sS'x'
I539
sg18
I0
s(dp59
g16
S'curve'
p60
sS'x'
I465
sg18
I1
sS'y'
I455
s(dp61
S'y'
I455
sS'x'
I295
sg18
I0
s(dp62
S'y'
I433
sS'x'
I117
sg18
I0
s(dp63
g16
S'curve'
p64
sS'x'
I117
sg18
I1
sS'y'
I222
s(dp65
S'y'
I96
sS'x'
I117
sg18
I0
s(dp66
S'y'
S'-14'
p67
sS'x'
I206
sg18
I0
stp68
s(dp69
g14
((dp70
g16
S'curve'
p71
sS'x'
I401
sg18
I1
sS'y'
I50
s(dp72
S'y'
I50
sS'x'
I246
sg18
I0
s(dp73
S'y'
I142
sS'x'
I195
sg18
I0
s(dp74
g16
S'curve'
p75
sS'x'
I195
sg18
I1
sS'y'
I220
s(dp76
S'y'
I390
sS'x'
I195
sg18
I0
s(dp77
S'y'
I393
sS'x'
I346
sg18
I0
s(dp78
g16
S'curve'
p79
sS'x'
I462
sg18
I1
sS'y'
I393
s(dp80
S'y'
I393
sS'x'
I559
sg18
I0
s(dp81
S'y'
I368
sS'x'
I687
sg18
I0
s(dp82
g16
S'curve'
p83
sS'x'
I687
sg18
I0
sS'y'
I368
s(dp84
g16
S'line'
p85
sS'x'
I687
sg18
I0
sS'y'
I151
s(dp86
S'y'
I76
sS'x'
I606
sg18
I0
s(dp87
S'y'
I50
sS'x'
I511
sg18
I0
stp88
stp89
sS'components'
p90
(tsS'anchors'
p91
(tsss."
AnchorPoint: "top" 461 804 basechar 0
LayerCount: 2
Fore
SplineSet
460 156 m 0
 412 156 372 184 372 233 c 0
 372 301 420 329 476 329 c 0
 494 329 524 324 549 314 c 1
 549 185 l 1
 518 164 485 156 460 156 c 0
349 -21 m 0
 427 -21 527 4 604 53 c 1
 636 0 l 1
 1008 0 l 1
 1008 226 l 1
 901 226 l 1
 901 497 l 2
 901 724 705 824 475 824 c 0
 331 824 192 794 54 725 c 1
 137 519 l 1
 275 573 358 593 431 593 c 0
 510 593 549 556 549 479 c 2
 549 462 l 1
 520 470 472 476 423 476 c 0
 269 476 57 423 57 245 c 0
 57 58 198 -21 349 -21 c 0
EndSplineSet
EndChar

StartChar: acute
Encoding: 180 180 150
Width: 741
VWidth: 0
Flags: HW
PickledData: "(dp1
S'org.robofab.postScriptHintData'
p2
(dp3
sS'com.typemytype.robofont.layerData'
p4
(dp5
S'b'
(dp6
S'name'
p7
S'acute'
p8
sS'lib'
p9
(dp10
sS'unicodes'
p11
(tsS'width'
p12
I579
sS'contours'
p13
(tsS'components'
p14
(tsS'anchors'
p15
(tsss."
AnchorPoint: "top" 214 804 mark 0
LayerCount: 2
Fore
SplineSet
155 920 m 257
 356 920 l 257
 559 1294 l 257
 238 1294 l 257
 155 920 l 257
EndSplineSet
EndChar

StartChar: ae
Encoding: 230 230 152
Width: 1496
VWidth: 0
Flags: HW
PickledData: "(dp1
S'org.robofab.postScriptHintData'
p2
(dp3
sS'com.typemytype.robofont.layerData'
p4
(dp5
S'b'
(dp6
S'name'
p7
S'ae'
p8
sS'lib'
p9
(dp10
sS'unicodes'
p11
(tsS'width'
p12
I1542
sS'contours'
p13
(tsS'components'
p14
(tsS'anchors'
p15
(tsss."
AnchorPoint: "top" 757 804 basechar 0
LayerCount: 2
Fore
SplineSet
442 -22 m 256
 544 -22 608 -3 719 72 c 257
 803 11 921 -21 1068 -21 c 256
 1204 -21 1342 16 1440 87 c 257
 1356 263 l 257
 1288 231 1199 204 1123 204 c 256
 1026 204 941 240 934 356 c 257
 1440 356 l 257
 1440 656 1287 826 1029 826 c 256
 923 826 839 809 764 774 c 257
 685 809 596 824 497 824 c 256
 355 824 216 795 78 725 c 257
 160 519 l 257
 299 573 382 593 453 593 c 256
 532 593 570 556 570 479 c 258
 570 463 l 257
 541 471 494 476 445 476 c 256
 290 476 79 423 79 245 c 256
 79 0 306 -22 442 -22 c 256
491 154 m 256
 433 154 394 187 394 234 c 256
 394 302 443 329 499 329 c 256
 536 329 573 320 574 320 c 256
 581 278 599 223 617 189 c 257
 582 171 535 154 491 154 c 256
936 510 m 257
 951 597 992 645 1046 645 c 256
 1112.50620756 645 1153.56722693 602.883826435 1153.56722693 526.048451965 c 0
 1153.56722693 520.856722693 1153.37975711 515.506478054 1153 510 c 257
 936 510 l 257
EndSplineSet
EndChar

StartChar: ampersand
Encoding: 38 38 157
Width: 1647
VWidth: 0
Flags: HW
PickledData: "(dp1
S'org.robofab.postScriptHintData'
p2
(dp3
sS'com.typemytype.robofont.layerData'
p4
(dp5
S'b'
(dp6
S'name'
p7
S'ampersand'
p8
sS'lib'
p9
(dp10
sS'unicodes'
p11
(tsS'width'
p12
I1363
sS'contours'
p13
(tsS'components'
p14
(tsS'anchors'
p15
(tsss."
LayerCount: 2
Fore
SplineSet
583 -23 m 256
 746 -23 866 24 958 105 c 257
 1043 0 l 257
 1469 0 l 257
 1469 211 l 257
 1277 211 l 257
 1180 305 l 257
 1244 390 1287 467 1321 554 c 257
 1466 558 l 257
 1466 759 l 257
 1104 759 l 257
 1081 686 1056 571 999 496 c 257
 851 640 l 257
 1026 728 1070 812 1070 913 c 256
 1070 1026 957 1162 725 1162 c 256
 470 1162 343 1033 343 904 c 256
 343 784 377 728 419 674 c 257
 260 599 125 509 125 354 c 256
 125 172 274 -23 583 -23 c 256
629 207 m 256
 519 207 481 329 481 365 c 256
 481 429 515 473 567 511 c 257
 791 280 l 257
 741 221 696 207 629 207 c 256
709 811 m 257
 688 837 666 872 666 928 c 256
 666 965 675 986 726 986 c 256
 757 986 782 966 782 918 c 256
 782 870 778 842 709 811 c 257
EndSplineSet
EndChar

StartChar: apostrophemod
Encoding: 700 700 159
Width: 600
VWidth: 0
Flags: HW
PickledData: "(dp1
S'org.robofab.postScriptHintData'
p2
(dp3
s."
LayerCount: 2
Fore
SplineSet
-19 849 m 257
 250 849 361 937 361 1103 c 258
 361 1415 l 257
 -19 1415 l 257
 -19 1180 l 257
 98 1180 l 257
 98 1078.26853179 92.367732449 1032.85973908 -8.93633580712 1032.85973908 c 0
 -12.1911356535 1032.85973908 -15.5446949694 1032.90661338 -19 1033 c 257
 -19 849 l 257
EndSplineSet
EndChar

StartChar: approxequal
Encoding: 8776 8776 160
Width: 1250
VWidth: 0
Flags: HW
PickledData: "(dp1
S'org.robofab.postScriptHintData'
p2
(dp3
sS'com.typemytype.robofont.layerData'
p4
(dp5
S'b'
(dp6
S'name'
p7
S'approxequal'
p8
sS'lib'
p9
(dp10
sS'unicodes'
p11
(tsS'width'
p12
I1245
sS'contours'
p13
(tsS'components'
p14
(tsS'anchors'
p15
(tsss."
LayerCount: 2
Fore
SplineSet
186 225 m 257
 231 274 327 330 413 330 c 256
 478 330 529 316 614 279 c 256
 753 220 790 211 861 211 c 256
 956 211 1023 239 1109 336 c 257
 1109 560 l 257
 1063 512 969 454 882 454 c 256
 817 454 765 470 681 506 c 256
 542 565 506 573 433 573 c 256
 338 573 273 545 186 449 c 257
 186 225 l 257
186 615 m 257
 231 664 327 720 413 720 c 256
 478 720 529 706 614 669 c 256
 753 610 790 601 861 601 c 256
 956 601 1023 629 1109 726 c 257
 1109 950 l 257
 1063 902 969 844 882 844 c 256
 817 844 765 860 681 896 c 256
 542 955 506 963 433 963 c 256
 338 963 273 935 186 839 c 257
 186 615 l 257
EndSplineSet
EndChar

StartChar: asciicircum
Encoding: 94 94 162
Width: 1293
VWidth: 0
Flags: HW
PickledData: "(dp1
S'org.robofab.postScriptHintData'
p2
(dp3
sS'com.typemytype.robofont.layerData'
p4
(dp5
S'b'
(dp6
S'name'
p7
S'asciicircum'
p8
sS'lib'
p9
(dp10
sS'unicodes'
p11
(tsS'width'
p12
I933
sS'contours'
p13
(tsS'components'
p14
(tsS'anchors'
p15
(tsss."
LayerCount: 2
Fore
SplineSet
88 234 m 257
 370 234 l 257
 642 887 l 257
 919 234 l 257
 1201 234 l 257
 763 1136 l 257
 518 1136 l 257
 88 234 l 257
EndSplineSet
EndChar

StartChar: asciitilde
Encoding: 126 126 163
Width: 1216
VWidth: 0
Flags: HW
PickledData: "(dp1
S'org.robofab.postScriptHintData'
p2
(dp3
sS'com.typemytype.robofont.layerData'
p4
(dp5
S'b'
(dp6
S'name'
p7
S'asciitilde'
p8
sS'lib'
p9
(dp10
sS'unicodes'
p11
(tsS'width'
p12
I1220
sS'contours'
p13
(tsS'components'
p14
(tsS'anchors'
p15
(tsss."
LayerCount: 2
Fore
SplineSet
840 461 m 256
 936 461 1017 508 1085 588 c 257
 1058 731 l 257
 993 666 925 630 847 630 c 256
 710 630 559 757 386 757 c 256
 284 757 202 714 132 627 c 257
 155 489 l 257
 227 562 289 597 370 597 c 256
 523 597 674 461 840 461 c 256
EndSplineSet
EndChar

StartChar: asterisk
Encoding: 42 42 164
Width: 914
VWidth: 0
Flags: HW
PickledData: "(dp1
S'org.robofab.postScriptHintData'
p2
(dp3
sS'com.typemytype.robofont.layerData'
p4
(dp5
S'b'
(dp6
S'name'
p7
S'asterisk'
p8
sS'lib'
p9
(dp10
sS'unicodes'
p11
(tsS'width'
p12
I931
sS'contours'
p13
(tsS'components'
p14
(tsS'anchors'
p15
(tsss."
LayerCount: 2
Fore
SplineSet
371 415 m 257
 464 733 l 257
 562 415 l 257
 815 593 l 257
 563 775 l 257
 851 762 l 257
 784 1029 l 257
 504 868 l 257
 623 1170 l 257
 312 1170 l 257
 428 868 l 257
 152 1029 l 257
 80 762 l 257
 372 775 l 257
 116 593 l 257
 371 415 l 257
EndSplineSet
EndChar

StartChar: at
Encoding: 64 64 165
Width: 1476
VWidth: 0
Flags: HW
PickledData: "(dp1
S'org.robofab.postScriptHintData'
p2
(dp3
sS'com.typemytype.robofont.layerData'
p4
(dp5
S'b'
(dp6
S'name'
p7
S'at'
p8
sS'lib'
p9
(dp10
sS'unicodes'
p11
(tsS'width'
p12
I1481
sS'contours'
p13
(tsS'components'
p14
(tsS'anchors'
p15
(tsss."
LayerCount: 2
Fore
SplineSet
798 -66 m 256
 983 -66 1126 -15 1242 75 c 257
 1168 163 l 257
 1070 86 945 49 798 49 c 256
 442 49 245 252 245 556 c 256
 245 883 472 1116 783 1116 c 256
 1081 1116 1240 915 1240 700 c 256
 1240 462 1074 335 1008 335 c 256
 997.116024898 335 991.604426849 347.08784837 991.604426849 371.541987102 c 0
 991.604426849 394.270693657 996.365690574 427.682176639 1006 472 c 258
 1108 947 l 257
 965 947 l 257
 945 841 l 257
 903 926 831 963 751 963 c 256
 506 963 383 736 383 532 c 256
 383 326 515 213 653 213 c 256
 730 213 806 245 866 326 c 257
 877 242 917 213 967 213 c 256
 1216 213 1372 452 1372 701 c 256
 1372 962 1198 1233 788 1233 c 256
 348 1233 105 892 105 558 c 256
 105 243 324 -66 798 -66 c 256
683 327 m 256
 575 327 524 423 524 530 c 256
 524 676 600 845 738 845 c 256
 839 845 904 776 904 668 c 256
 904 510 805 327 683 327 c 256
EndSplineSet
EndChar

StartChar: b
Encoding: 98 98 167
Width: 1231
VWidth: 0
Flags: HW
PickledData: "(dp1
S'org.robofab.postScriptHintData'
p2
(dp3
sS'com.typemytype.robofont.layerData'
p4
(dp5
S'b'
(dp6
S'name'
p7
S'b'
sS'lib'
p8
(dp9
sS'unicodes'
p10
(tsS'width'
p11
I1128
sS'contours'
p12
(tsS'components'
p13
(tsS'anchors'
p14
(tsss."
AnchorPoint: "top" 843 804 basechar 0
LayerCount: 2
Fore
SplineSet
776 -21 m 1
 997 -21 1187 138 1187 422 c 0
 1187 647 1053 826 788 826 c 0
 707.260023359 826 626.28630066 800.054187497 547 754.378106335 c 1
 547 1174 l 1
 38 1174 l 1
 38 950 l 1
 195 950 l 1
 195 224 l 1
 36 224 l 1
 36 0 l 1
 547 0 l 1
 547 43.0143634992 l 1
 619.113196472 -0.0937059590652 755.25606022 -15.2012659325 776 -21 c 1
547 595.240972958 m 1
 571.988727794 600.560515624 595.331731605 603 619 603 c 0
 791 603 817 473 817 400 c 0
 817 263 724 175 593 175 c 0
 578.90657319 175 563.697822253 175.969847067 547 178.956033331 c 1
 547 595.240972958 l 1
EndSplineSet
EndChar

StartChar: backslash
Encoding: 92 92 168
Width: 706
VWidth: 0
Flags: HW
PickledData: "(dp1
S'org.robofab.postScriptHintData'
p2
(dp3
sS'com.typemytype.robofont.layerData'
p4
(dp5
S'b'
(dp6
S'name'
p7
S'backslash'
p8
sS'lib'
p9
(dp10
sS'unicodes'
p11
(tsS'width'
p12
I773
sS'contours'
p13
(tsS'components'
p14
(tsS'anchors'
p15
(tsss."
LayerCount: 2
Fore
SplineSet
650 -23 m 257
 963 -23 l 257
 -38 1402 l 257
 -351 1402 l 257
 650 -23 l 257
EndSplineSet
EndChar

StartChar: bar
Encoding: 124 124 169
Width: 675
VWidth: 0
Flags: HW
PickledData: "(dp1
S'org.robofab.postScriptHintData'
p2
(dp3
sS'com.typemytype.robofont.layerData'
p4
(dp5
S'b'
(dp6
S'name'
p7
S'bar'
p8
sS'lib'
p9
(dp10
sS'unicodes'
p11
(tsS'width'
p12
I506
sS'contours'
p13
(tsS'components'
p14
(tsS'anchors'
p15
(tsss."
LayerCount: 2
Fore
SplineSet
193 -184 m 257
 481 -184 l 257
 481 1163 l 257
 193 1163 l 257
 193 -184 l 257
EndSplineSet
EndChar

StartChar: braceleft
Encoding: 123 123 171
Width: 1098
VWidth: 0
Flags: HW
PickledData: "(dp1
S'org.robofab.postScriptHintData'
p2
(dp3
sS'com.typemytype.robofont.layerData'
p4
(dp5
S'b'
(dp6
S'name'
p7
S'braceleft'
p8
sS'lib'
p9
(dp10
sS'unicodes'
p11
(tsS'width'
p12
I656
sS'contours'
p13
(tsS'components'
p14
(tsS'anchors'
p15
(tsss."
LayerCount: 2
Fore
SplineSet
818 -243 m 258
 936 -243 l 257
 936 -58 l 257
 757 -58 726 -13 726 38 c 256
 726 379 715 450 417 472 c 257
 711 481 725 564 725 892 c 256
 725 957 750 1003 936 1003 c 257
 936 1188 l 257
 818 1188 l 258
 382.576673866 1188 375.993599821 1049.75544505 375.993599821 848.050543789 c 0
 375.993599821 841.761304106 376 835.410367171 376 829 c 256
 376 640 316 556 159 556 c 257
 159 388 l 257
 315 388 376 305 376 117 c 256
 376 109.721030043 375.990568992 102.517508151 375.990568992 95.3928343438 c 0
 375.990568992 -104.988616478 383.450643777 -243 818 -243 c 258
EndSplineSet
EndChar

StartChar: braceright
Encoding: 125 125 172
Width: 1097
VWidth: 0
Flags: HW
PickledData: "(dp1
S'org.robofab.postScriptHintData'
p2
(dp3
sS'com.typemytype.robofont.layerData'
p4
(dp5
S'b'
(dp6
S'name'
p7
S'braceright'
p8
sS'lib'
p9
(dp10
sS'unicodes'
p11
(tsS'width'
p12
I657
sS'contours'
p13
(tsS'components'
p14
(tsS'anchors'
p15
(tsss."
LayerCount: 2
Fore
SplineSet
192 -243 m 257
 310 -243 l 258
 744.549356223 -243 752.009431008 -104.988616478 752.009431008 95.3928343438 c 0
 752.009431008 102.517508151 752 109.721030043 752 117 c 256
 752 305 813 388 969 388 c 257
 969 556 l 257
 812 556 752 640 752 828 c 256
 752 835.313304721 752.009431008 842.548803625 752.009431008 849.703218121 c 0
 752.009431008 1050.92112583 744.549356223 1188 310 1188 c 258
 192 1188 l 257
 192 1003 l 257
 378 1003 403 957 403 892 c 256
 403 564 417 481 711 472 c 257
 414 450 402 380 402 40 c 256
 402 -13 371 -58 192 -58 c 257
 192 -243 l 257
EndSplineSet
EndChar

StartChar: bracketleft
Encoding: 91 91 173
Width: 1002
VWidth: 0
Flags: HW
PickledData: "(dp1
S'org.robofab.postScriptHintData'
p2
(dp3
sS'com.typemytype.robofont.layerData'
p4
(dp5
S'b'
(dp6
S'name'
p7
S'bracketleft'
p8
sS'lib'
p9
(dp10
sS'unicodes'
p11
(tsS'width'
p12
I688
sS'contours'
p13
(tsS'components'
p14
(tsS'anchors'
p15
(tsss."
LayerCount: 2
Fore
SplineSet
351 -251 m 257
 807 -251 l 257
 807 -81 l 257
 632 -81 l 257
 632 1089 l 257
 807 1089 l 257
 807 1252 l 257
 351 1252 l 257
 351 -251 l 257
EndSplineSet
EndChar

StartChar: bracketright
Encoding: 93 93 174
Width: 1003
VWidth: 0
Flags: HW
PickledData: "(dp1
S'org.robofab.postScriptHintData'
p2
(dp3
sS'com.typemytype.robofont.layerData'
p4
(dp5
S'b'
(dp6
S'name'
p7
S'bracketright'
p8
sS'lib'
p9
(dp10
sS'unicodes'
p11
(tsS'width'
p12
I687
sS'contours'
p13
(tsS'components'
p14
(tsS'anchors'
p15
(tsss."
LayerCount: 2
Fore
SplineSet
195 -251 m 257
 651 -251 l 257
 651 1252 l 257
 195 1252 l 257
 195 1089 l 257
 371 1089 l 257
 371 -81 l 257
 195 -81 l 257
 195 -251 l 257
EndSplineSet
EndChar

StartChar: breve
Encoding: 728 728 175
Width: 927
VWidth: 0
Flags: HW
PickledData: "(dp1
S'org.robofab.postScriptHintData'
p2
(dp3
sS'com.typemytype.robofont.layerData'
p4
(dp5
S'b'
(dp6
S'name'
p7
S'breve'
p8
sS'lib'
p9
(dp10
sS'unicodes'
p11
(tsS'width'
p12
I575
sS'contours'
p13
(tsS'components'
p14
(tsS'anchors'
p15
(tsss."
AnchorPoint: "top" 456 804 mark 0
LayerCount: 2
Fore
SplineSet
456 891 m 256
 673 891 792 1010 811 1244 c 257
 588 1244 l 257
 581 1156 538 1111 461 1111 c 256
 384 1111 336 1156 325 1244 c 257
 115 1244 l 257
 125 1010 238 891 456 891 c 256
EndSplineSet
EndChar

StartChar: breveinvertedcomb
Encoding: 785 785 176
Width: 584
VWidth: 0
Flags: HW
PickledData: "(dp1
S'org.robofab.postScriptHintData'
p2
(dp3
sS'com.typemytype.robofont.layerData'
p4
(dp5
S'b'
(dp6
S'name'
p7
S'uni0311'
p8
sS'lib'
p9
(dp10
sS'unicodes'
p11
(tsS'width'
p12
I584
sS'contours'
p13
(tsS'components'
p14
(tsS'anchors'
p15
(tsss."
AnchorPoint: "top" 297 795 mark 0
LayerCount: 2
Fore
SplineSet
-52 882 m 257
 152 882 l 257
 164 971 212 1017 290 1017 c 256
 368 1017 411 971 419 882 c 257
 636 882 l 257
 618 1114 499 1231 285 1231 c 256
 69 1231 -42 1114 -52 882 c 257
EndSplineSet
EndChar

StartChar: brokenbar
Encoding: 166 166 177
Width: 683
VWidth: 0
Flags: HW
PickledData: "(dp1
S'org.robofab.postScriptHintData'
p2
(dp3
sS'com.typemytype.robofont.layerData'
p4
(dp5
S'b'
(dp6
S'name'
p7
S'brokenbar'
p8
sS'lib'
p9
(dp10
sS'unicodes'
p11
(tsS'width'
p12
I467
sS'contours'
p13
(tsS'components'
p14
(tsS'anchors'
p15
(tsss."
LayerCount: 2
Fore
SplineSet
193 -238 m 257
 489 -238 l 257
 489 348 l 257
 193 348 l 257
 193 -238 l 257
193 580 m 257
 489 580 l 257
 489 1166 l 257
 193 1166 l 257
 193 580 l 257
EndSplineSet
EndChar

StartChar: bullet
Encoding: 8226 8226 178
Width: 559
VWidth: 0
Flags: HW
PickledData: "(dp1
S'org.robofab.postScriptHintData'
p2
(dp3
sS'com.typemytype.robofont.layerData'
p4
(dp5
S'b'
(dp6
S'name'
p7
S'bullet'
p8
sS'lib'
p9
(dp10
sS'unicodes'
p11
(tsS'width'
p12
I559
sS'contours'
p13
(tsS'components'
p14
(tsS'anchors'
p15
(tsss."
LayerCount: 2
Fore
SplineSet
280 368 m 256
 401 368 481 455 481 562 c 256
 481 674 401 754 280 754 c 256
 161 754 80 663 80 562 c 256
 80 465 161 368 280 368 c 256
EndSplineSet
EndChar

StartChar: c
Encoding: 99 99 179
Width: 991
VWidth: 0
Flags: HW
PickledData: "(dp1
S'org.robofab.postScriptHintData'
p2
(dp3
sS'com.typemytype.robofont.layerData'
p4
(dp5
S'b'
(dp6
S'name'
p7
S'c'
sS'lib'
p8
(dp9
sS'unicodes'
p10
(tsS'width'
p11
I1040
sS'contours'
p12
((dp13
S'points'
p14
((dp15
S'y'
S'-14'
p16
sS'x'
I599
sS'smooth'
p17
I0
s(dp18
S'y'
I33
sS'x'
I758
sg17
I0
s(dp19
S'segmentType'
p20
S'curve'
p21
sS'x'
I868
sg17
I0
sS'y'
I142
s(dp22
g20
S'line'
p23
sS'x'
I845
sg17
I0
sS'y'
I213
s(dp24
S'y'
I105
sS'x'
I763
sg17
I0
s(dp25
S'y'
I51
sS'x'
I637
sg17
I0
s(dp26
g20
S'curve'
p27
sS'x'
I515
sg17
I1
sS'y'
I51
s(dp28
S'y'
I51
sS'x'
I316
sg17
I0
s(dp29
S'y'
I193
sS'x'
I169
sg17
I0
s(dp30
g20
S'curve'
p31
sS'x'
I169
sg17
I1
sS'y'
I406
s(dp32
S'y'
I630
sS'x'
I169
sg17
I0
s(dp33
S'y'
I755
sS'x'
I336
sg17
I0
s(dp34
g20
S'curve'
p35
sS'x'
I515
sg17
I1
sS'y'
I755
s(dp36
S'y'
I755
sS'x'
I705
sg17
I0
s(dp37
S'y'
I657
sS'x'
I768
sg17
I0
s(dp38
g20
S'curve'
p39
sS'x'
I776
sg17
I0
sS'y'
I570
s(dp40
g20
S'line'
p41
sS'x'
I840
sg17
I0
sS'y'
I570
s(dp42
g20
S'line'
p43
sS'x'
I840
sg17
I0
sS'y'
I825
s(dp44
g20
S'line'
p45
sS'x'
I767
sg17
I0
sS'y'
I825
s(dp46
g20
S'line'
p47
sS'x'
I767
sg17
I0
sS'y'
I714
s(dp48
S'y'
I764
sS'x'
I736
sg17
I0
s(dp49
S'y'
I819
sS'x'
I645
sg17
I0
s(dp50
g20
S'curve'
p51
sS'x'
I522
sg17
I1
sS'y'
I819
s(dp52
S'y'
I819
sS'x'
F268.96812951340218
sg17
I0
s(dp53
S'y'
I650
sS'x'
I90
sg17
I0
s(dp54
g20
S'curve'
p55
sS'x'
I90
sg17
I1
sS'y'
I406
s(dp56
S'y'
I145
sS'x'
I90
sg17
I0
s(dp57
S'y'
S'-14'
p58
sS'x'
I286
sg17
I0
s(dp59
g20
S'curve'
p60
sS'x'
I515
sg17
I1
sS'y'
S'-14'
p61
stp62
stp63
sS'components'
p64
(tsS'anchors'
p65
(tsss."
AnchorPoint: "bot" 560 0 basechar 0
AnchorPoint: "top" 585 804 basechar 0
LayerCount: 2
Fore
SplineSet
536.072974342 604.012701537 m 0
 602.926755438 604.012701537 665.895762661 561.448536428 699 419 c 1
 906 419 l 1
 906 803 l 1
 678 803 l 1
 669 751 l 1
 630 800 548 826 481 826 c 0
 209 826 43 653 43 411 c 0
 43 135 225 -23 544 -23 c 0
 663 -23 807 22 926 103 c 1
 842 285 l 1
 753.611535384 234.779281468 653.166960358 202.990618398 564.867285489 202.990618398 c 0
 452.326400417 202.990618398 399 281.825871957 399 413 c 0
 399 545.865789866 460.938017451 604.012701537 536.072974342 604.012701537 c 0
EndSplineSet
EndChar

StartChar: caron
Encoding: 711 711 181
Width: 960
VWidth: 0
Flags: HW
PickledData: "(dp1
S'org.robofab.postScriptHintData'
p2
(dp3
sS'com.typemytype.robofont.layerData'
p4
(dp5
S'b'
(dp6
S'name'
p7
S'caron'
p8
sS'lib'
p9
(dp10
sS'unicodes'
p11
(tsS'width'
p12
I586
sS'contours'
p13
(tsS'components'
p14
(tsS'anchors'
p15
(tsss."
AnchorPoint: "top" 487 804 mark 0
LayerCount: 2
Fore
SplineSet
284 931 m 257
 676 931 l 257
 811 1307 l 257
 600 1307 l 257
 480 1073 l 257
 361 1307 l 257
 125 1307 l 257
 284 931 l 257
EndSplineSet
EndChar

StartChar: caron.alt
Encoding: 65539 -1 182
Width: 600
VWidth: 0
Flags: HW
PickledData: "(dp1
S'org.robofab.postScriptHintData'
p2
(dp3
s."
AnchorPoint: "caron.alt" -29 804 mark 0
LayerCount: 2
Fore
SplineSet
121 608 m 257
 389 608 500 696 501 861 c 257
 501 1174 l 257
 121 1174 l 257
 121 938 l 257
 237 938 l 257
 237 838.146772521 232.390778921 791.760509558 133.778479667 791.760509558 c 0
 129.683241254 791.760509558 125.42588221 791.840508749 121 792 c 257
 121 608 l 257
EndSplineSet
EndChar

StartChar: cedilla
Encoding: 184 184 187
Width: 629
VWidth: 0
Flags: HW
PickledData: "(dp1
S'org.robofab.postScriptHintData'
p2
(dp3
sS'com.typemytype.robofont.layerData'
p4
(dp5
S'b'
(dp6
S'name'
p7
S'cedilla'
p8
sS'lib'
p9
(dp10
sS'unicodes'
p11
(tsS'width'
p12
I456
sS'contours'
p13
(tsS'components'
p14
(tsS'anchors'
p15
(tsss."
AnchorPoint: "bot" 336 0 mark 0
LayerCount: 2
Fore
SplineSet
303 -433 m 256
 409 -433 507 -382 507 -270 c 256
 507 -196 457 -130 355 -111 c 257
 384 4 l 257
 262 4 l 257
 187 -183 l 257
 271 -186 308 -207 308 -252 c 256
 308 -302 277 -320 236 -320 c 256
 199 -320 156 -305 120 -289 c 257
 120 -376 l 257
 169 -412 237 -433 303 -433 c 256
EndSplineSet
EndChar

StartChar: cent
Encoding: 162 162 188
Width: 1001
VWidth: 0
Flags: HW
PickledData: "(dp1
S'org.robofab.postScriptHintData'
p2
(dp3
sS'com.typemytype.robofont.layerData'
p4
(dp5
S'b'
(dp6
S'name'
p7
S'cent'
p8
sS'lib'
p9
(dp10
sS'unicodes'
p11
(tsS'width'
p12
I969
sS'contours'
p13
(tsS'components'
p14
(tsS'anchors'
p15
(tsss."
LayerCount: 2
Fore
SplineSet
388 -403 m 257
 703 1188 l 257
 621 1201 l 257
 308 -390 l 257
 388 -403 l 257
EndSplineSet
Refer: 179 99 N 1 0 0 1 0 0 2
EndChar

StartChar: circumflex
Encoding: 710 710 189
Width: 954
VWidth: 0
Flags: HW
PickledData: "(dp1
S'org.robofab.postScriptHintData'
p2
(dp3
sS'com.typemytype.robofont.layerData'
p4
(dp5
S'b'
(dp6
S'name'
p7
S'circumflex'
p8
sS'lib'
p9
(dp10
sS'unicodes'
p11
(tsS'width'
p12
I618
sS'contours'
p13
(tsS'components'
p14
(tsS'anchors'
p15
(tsss."
AnchorPoint: "top" 482 804 mark 0
LayerCount: 2
Fore
SplineSet
138 931 m 257
 336 931 l 257
 477 1179 l 257
 619 931 l 257
 816 931 l 257
 743 1303 l 257
 212 1303 l 257
 138 931 l 257
EndSplineSet
EndChar

StartChar: colon
Encoding: 58 58 190
Width: 1051
VWidth: 0
Flags: HW
PickledData: "(dp1
S'org.robofab.postScriptHintData'
p2
(dp3
sS'com.typemytype.robofont.layerData'
p4
(dp5
S'b'
(dp6
S'name'
p7
S'colon'
p8
sS'lib'
p9
(dp10
sS'unicodes'
p11
(tsS'width'
p12
I560
sS'contours'
p13
(tsS'components'
p14
(tsS'anchors'
p15
(tsss."
LayerCount: 2
Fore
SplineSet
347 -16 m 257
 691 -16 l 257
 691 335 l 257
 347 335 l 257
 347 -16 l 257
347 662 m 257
 691 662 l 257
 691 1021 l 257
 347 1021 l 257
 347 662 l 257
EndSplineSet
EndChar

StartChar: comma
Encoding: 44 44 191
Width: 914
VWidth: 0
Flags: HW
PickledData: "(dp1
S'org.robofab.postScriptHintData'
p2
(dp3
sS'com.typemytype.robofont.layerData'
p4
(dp5
S'b'
(dp6
S'name'
p7
S'comma'
p8
sS'lib'
p9
(dp10
sS'unicodes'
p11
(tsS'width'
p12
I522
sS'contours'
p13
(tsS'components'
p14
(tsS'anchors'
p15
(tsss."
LayerCount: 2
Fore
SplineSet
330 -282 m 257
 619 -281 707 -231 707 57 c 256
 707 161 699 279 689 358 c 257
 689 358 310 359 320 360 c 257
 324 0 l 257
 520 0 l 257
 520 -120 446 -167 330 -173 c 257
 330 -282 l 257
EndSplineSet
EndChar

StartChar: commaturnedabovecomb
Encoding: 786 786 192
Width: 600
VWidth: 0
Flags: HW
PickledData: "(dp1
S'org.robofab.postScriptHintData'
p2
(dp3
s."
AnchorPoint: "top" 328 804 mark 0
LayerCount: 2
Fore
SplineSet
134 944 m 257
 504 944 l 257
 499 1307 l 257
 305 1307 l 257
 305 1433 376 1482 495 1488 c 257
 495 1600 l 257
 198 1599 115 1545 115 1246 c 256
 115 1133 123 1031 134 944 c 257
EndSplineSet
EndChar

StartChar: copyright
Encoding: 169 169 193
Width: 1538
VWidth: 0
Flags: HW
PickledData: "(dp1
S'org.robofab.postScriptHintData'
p2
(dp3
sS'com.typemytype.robofont.layerData'
p4
(dp5
S'b'
(dp6
S'name'
p7
S'copyright'
p8
sS'lib'
p9
(dp10
sS'unicodes'
p11
(tsS'width'
p12
I1538
sS'contours'
p13
(tsS'components'
p14
(tsS'anchors'
p15
(tsss."
LayerCount: 2
Fore
SplineSet
782 276 m 256
 901 276 1022 339 1073 428 c 257
 974 492 l 257
 937 433 859 391 785 391 c 256
 678 391 602 479 602 604 c 256
 602 726 678 812 785 812 c 256
 860 812 926 759 945 683 c 257
 1060 683 l 257
 1060 913 l 257
 940 913 l 257
 941 855 l 257
 908 897 837 926 768 926 c 256
 582 926 451 791 451 601 c 256
 451 411 588 276 782 276 c 256
767 103 m 256
 483 103 282 309 282 600 c 256
 282 896 483 1106 767 1106 c 256
 1053 1106 1255 896 1255 600 c 256
 1255 309 1053 103 767 103 c 256
767 -22 m 256
 1147 -22 1415 237 1415 603 c 256
 1415 970 1147 1230 767 1230 c 256
 390 1230 123 970 123 603 c 256
 123 237 390 -22 767 -22 c 256
EndSplineSet
EndChar

StartChar: currency
Encoding: 164 164 194
Width: 1282
VWidth: 0
Flags: HW
PickledData: "(dp1
S'org.robofab.postScriptHintData'
p2
(dp3
sS'com.typemytype.robofont.layerData'
p4
(dp5
S'b'
(dp6
S'name'
p7
S'currency'
p8
sS'lib'
p9
(dp10
sS'unicodes'
p11
(tsS'width'
p12
I1010
sS'contours'
p13
(tsS'components'
p14
(tsS'anchors'
p15
(tsss."
LayerCount: 2
Fore
SplineSet
339 451 m 257
 427 538 l 257
 486 512 548 486 635 486 c 256
 719 486 784 504 851 539 c 257
 941 451 l 257
 1010 519 l 257
 925 603 l 257
 965 649 999 713 999 806 c 256
 999 882 975 953 927 1005 c 257
 1010 1088 l 257
 941 1157 l 257
 853 1069 l 257
 804 1097 729 1124 638 1124 c 256
 544 1124 474 1097 425 1071 c 257
 339 1157 l 257
 270 1088 l 257
 350 1007 l 257
 306 947 277 877 277 799 c 256
 277 713 316 644 352 601 c 257
 270 519 l 257
 339 451 l 257
635 600 m 256
 492 600 405 711 405 815 c 256
 405 900 501 1006 638 1006 c 256
 751 1006 867 906 867 811 c 256
 867 711 778 600 635 600 c 256
EndSplineSet
EndChar

StartChar: d
Encoding: 100 100 195
Width: 1168
VWidth: 0
Flags: HW
PickledData: "(dp1
S'org.robofab.postScriptHintData'
p2
(dp3
sS'com.typemytype.robofont.layerData'
p4
(dp5
S'b'
(dp6
S'name'
p7
S'd'
sS'lib'
p8
(dp9
sS'unicodes'
p10
(tsS'width'
p11
I1089
sS'contours'
p12
(tsS'components'
p13
(tsS'anchors'
p14
(tsss."
AnchorPoint: "caron.alt" 961 804 basechar 0
AnchorPoint: "top" 301 804 basechar 0
LayerCount: 2
Fore
SplineSet
688 0 m 1
 1125 0 l 1
 1125 224 l 1
 1040 224 l 1
 1040 1174 l 1
 543 1174 l 1
 543 950 l 1
 688 950 l 1
 688 745.672055405 l 1
 615.631146406 794.323823143 536.395969591 826 457 826 c 0
 201 826 42 642 42 380 c 0
 42 142 220 -22 505 -22 c 0
 575.382798957 -22 635.306457091 -3.86340474371 688 26.4713478882 c 1
 688 0 l 1
688 216.703178902 m 1
 648.952473642 207.219578497 586 202 586 202 c 1
 479 202 412 289 412 408 c 0
 412 537 492 602 616 602 c 0
 638.621684885 602 662.898838909 598.939890379 688 593.14551438 c 1
 688 216.703178902 l 1
EndSplineSet
EndChar

StartChar: dagger
Encoding: 8224 8224 196
Width: 828
VWidth: 0
Flags: HW
PickledData: "(dp1
S'org.robofab.postScriptHintData'
p2
(dp3
sS'com.typemytype.robofont.layerData'
p4
(dp5
S'b'
(dp6
S'name'
p7
S'dagger'
p8
sS'lib'
p9
(dp10
sS'unicodes'
p11
(tsS'width'
p12
I833
sS'contours'
p13
(tsS'components'
p14
(tsS'anchors'
p15
(tsss."
LayerCount: 2
Fore
SplineSet
370 -227 m 257
 458 -227 l 257
 458 157 499 399 539 576 c 257
 458 765 l 257
 757 718 l 257
 757 913 l 257
 458 869 l 257
 522 1235 l 257
 310 1235 l 257
 370 869 l 257
 72 913 l 257
 72 718 l 257
 370 765 l 257
 293 576 l 257
 330 396 370 153 370 -227 c 257
EndSplineSet
EndChar

StartChar: daggerdbl
Encoding: 8225 8225 197
Width: 837
VWidth: 0
Flags: HW
PickledData: "(dp1
S'org.robofab.postScriptHintData'
p2
(dp3
sS'com.typemytype.robofont.layerData'
p4
(dp5
S'b'
(dp6
S'name'
p7
S'daggerdbl'
p8
sS'lib'
p9
(dp10
sS'unicodes'
p11
(tsS'width'
p12
I784
sS'contours'
p13
(tsS'components'
p14
(tsS'anchors'
p15
(tsss."
LayerCount: 2
Fore
SplineSet
313 -227 m 257
 526 -227 l 257
 462 37 l 257
 760 -6 l 257
 760 189 l 257
 482 141 l 257
 469 506 l 257
 482 865 l 257
 760 818 l 257
 760 1012 l 257
 462 969 l 257
 526 1233 l 257
 313 1233 l 257
 374 969 l 257
 76 1012 l 257
 76 818 l 257
 354 865 l 257
 366 508 l 257
 354 141 l 257
 76 189 l 257
 76 -6 l 257
 374 37 l 257
 313 -227 l 257
EndSplineSet
EndChar

StartChar: dblgravecmb
Encoding: 783 783 198
Width: 841
VWidth: 0
Flags: HW
PickledData: "(dp1
S'org.robofab.postScriptHintData'
p2
(dp3
sS'com.typemytype.robofont.layerData'
p4
(dp5
S'b'
(dp6
S'name'
p7
S'uni030F'
p8
sS'lib'
p9
(dp10
sS'unicodes'
p11
(tsS'width'
p12
I677
sS'contours'
p13
(tsS'components'
p14
(tsS'anchors'
p15
(tsss."
AnchorPoint: "top" 530 804 mark 0
LayerCount: 2
Fore
SplineSet
208 920 m 257
 409 920 l 257
 326 1294 l 257
 5 1294 l 257
 208 920 l 257
648 920 m 257
 849 920 l 257
 766 1294 l 257
 445 1294 l 257
 648 920 l 257
EndSplineSet
EndChar

StartChar: degree
Encoding: 176 176 202
Width: 771
VWidth: 0
Flags: HW
PickledData: "(dp1
S'org.robofab.postScriptHintData'
p2
(dp3
sS'com.typemytype.robofont.layerData'
p4
(dp5
S'b'
(dp6
S'name'
p7
S'degree'
p8
sS'lib'
p9
(dp10
sS'unicodes'
p11
(tsS'width'
p12
I653
sS'contours'
p13
(tsS'components'
p14
(tsS'anchors'
p15
(tsss."
LayerCount: 2
Fore
SplineSet
387 827 m 256
 219 827 187 949 187 1019 c 257
 191 1086 223 1207 376 1207 c 256
 551 1207 583 1071 583 1025 c 256
 583 944 542 827 387 827 c 256
383 738 m 256
 618 742 663 919 663 1018 c 256
 663 1117 613 1293 383 1293 c 256
 157 1293 107 1117 107 1018 c 256
 107 915 153 738 383 738 c 256
EndSplineSet
EndChar

StartChar: dieresis
Encoding: 168 168 203
Width: 1159
VWidth: 0
Flags: HW
PickledData: "(dp1
S'org.robofab.postScriptHintData'
p2
(dp3
sS'com.typemytype.robofont.layerData'
p4
(dp5
S'b'
(dp6
S'name'
p7
S'dieresis'
p8
sS'lib'
p9
(dp10
sS'unicodes'
p11
(tsS'width'
p12
I661
sS'contours'
p13
(tsS'components'
p14
(tsS'anchors'
p15
(tsss."
AnchorPoint: "top" 575 804 mark 0
LayerCount: 2
Fore
SplineSet
307 893 m 256
 425 893 495 980 494 1072 c 257
 494 1188 407 1250 307 1250 c 256
 208.551364773 1250 119.991652898 1173.85529018 119.991652898 1073.68526794 c 0
 119.991652898 974.481983796 207.933823826 893 307 893 c 256
852 893 m 256
 970 893 1040 980 1039 1072 c 257
 1039 1188 952 1250 852 1250 c 256
 753.551364773 1250 664.991652898 1173.85529018 664.991652898 1073.68526794 c 0
 664.991652898 974.481983796 752.933823826 893 852 893 c 256
EndSplineSet
EndChar

StartChar: divide
Encoding: 247 247 204
Width: 895
VWidth: 0
Flags: HW
PickledData: "(dp1
S'org.robofab.postScriptHintData'
p2
(dp3
sS'com.typemytype.robofont.layerData'
p4
(dp5
S'b'
(dp6
S'name'
p7
S'divide'
p8
sS'lib'
p9
(dp10
sS'unicodes'
p11
(tsS'width'
p12
I895
sS'contours'
p13
(tsS'components'
p14
(tsS'anchors'
p15
(tsss."
LayerCount: 2
Fore
SplineSet
303 47 m 257
 597 47 l 257
 597 318 l 257
 303 318 l 257
 303 47 l 257
92 413 m 257
 803 413 l 257
 803 617 l 257
 92 617 l 257
 92 413 l 257
303 709 m 257
 597 709 l 257
 597 980 l 257
 303 980 l 257
 303 709 l 257
EndSplineSet
EndChar

StartChar: dollar
Encoding: 36 36 205
Width: 1207
VWidth: 0
Flags: HW
PickledData: "(dp1
S'org.robofab.postScriptHintData'
p2
(dp3
sS'com.typemytype.robofont.layerData'
p4
(dp5
S'b'
(dp6
S'name'
p7
S'dollar'
p8
sS'lib'
p9
(dp10
sS'unicodes'
p11
(tsS'width'
p12
I1034
sS'contours'
p13
(tsS'components'
p14
(tsS'anchors'
p15
(tsss."
LayerCount: 2
Fore
SplineSet
596 -172 m 257
 698 -172 l 257
 698 1354 l 257
 596 1354 l 257
 596 -172 l 257
EndSplineSet
Refer: 104 83 N 1 0 0 1 12 0 2
EndChar

StartChar: dotaccent
Encoding: 729 729 207
Width: 579
VWidth: 0
Flags: HW
PickledData: "(dp1
S'org.robofab.postScriptHintData'
p2
(dp3
sS'com.typemytype.robofont.layerData'
p4
(dp5
S'b'
(dp6
S'name'
p7
S'dotaccent'
p8
sS'lib'
p9
(dp10
sS'unicodes'
p11
(tsS'width'
p12
I219
sS'contours'
p13
(tsS'components'
p14
(tsS'anchors'
p15
(tsss."
AnchorPoint: "top" 293 804 mark 0
LayerCount: 2
Fore
SplineSet
290 968 m 256
 412.230165894 968 491.009383808 1044.03915897 491.009383808 1160.78920697 c 0
 491.009383808 1278.33969953 414.348521196 1355 290 1355 c 256
 167 1355 88 1279 88 1163 c 256
 88 1045 167 968 290 968 c 256
EndSplineSet
EndChar

StartChar: dotlessi
Encoding: 305 305 208
Width: 892
VWidth: 0
Flags: HW
PickledData: "(dp1
S'org.robofab.postScriptHintData'
p2
(dp3
sS'com.typemytype.robofont.layerData'
p4
(dp5
S'b'
(dp6
S'name'
p7
S'dotlessi'
p8
sS'lib'
p9
(dp10
sS'unicodes'
p11
(tsS'width'
p12
I651
sS'contours'
p13
(tsS'components'
p14
(tsS'anchors'
p15
(tsss."
AnchorPoint: "top" 414 802 basechar 0
LayerCount: 2
Fore
SplineSet
152 0 m 257
 715 0 l 257
 715 224 l 257
 618 224 l 257
 618 417.333333333 618 610.666666667 618 804 c 257
 163 804 l 257
 163 580 l 257
 266 580 l 257
 266 224 l 257
 152 224 l 257
 152 0 l 257
EndSplineSet
EndChar

StartChar: dotlessj
Encoding: 567 567 209
Width: 647
VWidth: 0
Flags: HW
PickledData: "(dp1
S'org.robofab.postScriptHintData'
p2
(dp3
sS'com.typemytype.robofont.layerData'
p4
(dp5
S'b'
(dp6
S'name'
p7
S'uni0237'
p8
sS'lib'
p9
(dp10
sS'unicodes'
p11
(tsS'width'
p12
I583
sS'contours'
p13
(tsS'components'
p14
(tsS'anchors'
p15
(tsss."
AnchorPoint: "top" 370 804 basechar 0
LayerCount: 2
Fore
SplineSet
-20 -347 m 257
 93 -347 l 258
 537.519685039 -347 590.022010044 -105.489304979 590.022010044 97.7217937271 c 0
 590.022010044 160.570587141 585 219.755905512 585 267 c 258
 585 804 l 257
 71 804 l 257
 71 580 l 257
 219 580 l 257
 219 96 l 258
 219 -79 154 -84 39 -84 c 258
 -20 -84 l 257
 -20 -347 l 257
EndSplineSet
EndChar

StartChar: e
Encoding: 101 101 212
Width: 960
VWidth: 0
Flags: HW
PickledData: "(dp1
S'org.robofab.postScriptHintData'
p2
(dp3
sS'com.typemytype.robofont.layerData'
p4
(dp5
S'b'
(dp6
S'name'
p7
S'e'
sS'lib'
p8
(dp9
sS'unicodes'
p10
(tsS'width'
p11
I1054
sS'contours'
p12
((dp13
S'points'
p14
((dp15
S'segmentType'
p16
S'line'
p17
sS'x'
I119
sS'smooth'
p18
I0
sS'y'
I442
s(dp19
S'y'
I592
sS'x'
I130
sg18
I0
s(dp20
S'y'
I755
sS'x'
I244
sg18
I0
s(dp21
g16
S'curve'
p22
sS'x'
I455
sg18
I1
sS'y'
I755
s(dp23
S'y'
I755
sS'x'
I647
sg18
I0
s(dp24
S'y'
I616
sS'x'
I751
sg18
I0
s(dp25
g16
S'curve'
p26
sS'x'
I768
sg18
I0
sS'y'
I442
stp27
s(dp28
g14
((dp29
g16
S'line'
p30
sS'x'
I838
sg18
I0
sS'y'
I383
s(dp31
S'y'
I601
sS'x'
I837
sg18
I0
s(dp32
S'y'
I819
sS'x'
F726.76831688899995
sg18
I0
s(dp33
g16
S'curve'
p34
sS'x'
I450
sg18
I1
sS'y'
I819
s(dp35
S'y'
I819
sS'x'
I180
sg18
I0
s(dp36
S'y'
I618
sS'x'
I38
sg18
I0
s(dp37
g16
S'curve'
p38
sS'x'
I38
sg18
I1
sS'y'
I403
s(dp39
S'y'
I150
sS'x'
I38
sg18
I0
s(dp40
S'y'
S'-14'
p41
sS'x'
I232
sg18
I0
s(dp42
g16
S'curve'
p43
sS'x'
I511
sg18
I1
sS'y'
S'-14'
p44
s(dp45
S'y'
S'-14'
p46
sS'x'
I657
sg18
I0
s(dp47
S'y'
I34
sS'x'
I761
sg18
I0
s(dp48
g16
S'curve'
p49
sS'x'
I868
sg18
I0
sS'y'
I139
s(dp50
g16
S'line'
p51
sS'x'
I836
sg18
I0
sS'y'
I197
s(dp52
S'y'
I103
sS'x'
I747
sg18
I0
s(dp53
S'y'
I50
sS'x'
I652
sg18
I0
s(dp54
g16
S'curve'
p55
sS'x'
I515
sg18
I1
sS'y'
I50
s(dp56
S'y'
I50
sS'x'
I347
sg18
I0
s(dp57
S'y'
I162
sS'x'
I182
sg18
I0
s(dp58
g16
S'curve'
p59
sS'x'
I169
sg18
I0
sS'y'
I383
stp60
stp61
sS'components'
p62
(tsS'anchors'
p63
(tsss."
AnchorPoint: "bot" 515 0 basechar 0
AnchorPoint: "top" 489 804 basechar 0
LayerCount: 2
Fore
SplineSet
406 510 m 1
 420 597 459 645 516 645 c 0
 583.987527408 645 621.616519273 603.365436971 621.616519273 527.366767234 c 0
 621.616519273 521.763662318 621.411984049 515.973768706 621 510 c 1
 406 510 l 1
538 -21 m 0
 675 -21 812 16 908 87 c 1
 824 263 l 1
 752 227 663 204 593 204 c 0
 494 204 411 240 404 356 c 1
 908 356 l 1
 908 656 760 827 499 827 c 0
 207 827 40 669 40 393 c 0
 40 129 221 -21 538 -21 c 0
EndSplineSet
EndChar

StartChar: eight
Encoding: 56 56 220
Width: 1218
VWidth: 0
Flags: HW
PickledData: "(dp1
S'org.robofab.postScriptHintData'
p2
(dp3
sS'com.typemytype.robofont.layerData'
p4
(dp5
S'b'
(dp6
S'name'
p7
S'eight'
p8
sS'lib'
p9
(dp10
sS'unicodes'
p11
(tsS'width'
p12
I1109
sS'contours'
p13
(tsS'components'
p14
(tsS'anchors'
p15
(tsss."
LayerCount: 2
Fore
SplineSet
615.341449664 1174.0227613 m 0
 331.606502685 1174.0227613 127 1043.48275117 127 863 c 256
 127 733 214 621 326 603 c 257
 185 582 78 454 78 304 c 256
 78 111 308 -22 618 -22 c 256
 919 -22 1140 112 1140 304 c 256
 1140 449 1036 580 897 612 c 257
 1004 634 1088 742 1088 862 c 256
 1088 1044.60292652 891.025586174 1174.0227613 615.341449664 1174.0227613 c 0
617 145 m 256
 534 145 474 211 474 302 c 256
 474 439.918773711 500.695794945 529.451419085 560.945137675 529.451419085 c 0
 566.659626462 529.451419085 572.67596345 528.645982116 579 527 c 256
 679 504 749 400 749 303 c 256
 749 211 693 145 617 145 c 256
634 692 m 256
 554 723 501 802 501 866 c 256
 501 950 549 1012 609 1012 c 256
 673 1012 723 951 723 866 c 256
 723 755.827324548 703.121662962 687.704977447 656.01134257 687.704977447 c 0
 649.24350901 687.704977447 641.913662274 689.110885202 634 692 c 256
EndSplineSet
EndChar

StartChar: emdash
Encoding: 8212 8212 223
Width: 1783
VWidth: 0
Flags: HW
PickledData: "(dp1
S'org.robofab.postScriptHintData'
p2
(dp3
sS'com.typemytype.robofont.layerData'
p4
(dp5
S'b'
(dp6
S'name'
p7
S'emdash'
p8
sS'lib'
p9
(dp10
sS'unicodes'
p11
(tsS'width'
p12
I2045
sS'contours'
p13
(tsS'components'
p14
(tsS'anchors'
p15
(tsss."
LayerCount: 2
Fore
SplineSet
-35 445 m 257
 1818 445 l 257
 1818 593 l 257
 -35 593 l 257
 -35 445 l 257
EndSplineSet
EndChar

StartChar: emptyset
Encoding: 8709 8709 224
Width: 1349
VWidth: 0
Flags: HW
PickledData: "(dp1
S'org.robofab.postScriptHintData'
p2
(dp3
s."
LayerCount: 2
Fore
SplineSet
241 -64 m 257
 355 71 l 257
 446 11 556 -22 674 -22 c 256
 978 -22 1226 222 1226 525 c 256
 1226 676 1165 811 1067 910 c 257
 1182 1045 l 257
 1114 1104 l 257
 999 968 l 257
 907 1033 795 1073 674 1073 c 256
 372 1073 123 852 123 525 c 256
 123 357 186 219 288 124 c 257
 178 -7 l 257
 241 -64 l 257
358 207 m 257
 281 284 236 395 236 524 c 256
 236 783 425 971 674 971 c 256
 771 971 860 939 931 887 c 257
 358 207 l 257
673 80 m 256
 579 80 494 105 424 152 c 257
 997 827 l 257
 1070 746 1114 639 1114 524 c 256
 1114 287 923 80 673 80 c 256
EndSplineSet
EndChar

StartChar: endash
Encoding: 8211 8211 225
Width: 800
VWidth: 0
Flags: HW
PickledData: "(dp1
S'org.robofab.postScriptHintData'
p2
(dp3
sS'com.typemytype.robofont.layerData'
p4
(dp5
S'b'
(dp6
S'name'
p7
S'endash'
p8
sS'lib'
p9
(dp10
sS'unicodes'
p11
(tsS'width'
p12
I1222
sS'contours'
p13
(tsS'components'
p14
(tsS'anchors'
p15
(tsss."
LayerCount: 2
Fore
SplineSet
-35 481 m 257
 834 481 l 257
 834 629 l 257
 -35 629 l 257
 -35 481 l 257
EndSplineSet
EndChar

StartChar: eng
Encoding: 331 331 226
Width: 1296
VWidth: 0
Flags: HW
PickledData: "(dp1
S'org.robofab.postScriptHintData'
p2
(dp3
s."
LayerCount: 2
Fore
SplineSet
38 0 m 257
 601 0 l 257
 601 224 l 257
 504 224 l 257
 504 417.333333333 504 610.666666667 504 804 c 257
 49 804 l 257
 49 580 l 257
 152 580 l 257
 152 224 l 257
 38 224 l 257
 38 0 l 257
620 -352 m 257
 900 -352 1145 -257 1145 156 c 258
 1145 472 l 258
 1145 718 1024 826 859 826 c 256
 670 826 514 720 346 470 c 257
 346 346 l 257
 462.951585107 517.462917148 561.239295471 573.013349051 670.070576258 573.013349051 c 0
 671.046196516 573.013349051 672.022664083 573.008884872 673 573 c 256
 741 573 793 536 793 435 c 258
 793 170 l 258
 793 -38 743 -105 625 -105 c 257
 620 -352 l 257
EndSplineSet
EndChar

StartChar: equal
Encoding: 61 61 228
Width: 1072
VWidth: 0
Flags: HW
PickledData: "(dp1
S'org.robofab.postScriptHintData'
p2
(dp3
sS'com.typemytype.robofont.layerData'
p4
(dp5
S'b'
(dp6
S'name'
p7
S'equal'
p8
sS'lib'
p9
(dp10
sS'unicodes'
p11
(tsS'width'
p12
I1209
sS'contours'
p13
(tsS'components'
p14
(tsS'anchors'
p15
(tsss."
LayerCount: 2
Fore
SplineSet
168 176 m 257
 904 176 l 257
 904 397 l 257
 168 397 l 257
 168 176 l 257
168 575 m 257
 904 575 l 257
 904 797 l 257
 168 797 l 257
 168 575 l 257
EndSplineSet
EndChar

StartChar: estimated
Encoding: 8494 8494 229
Width: 1108
VWidth: 0
Flags: HW
PickledData: "(dp1
S'org.robofab.postScriptHintData'
p2
(dp3
s."
LayerCount: 2
Fore
SplineSet
976 105 m 257
 939 165 l 257
 839.212664379 94.3601679112 744.834400075 60.9958925002 662.921642361 60.9958925002 c 0
 505.960274953 60.9958925002 394.77011665 183.503807871 379 401 c 257
 967 401 l 257
 967 625 862 826 580 826 c 256
 312 826 134 632 134 420 c 256
 134 126.125480147 378.56441438 -19.566781688 622.566952158 -19.566781688 c 0
 753.027449122 -19.566781688 883.327322131 22.0823408538 976 105 c 257
379 461 m 257
 383.485849476 660.371087839 496.038832327 759.127948055 607.817218404 759.127948055 c 0
 720.300809905 759.127948055 832 659.121050759 832 461 c 257
 379 461 l 257
EndSplineSet
EndChar

StartChar: eth
Encoding: 240 240 230
Width: 1076
VWidth: 0
Flags: HW
PickledData: "(dp1
S'org.robofab.postScriptHintData'
p2
(dp3
sS'com.typemytype.robofont.layerData'
p4
(dp5
S'b'
(dp6
S'name'
p7
S'eth'
p8
sS'lib'
p9
(dp10
sS'unicodes'
p11
(tsS'width'
p12
I1022
sS'contours'
p13
(tsS'components'
p14
(tsS'anchors'
p15
(tsss."
LayerCount: 2
Fore
SplineSet
595 -23 m 256
 916 -23 1100 208 1100 460 c 256
 1100 1222 670 1415 513 1473 c 257
 387 1310 l 257
 557 1207 716 1074 836 744 c 257
 836 744 726 810 567 810 c 256
 249 810 156 559 156 389 c 256
 156 181 277 -23 595 -23 c 256
632 220 m 256
 538 220 482 292 482 426 c 256
 482 542 540 608 634 608 c 256
 728 608 778 540 778 427 c 256
 778 291 720 220 632 220 c 256
481 917 m 257
 1096 1216 l 257
 1005 1418 l 257
 387 1118 l 257
 481 917 l 257
EndSplineSet
EndChar

StartChar: exclam
Encoding: 33 33 231
Width: 647
VWidth: 0
Flags: HW
PickledData: "(dp1
S'org.robofab.postScriptHintData'
p2
(dp3
sS'com.typemytype.robofont.layerData'
p4
(dp5
S'b'
(dp6
S'name'
p7
S'exclam'
p8
sS'lib'
p9
(dp10
sS'unicodes'
p11
(tsS'width'
p12
I502
sS'contours'
p13
(tsS'components'
p14
(tsS'anchors'
p15
(tsss."
LayerCount: 2
Fore
SplineSet
276 386 m 257
 379 386 l 257
 472 876 l 257
 472 1138 l 257
 166 1138 l 257
 166 876 l 257
 276 386 l 257
141 0 m 257
 492 0 l 257
 492 278 l 257
 141 278 l 257
 141 0 l 257
EndSplineSet
EndChar

StartChar: f
Encoding: 102 102 233
Width: 961
VWidth: 0
Flags: HW
PickledData: "(dp1
S'org.robofab.postScriptHintData'
p2
(dp3
sS'com.typemytype.robofont.layerData'
p4
(dp5
S'b'
(dp6
S'name'
p7
S'f'
sS'lib'
p8
(dp9
sS'unicodes'
p10
(tsS'width'
p11
I748
sS'contours'
p12
(tsS'components'
p13
(tsS'anchors'
p14
(tsss."
AnchorPoint: "top" 495 1214 basechar 0
LayerCount: 2
Fore
SplineSet
65 0 m 1
 851 0 l 1
 851 224 l 1
 610 224 l 1
 610 580 l 1
 855 580 l 1
 855 804 l 1
 610 804 l 1
 610 884 l 2
 610 1034 663 1043 700 1043 c 0
 772 1043 772 1007 786 924 c 1
 1037 1007 l 1
 1010 1152 951 1247 638 1247 c 0
 281.91054486 1247 258.242457593 990.757043195 258 804 c 1
 64 804 l 1
 64 580 l 1
 258 580 l 1
 258 224 l 1
 65 224 l 1
 65 0 l 1
EndSplineSet
EndChar

StartChar: ff
Encoding: 64256 64256 235
Width: 1849
VWidth: 0
Flags: HW
PickledData: "(dp1
S'org.robofab.postScriptHintData'
p2
(dp3
sS'com.typemytype.robofont.layerData'
p4
(dp5
S'b'
(dp6
S'name'
p7
S'ff'
p8
sS'lib'
p9
(dp10
sS'unicodes'
p11
(tsS'width'
p12
I1351
sS'contours'
p13
(tsS'components'
p14
(tsS'anchors'
p15
(tsss."
LayerCount: 2
Fore
SplineSet
998 0 m 257
 1799 0 l 257
 1799 224 l 257
 1550 224 l 257
 1550 580 l 257
 1799 580 l 257
 1799 804 l 257
 1550 804 l 257
 1550 884 l 258
 1550 1034 1564 1043 1601 1043 c 256
 1639 1043 1637 1007 1651 924 c 257
 1902 1007 l 257
 1875 1152 1819 1247 1578 1247 c 256
 1221.38372924 1247 1199.16641213 1061.4427782 1199 804 c 257
 796 804 l 257
 796 580 l 257
 1199 580 l 257
 1199 224 l 257
 998 224 l 257
 998 0 l 257
EndSplineSet
Refer: 233 102 N 1 0 0 1 0 0 2
EndChar

StartChar: ffi
Encoding: 64259 64259 236
Width: 2305
VWidth: 0
Flags: HW
PickledData: "(dp1
S'org.robofab.postScriptHintData'
p2
(dp3
sS'com.typemytype.robofont.layerData'
p4
(dp5
S'b'
(dp6
S'name'
p7
S'ffi'
p8
sS'lib'
p9
(dp10
sS'unicodes'
p11
(tsS'width'
p12
I1751
sS'contours'
p13
(tsS'components'
p14
(tsS'anchors'
p15
(tsss."
LayerCount: 2
Fore
SplineSet
66 0 m 257
 751 0 l 257
 751 224 l 257
 618 224 l 257
 618 580 l 257
 951 580 l 257
 951 804 l 257
 618 804 l 257
 618 911 l 258
 618 1000 692 1047 820 1047 c 256
 926 1047 1067 1015 1240 951 c 257
 1308 1107 l 257
 1128 1226 914 1292 727 1292 c 256
 471 1292 267 1167 267 885 c 258
 267 804 l 257
 67 804 l 257
 67 580 l 257
 267 580 l 257
 267 224 l 257
 66 224 l 257
 66 0 l 257
EndSplineSet
Refer: 238 64257 N 1 0 0 1 758 0 2
EndChar

StartChar: ffl
Encoding: 64260 64260 237
Width: 2472
VWidth: 0
Flags: HW
PickledData: "(dp1
S'org.robofab.postScriptHintData'
p2
(dp3
sS'com.typemytype.robofont.layerData'
p4
(dp5
S'b'
(dp6
S'name'
p7
S'ffl'
p8
sS'lib'
p9
(dp10
sS'unicodes'
p11
(tsS'width'
p12
I1771
sS'contours'
p13
(tsS'components'
p14
(tsS'anchors'
p15
(tsss."
LayerCount: 2
Fore
SplineSet
59 0 m 257
 744 0 l 257
 744 224 l 257
 611 224 l 257
 611 580 l 257
 944 580 l 257
 944 804 l 257
 611 804 l 257
 611 911 l 258
 611 1000 684 1047 813 1047 c 256
 919 1047 1060 1015 1233 951 c 257
 1301 1107 l 257
 1121 1226 907 1292 720 1292 c 256
 463 1292 260 1167 260 885 c 258
 260 804 l 257
 60 804 l 257
 60 580 l 257
 260 580 l 257
 260 224 l 257
 59 224 l 257
 59 0 l 257
EndSplineSet
Refer: 241 64258 N 1 0 0 1 819 0 2
EndChar

StartChar: fi
Encoding: 64257 64257 238
Width: 1547
VWidth: 0
Flags: HW
PickledData: "(dp1
S'org.robofab.postScriptHintData'
p2
(dp3
sS'com.typemytype.robofont.layerData'
p4
(dp5
S'b'
(dp6
S'name'
p7
S'fi'
p8
sS'lib'
p9
(dp10
sS'unicodes'
p11
(tsS'width'
p12
I1222
sS'contours'
p13
(tsS'components'
p14
(tsS'anchors'
p15
(tsss."
LayerCount: 2
Fore
SplineSet
101 0 m 257
 860 0 l 257
 860 224 l 257
 653 224 l 257
 653 580 l 257
 1054 580 l 257
 1054 224 l 257
 940 224 l 257
 940 0 l 257
 1504 0 l 257
 1504 224 l 257
 1406 224 l 257
 1406 804 l 257
 653 804 l 257
 653 906 l 258
 653 1083 763 1146 894 1146 c 256
 1028.76519026 1146 1066.18174198 1109.18748963 1066.18174198 1106.5930903 c 0
 1066.18174198 1106.31905231 1065.76428509 1106.42678618 1065 1107 c 257
 1050 1079 1043 1052 1043 1027 c 256
 1043 960 1098 908 1215 908 c 256
 1353 908 1402 990 1402 1068 c 256
 1402 1226 1174 1312 911 1312 c 256
 706 1312 302 1273 302 849 c 258
 302 804 l 257
 102 804 l 257
 102 580 l 257
 302 580 l 257
 302 224 l 257
 101 224 l 257
 101 0 l 257
EndSplineSet
EndChar

StartChar: five
Encoding: 53 53 239
Width: 1220
VWidth: 0
Flags: HW
PickledData: "(dp1
S'org.robofab.postScriptHintData'
p2
(dp3
sS'com.typemytype.robofont.layerData'
p4
(dp5
S'b'
(dp6
S'name'
p7
S'five'
p8
sS'lib'
p9
(dp10
sS'unicodes'
p11
(tsS'width'
p12
I1054
sS'contours'
p13
(tsS'components'
p14
(tsS'anchors'
p15
(tsss."
LayerCount: 2
Fore
SplineSet
598 -23 m 256
 889 -23 1101 143 1101 370 c 256
 1101 611 958 787 763 787 c 256
 632 787 506 745 476 688 c 257
 502 935 l 257
 842 935 l 257
 842 862 l 257
 1052 862 l 257
 1052 1152 l 257
 224 1152 l 257
 183 561 l 257
 455 456 l 257
 493 510 567 553 627 553 c 256
 702 553 758 493 758 412 c 256
 758 317 674 248 560 248 c 256
 480 248 345 295 262 361 c 257
 137 135 l 257
 235 43 440 -23 598 -23 c 256
EndSplineSet
EndChar

StartChar: fj
Encoding: 0 -1 240
Width: 1538
VWidth: 0
Flags: HW
PickledData: "(dp1
S'org.robofab.postScriptHintData'
p2
(dp3
sS'com.typemytype.robofont.layerData'
p4
(dp5
S'b'
(dp6
S'name'
p7
S'fj'
p8
sS'lib'
p9
(dp10
sS'unicodes'
p11
(tsS'width'
p12
I1275
sS'contours'
p13
(tsS'components'
p14
(tsS'anchors'
p15
(tsss."
LayerCount: 2
Fore
SplineSet
872 -473 m 257
 985 -473 l 258
 1428.35602094 -473 1481.16413338 -232.752103835 1481.16413338 -29.8748873221 c 0
 1481.16413338 33.5678161235 1476 93.3560209424 1476 141 c 258
 1476 804 l 257
 653 804 l 257
 653 906 l 258
 653 1083 763 1146 894 1146 c 256
 1028.76519026 1146 1066.18174198 1109.18748963 1066.18174198 1106.5930903 c 0
 1066.18174198 1106.31905231 1065.76428509 1106.42678618 1065 1107 c 257
 1050 1079 1043 1052 1043 1027 c 256
 1043 960 1098 908 1215 908 c 256
 1353 908 1402 990 1402 1068 c 256
 1402 1226 1174 1312 911 1312 c 256
 706 1312 302 1273 302 849 c 258
 302 804 l 257
 102 804 l 257
 102 580 l 257
 302 580 l 257
 302 224 l 257
 101 224 l 257
 101 0 l 257
 860 0 l 257
 860 224 l 257
 653 224 l 257
 653 580 l 257
 1110 580 l 257
 1110 -30 l 258
 1110 -205 1045 -210 931 -210 c 258
 872 -210 l 257
 872 -473 l 257
EndSplineSet
EndChar

StartChar: fl
Encoding: 64258 64258 241
Width: 1522
VWidth: 0
Flags: HW
PickledData: "(dp1
S'org.robofab.postScriptHintData'
p2
(dp3
sS'com.typemytype.robofont.layerData'
p4
(dp5
S'b'
(dp6
S'name'
p7
S'fl'
p8
sS'lib'
p9
(dp10
sS'unicodes'
p11
(tsS'width'
p12
I1274
sS'contours'
p13
(tsS'components'
p14
(tsS'anchors'
p15
(tsss."
LayerCount: 2
Fore
SplineSet
59 0 m 257
 819 0 l 257
 819 224 l 257
 611 224 l 257
 611 580 l 257
 819 580 l 257
 819 804 l 257
 611 804 l 257
 611 967 l 258
 611 1082 704 1137 860 1137 c 256
 921 1137 977 1136 977 1034 c 258
 976 225 l 258
 976 106 1006 0 1177 0 c 258
 1459 0 l 257
 1459 225 l 257
 1328 225 l 257
 1329 1138 l 258
 1329 1294 1114 1368 876 1368 c 256
 585 1368 260 1291 260 918 c 258
 260 804 l 257
 60 804 l 257
 60 580 l 257
 260 580 l 257
 260 224 l 257
 59 224 l 257
 59 0 l 257
EndSplineSet
EndChar

StartChar: florin
Encoding: 402 402 242
Width: 1143
VWidth: 0
Flags: HW
PickledData: "(dp1
S'org.robofab.postScriptHintData'
p2
(dp3
sS'com.typemytype.robofont.layerData'
p4
(dp5
S'b'
(dp6
S'name'
p7
S'florin'
p8
sS'lib'
p9
(dp10
sS'unicodes'
p11
(tsS'width'
p12
I1142
sS'contours'
p13
(tsS'components'
p14
(tsS'anchors'
p15
(tsss."
LayerCount: 2
Fore
SplineSet
184 -347 m 256
 387 -347 522 -259 580 36 c 258
 704 669 l 257
 913 669 l 257
 934 783 l 257
 724 783 l 257
 756 948 l 257
 780 1078 800 1140 852 1140 c 256
 897 1140 920 1075 920 969 c 257
 1065 969 1108 1027 1108 1102 c 256
 1108 1176 1029 1233 860 1233 c 256
 651 1233 546 1125 508 937 c 258
 477 783 l 257
 316 783 l 257
 296 669 l 257
 457 669 l 257
 336 37 l 258
 296 -171 262 -245 180 -245 c 256
 140 -245 88 -232 60 -222 c 257
 35 -325 l 257
 72 -337 132 -347 184 -347 c 256
EndSplineSet
EndChar

StartChar: foundryicon
Encoding: 65545 -1 243
Width: 1347
VWidth: 0
Flags: HW
PickledData: "(dp1
S'org.robofab.postScriptHintData'
p2
(dp3
sS'com.typemytype.robofont.layerData'
p4
(dp5
S'b'
(dp6
S'name'
p7
S'foundryicon'
p8
sS'lib'
p9
(dp10
sS'unicodes'
p11
(tsS'width'
p12
I0
sS'contours'
p13
(tsS'components'
p14
(tsS'anchors'
p15
(tsss."
LayerCount: 2
Fore
SplineSet
485 405 m 257
 485 672 l 257
 591 672 l 257
 761 523 l 257
 761 672 l 257
 867 672 l 257
 867 405 l 257
 761 405 l 257
 591 552 l 257
 591 405 l 257
 485 405 l 257
280 2 m 257
 669 278 l 257
 1066 2 l 257
 922 461 l 257
 1313 755 l 257
 828 755 l 257
 669 1215 l 257
 519 755 l 257
 34 755 l 257
 423 461 l 257
 280 2 l 257
EndSplineSet
EndChar

StartChar: four
Encoding: 52 52 244
Width: 1236
VWidth: 0
Flags: HW
PickledData: "(dp1
S'org.robofab.postScriptHintData'
p2
(dp3
sS'com.typemytype.robofont.layerData'
p4
(dp5
S'b'
(dp6
S'name'
p7
S'four'
p8
sS'lib'
p9
(dp10
sS'unicodes'
p11
(tsS'width'
p12
I973
sS'contours'
p13
(tsS'components'
p14
(tsS'anchors'
p15
(tsss."
LayerCount: 2
Fore
SplineSet
331 0 m 257
 1089 0 l 257
 1089 224 l 257
 909 224 l 257
 909 398 l 257
 1073 398 l 257
 1073 583 l 257
 909 583 l 257
 909 1152 l 257
 524 1152 l 257
 34 548 l 257
 63 398 l 257
 549 398 l 257
 549 224 l 257
 331 224 l 257
 331 0 l 257
290 583 m 257
 549 914 l 257
 549 583 l 257
 290 583 l 257
EndSplineSet
EndChar

StartChar: fraction
Encoding: 8260 8260 246
Width: 989
VWidth: 0
Flags: HW
PickledData: "(dp1
S'org.robofab.postScriptHintData'
p2
(dp3
sS'com.typemytype.robofont.layerData'
p4
(dp5
S'b'
(dp6
S'name'
p7
S'fraction'
p8
sS'lib'
p9
(dp10
sS'unicodes'
p11
(tsS'width'
p12
I708
sS'contours'
p13
(tsS'components'
p14
(tsS'anchors'
p15
(tsss."
LayerCount: 2
Fore
SplineSet
26 -106 m 257
 192 -106 l 257
 965 1192 l 257
 804 1192 l 257
 26 -106 l 257
EndSplineSet
EndChar

StartChar: g
Encoding: 103 103 247
Width: 1163
VWidth: 0
Flags: HW
PickledData: "(dp1
S'org.robofab.postScriptHintData'
p2
(dp3
sS'com.typemytype.robofont.layerData'
p4
(dp5
S'b'
(dp6
S'name'
p7
S'g'
sS'lib'
p8
(dp9
sS'unicodes'
p10
(tsS'width'
p11
I1131
sS'contours'
p12
((dp13
S'points'
p14
((dp15
S'segmentType'
p16
S'curve'
p17
sS'x'
I510
sS'smooth'
p18
I1
sS'y'
S'-333'
p19
s(dp20
S'y'
S'-333'
p21
sS'x'
I722
sg18
I0
s(dp22
S'y'
S'-225'
p23
sS'x'
I880
sg18
I0
s(dp24
g16
S'curve'
p25
sS'x'
I880
sg18
I0
sS'y'
I15
s(dp26
g16
S'line'
p27
sS'x'
I880
sg18
I0
sS'y'
I735
s(dp28
g16
S'line'
p29
sS'x'
I1005
sg18
I0
sS'y'
I735
s(dp30
g16
S'line'
p31
sS'x'
I1005
sg18
I0
sS'y'
I789
s(dp32
g16
S'line'
p33
sS'x'
I804
sg18
I0
sS'y'
I789
s(dp34
g16
S'line'
p35
sS'x'
I804
sg18
I0
sS'y'
I673
s(dp36
S'y'
I673
sS'x'
I804
sg18
I0
s(dp37
S'y'
S'-2'
p38
sS'x'
I804
sg18
I0
s(dp39
g16
S'curve'
p40
sS'x'
I804
sg18
I1
sS'y'
S'-2'
p41
s(dp42
S'y'
S'-173'
p43
sS'x'
I804
sg18
I0
s(dp44
S'y'
S'-271'
p45
sS'x'
I695
sg18
I0
s(dp46
g16
S'curve'
p47
sS'x'
I515
sg18
I1
sS'y'
S'-271'
p48
s(dp49
S'y'
S'-271'
p50
sS'x'
I444
sg18
I0
s(dp51
S'y'
S'-255'
p52
sS'x'
I362
sg18
I0
s(dp53
g16
S'curve'
p54
sS'x'
I272
sg18
I0
sS'y'
S'-224'
p55
s(dp56
g16
S'line'
p57
sS'x'
I257
sg18
I0
sS'y'
S'-289'
p58
s(dp59
S'y'
S'-318'
p60
sS'x'
I345
sg18
I0
s(dp61
S'y'
S'-333'
p62
sS'x'
I431
sg18
I0
stp63
stp64
sS'components'
p65
(tsS'anchors'
p66
(tsss."
AnchorPoint: "top" 583 804 basechar 0
LayerCount: 2
Fore
SplineSet
481 -403 m 0
 761 -403 1000 -312 1000 91 c 2
 1000 585 l 1
 1107 585 l 1
 1107 804 l 1
 742 804 l 1
 701.677239544 738.570615109 l 1
 626.461586485 790.293963603 543.319331542 824.48046875 460 824.48046875 c 0
 204 824.48046875 45 644.16015625 45 387.400390625 c 0
 45 154.16015625 223 -6.5595703125 508 -6.5595703125 c 0
 555.165004839 -6.5595703125 597.633202732 1.42196645029 636.376292188 15.6337728642 c 1
 628.057465407 -118.628223215 586.647027806 -170 478 -170 c 0
 391 -170 318 -159 196 -123 c 1
 144 -345 l 1
 252 -377 346 -403 481 -403 c 0
636.100316595 604.412936457 m 1
 637.509381775 216.920011842 l 1
 619.738448862 214.32291054 603.431971448 212.959960938 589 212.959960938 c 0
 482 212.959960938 415 298.219726562 415 414.83984375 c 0
 415 541.259765625 495 604.959960938 619 604.959960938 c 0
 624.602767071 604.959960938 630.3070833 604.776002257 636.100316595 604.412936457 c 1
EndSplineSet
EndChar

StartChar: germandbls
Encoding: 223 223 254
Width: 1319
VWidth: 0
Flags: HW
PickledData: "(dp1
S'org.robofab.postScriptHintData'
p2
(dp3
sS'com.typemytype.robofont.layerData'
p4
(dp5
S'b'
(dp6
S'name'
p7
S'germandbls'
p8
sS'lib'
p9
(dp10
sS'unicodes'
p11
(tsS'width'
p12
I1143
sS'contours'
p13
(tsS'components'
p14
(tsS'anchors'
p15
(tsss."
LayerCount: 2
Fore
SplineSet
573 656 m 257
 753.704217013 647.643735629 839.878716611 550.640482437 839.878716611 411.139484255 c 0
 839.878716611 321.154505588 792.943366143 224 689 224 c 257
 689 0 l 257
 1106.36166204 0 1231.27144821 186.348908703 1231.27144821 430.232958664 c 0
 1231.27144821 444.630298414 1230.83614269 459.22814579 1230 474 c 256
 1219 671 1054 775 873 791 c 257
 1044 828 1132 956 1132 1073 c 256
 1132.02850072 1074.94754921 1132.04274122 1076.88923187 1132.04274122 1078.82498368 c 0
 1132.04274122 1280.64743157 977.244930386 1418 690 1418 c 256
 319 1418 161 1229 161 927 c 258
 161 224 l 257
 49 224 l 257
 49 0 l 257
 599 0 l 257
 599 224 l 257
 510 224 l 257
 510 955 l 258
 510 1079 612 1159 700 1159 c 256
 767 1159 840 1122 840 1039 c 256
 840 929 749 846 573 846 c 257
 573 656 l 257
EndSplineSet
EndChar

StartChar: grave
Encoding: 96 96 255
Width: 775
VWidth: 0
Flags: HW
PickledData: "(dp1
S'org.robofab.postScriptHintData'
p2
(dp3
sS'com.typemytype.robofont.layerData'
p4
(dp5
S'b'
(dp6
S'name'
p7
S'grave'
p8
sS'lib'
p9
(dp10
sS'unicodes'
p11
(tsS'width'
p12
I407
sS'contours'
p13
(tsS'components'
p14
(tsS'anchors'
p15
(tsss."
AnchorPoint: "top" 506 804 mark 0
LayerCount: 2
Fore
SplineSet
400 920 m 257
 601 920 l 257
 518 1294 l 257
 197 1294 l 257
 400 920 l 257
EndSplineSet
EndChar

StartChar: greater
Encoding: 62 62 256
Width: 1300
VWidth: 0
Flags: HW
PickledData: "(dp1
S'org.robofab.postScriptHintData'
p2
(dp3
sS'com.typemytype.robofont.layerData'
p4
(dp5
S'b'
(dp6
S'name'
p7
S'greater'
p8
sS'lib'
p9
(dp10
sS'unicodes'
p11
(tsS'width'
p12
I1079
sS'contours'
p13
(tsS'components'
p14
(tsS'anchors'
p15
(tsss."
LayerCount: 2
Fore
SplineSet
243 15 m 257
 1191 402 l 257
 1191 752 l 257
 243 1164 l 257
 243 878 l 257
 946 585 l 257
 243 306 l 257
 243 15 l 257
EndSplineSet
EndChar

StartChar: greaterequal
Encoding: 8805 8805 257
Width: 1112
VWidth: 0
Flags: HW
PickledData: "(dp1
S'org.robofab.postScriptHintData'
p2
(dp3
sS'com.typemytype.robofont.layerData'
p4
(dp5
S'b'
(dp6
S'name'
p7
S'greaterequal'
p8
sS'lib'
p9
(dp10
sS'unicodes'
p11
(tsS'width'
p12
I1035
sS'contours'
p13
(tsS'components'
p14
(tsS'anchors'
p15
(tsss."
LayerCount: 2
Fore
SplineSet
134 292 m 257
 1013 670 l 257
 1013 794 l 257
 134 1174 l 257
 134 931 l 257
 700 731 l 257
 134 538 l 257
 134 292 l 257
134 0 m 257
 1013 0 l 257
 1013 225 l 257
 134 225 l 257
 134 0 l 257
EndSplineSet
EndChar

StartChar: guillemotleft
Encoding: 171 171 258
Width: 1398
VWidth: 0
Flags: HW
PickledData: "(dp1
S'org.robofab.postScriptHintData'
p2
(dp3
sS'com.typemytype.robofont.layerData'
p4
(dp5
S'b'
(dp6
S'name'
p7
S'guillemotleft'
p8
sS'lib'
p9
(dp10
sS'unicodes'
p11
(tsS'width'
p12
I954
sS'contours'
p13
(tsS'components'
p14
(tsS'anchors'
p15
(tsss."
LayerCount: 2
Fore
SplineSet
476 93 m 257
 749 93 l 257
 504 560 l 257
 749 1035 l 257
 476 1035 l 257
 184 557 l 257
 476 93 l 257
979 93 m 257
 1252 93 l 257
 1007 560 l 257
 1252 1035 l 257
 979 1035 l 257
 687 557 l 257
 979 93 l 257
EndSplineSet
EndChar

StartChar: guillemotright
Encoding: 187 187 259
Width: 1321
VWidth: 0
Flags: HW
PickledData: "(dp1
S'org.robofab.postScriptHintData'
p2
(dp3
sS'com.typemytype.robofont.layerData'
p4
(dp5
S'b'
(dp6
S'name'
p7
S'guillemotright'
p8
sS'lib'
p9
(dp10
sS'unicodes'
p11
(tsS'width'
p12
I954
sS'contours'
p13
(tsS'components'
p14
(tsS'anchors'
p15
(tsss."
LayerCount: 2
Fore
SplineSet
184 93 m 257
 458 93 l 257
 749 571 l 257
 458 1035 l 257
 184 1035 l 257
 430 567 l 257
 184 93 l 257
687 93 m 257
 961 93 l 257
 1252 571 l 257
 961 1035 l 257
 687 1035 l 257
 933 567 l 257
 687 93 l 257
EndSplineSet
EndChar

StartChar: guilsinglleft
Encoding: 8249 8249 260
Width: 993
VWidth: 0
Flags: HW
PickledData: "(dp1
S'org.robofab.postScriptHintData'
p2
(dp3
sS'com.typemytype.robofont.layerData'
p4
(dp5
S'b'
(dp6
S'name'
p7
S'guilsinglleft'
p8
sS'lib'
p9
(dp10
sS'unicodes'
p11
(tsS'width'
p12
I619
sS'contours'
p13
(tsS'components'
p14
(tsS'anchors'
p15
(tsss."
LayerCount: 2
Fore
SplineSet
534 93 m 257
 808 93 l 257
 563 560 l 257
 808 1035 l 257
 534 1035 l 257
 195 557 l 257
 534 93 l 257
EndSplineSet
EndChar

StartChar: guilsinglright
Encoding: 8250 8250 261
Width: 993
VWidth: 0
Flags: HW
PickledData: "(dp1
S'org.robofab.postScriptHintData'
p2
(dp3
sS'com.typemytype.robofont.layerData'
p4
(dp5
S'b'
(dp6
S'name'
p7
S'guilsinglright'
p8
sS'lib'
p9
(dp10
sS'unicodes'
p11
(tsS'width'
p12
I619
sS'contours'
p13
(tsS'components'
p14
(tsS'anchors'
p15
(tsss."
LayerCount: 2
Fore
SplineSet
224 93 m 257
 497 93 l 257
 837 571 l 257
 497 1035 l 257
 224 1035 l 257
 469 567 l 257
 224 93 l 257
EndSplineSet
EndChar

StartChar: h
Encoding: 104 104 262
Width: 1314
VWidth: 0
Flags: HW
PickledData: "(dp1
S'org.robofab.postScriptHintData'
p2
(dp3
sS'com.typemytype.robofont.layerData'
p4
(dp5
S'b'
(dp6
S'name'
p7
S'h'
sS'lib'
p8
(dp9
sS'unicodes'
p10
(tsS'width'
p11
I1115
sS'contours'
p12
(tsS'components'
p13
(tsS'anchors'
p14
(tsss."
AnchorPoint: "top" 595 1165 basechar 0
LayerCount: 2
Fore
SplineSet
43 0 m 1
 641 0 l 1
 641 224 l 1
 520 224 l 1
 520 520.766030933 l 1
 574.227877051 558.331481988 627.129670718 573.013349051 683.070810977 573.013349051 c 0
 684.046275457 573.013349051 685.022664083 573.008884872 686 573 c 0
 755 573 806 536 806 435 c 2
 806 224 l 1
 713 224 l 1
 713 0 l 1
 1290 0 l 1
 1290 224 l 1
 1158 224 l 1
 1158 472 l 2
 1158.06283155 475.864140563 1158.09408067 479.694231315 1158.09408067 483.490388527 c 0
 1158.09408067 721.366256231 1035.39249051 826 872 826 c 0
 744.813303793 826 631.814875084 777.485278877 520 668.689666937 c 1
 520 1174 l 1
 42 1174 l 1
 42 950 l 1
 168 950 l 1
 168 224 l 1
 43 224 l 1
 43 0 l 1
EndSplineSet
EndChar

StartChar: hungarumlaut
Encoding: 733 733 265
Width: 1209
VWidth: 0
Flags: HW
PickledData: "(dp1
S'org.robofab.postScriptHintData'
p2
(dp3
sS'com.typemytype.robofont.layerData'
p4
(dp5
S'b'
(dp6
S'name'
p7
S'hungarumlaut'
p8
sS'lib'
p9
(dp10
sS'unicodes'
p11
(tsS'width'
p12
I757
sS'contours'
p13
(tsS'components'
p14
(tsS'anchors'
p15
(tsss."
AnchorPoint: "top" 492 804 mark 0
LayerCount: 2
Fore
SplineSet
173 920 m 257
 374 920 l 257
 577 1294 l 257
 256 1294 l 257
 173 920 l 257
613 920 m 257
 814 920 l 257
 1017 1294 l 257
 696 1294 l 257
 613 920 l 257
EndSplineSet
EndChar

StartChar: hyphen
Encoding: 45 45 266
Width: 696
VWidth: 0
Flags: HW
PickledData: "(dp1
S'org.robofab.postScriptHintData'
p2
(dp3
sS'com.typemytype.robofont.layerData'
p4
(dp5
S'b'
(dp6
S'name'
p7
S'hyphen'
p8
sS'lib'
p9
(dp10
sS'unicodes'
p11
(tsS'width'
p12
I782
sS'contours'
p13
(tsS'components'
p14
(tsS'anchors'
p15
(tsss."
LayerCount: 2
Fore
SplineSet
45 418 m 257
 651 418 l 257
 651 628 l 257
 45 628 l 257
 45 418 l 257
EndSplineSet
EndChar

StartChar: i
Encoding: 105 105 267
Width: 687
VWidth: 0
Flags: HW
PickledData: "(dp1
S'org.robofab.postScriptHintData'
p2
(dp3
sS'com.typemytype.robofont.layerData'
p4
(dp5
S'b'
(dp6
S'name'
p7
S'i'
sS'lib'
p8
(dp9
sS'unicodes'
p10
(tsS'width'
p11
I651
sS'contours'
p12
(tsS'components'
p13
(tsS'anchors'
p14
(tsss."
AnchorPoint: "top" 332 802 basechar 0
LayerCount: 2
Fore
SplineSet
336 966 m 0
 458.230165894 966 537.009383808 1042.03915897 537.009383808 1158.78920697 c 0
 537.009383808 1276.33969953 460.348521196 1353 336 1353 c 0
 213 1353 134 1277 134 1161 c 0
 134 1043 213 966 336 966 c 0
68 0 m 1
 631 0 l 1
 631 224 l 1
 534 224 l 1
 534 417.333333333 534 610.666666667 534 804 c 1
 79 804 l 1
 79 580 l 1
 182 580 l 1
 182 224 l 1
 68 224 l 1
 68 0 l 1
EndSplineSet
EndChar

StartChar: infinity
Encoding: 8734 8734 275
Width: 1718
VWidth: 0
Flags: HW
PickledData: "(dp1
S'org.robofab.postScriptHintData'
p2
(dp3
sS'com.typemytype.robofont.layerData'
p4
(dp5
S'b'
(dp6
S'name'
p7
S'infinity'
p8
sS'lib'
p9
(dp10
sS'unicodes'
p11
(tsS'width'
p12
I1599
sS'contours'
p13
(tsS'components'
p14
(tsS'anchors'
p15
(tsss."
LayerCount: 2
Fore
SplineSet
1238 10 m 256
 1501 10 1601 228 1601 399 c 256
 1601 607 1495 787 1242 787 c 256
 1096 787 992 725 892 572 c 257
 789 730 652 793 484 793 c 256
 268 793 117 635 117 405 c 256
 117 141 306 15 484 15 c 256
 623 15 742 105 823 236 c 257
 944 89 1087 10 1238 10 c 256
503 220 m 256
 381 220 330 312 330 402 c 256
 330 532 420 589 497 589 c 256
 590 589 642 537 708 405 c 257
 649 285 580 220 503 220 c 256
1219 214 m 256
 1133 214 1062 292 1011 399 c 257
 1084 529 1141 584 1215 584 c 256
 1320 584 1392 502 1392 401 c 256
 1392 315 1331 214 1219 214 c 256
EndSplineSet
EndChar

StartChar: integral
Encoding: 8747 8747 276
Width: 1065
VWidth: 0
Flags: HW
PickledData: "(dp1
S'org.robofab.postScriptHintData'
p2
(dp3
sS'com.typemytype.robofont.layerData'
p4
(dp5
S'b'
(dp6
S'name'
p7
S'integral'
p8
sS'lib'
p9
(dp10
sS'unicodes'
p11
(tsS'width'
p12
I953
sS'contours'
p13
(tsS'components'
p14
(tsS'anchors'
p15
(tsss."
LayerCount: 2
Fore
SplineSet
294 -260 m 256
 596 -260 673 -20 673 261 c 256
 673 480 640 703 640 854 c 256
 640 861.860465116 639.997836668 869.461330449 639.997836668 876.809740023 c 0
 639.997836668 1027.45213629 640.906976744 1072 680 1072 c 256
 711 1072 716 1021 716 916 c 257
 926 916 973 985 973 1036 c 256
 973 1101 886 1162 718 1162 c 256
 412 1162 332 955 332 682 c 256
 332 453 372 220 372 49 c 256
 372 -121 362 -170 333 -170 c 256
 296 -170 290 -133 290 -7 c 257
 79 -7 33 -74 33 -123 c 256
 33 -186 111 -260 294 -260 c 256
EndSplineSet
EndChar

StartChar: j
Encoding: 106 106 279
Width: 647
VWidth: 0
Flags: HW
PickledData: "(dp1
S'org.robofab.postScriptHintData'
p2
(dp3
sS'com.typemytype.robofont.layerData'
p4
(dp5
S'b'
(dp6
S'name'
p7
S'j'
sS'lib'
p8
(dp9
sS'unicodes'
p10
(tsS'width'
p11
I594
sS'contours'
p12
(tsS'components'
p13
(tsS'anchors'
p14
(tsss."
LayerCount: 2
Fore
SplineSet
367 968 m 0
 489.230165894 968 568.009383808 1044.03915897 568.009383808 1160.78920697 c 0
 568.009383808 1278.33969953 491.348521196 1355 367 1355 c 0
 244 1355 165 1279 165 1163 c 0
 165 1045 244 968 367 968 c 0
-20 -347 m 1
 93 -347 l 2
 537.519685039 -347 590.022010044 -105.489304979 590.022010044 97.7217937271 c 0
 590.022010044 160.570587141 585 219.755905512 585 267 c 2
 585 804 l 1
 71 804 l 1
 71 580 l 1
 219 580 l 1
 219 96 l 2
 219 -79 154 -84 39 -84 c 2
 -20 -84 l 1
 -20 -347 l 1
EndSplineSet
EndChar

StartChar: k
Encoding: 107 107 281
Width: 1277
VWidth: 0
Flags: HW
PickledData: "(dp1
S'org.robofab.postScriptHintData'
p2
(dp3
sS'com.typemytype.robofont.guides'
p4
((dp5
S'y'
I421
sS'x'
I474
sS'magnetic'
p6
I5
sS'angle'
p7
I0
sS'isGlobal'
p8
I0
stp9
sS'com.typemytype.robofont.layerData'
p10
(dp11
S'b'
(dp12
S'name'
p13
S'k'
sS'lib'
p14
(dp15
sS'unicodes'
p16
(tsS'width'
p17
I1106
sS'contours'
p18
(tsS'components'
p19
(tsS'anchors'
p20
(tsss."
AnchorPoint: "bot" 680 0 basechar 0
AnchorPoint: "top" 881 1015 basechar 0
LayerCount: 2
Fore
SplineSet
876 0 m 1
 1230 0 l 1
 1230 225 l 1
 1083 225 l 1
 912 449 l 1
 1053 584 l 1
 1183 584 l 1
 1183 804 l 1
 634 804 l 1
 634 584 l 1
 780 584 l 1
 561 412 l 1
 876 0 l 1
43 0 m 1
 641 0 l 1
 641 224 l 1
 520 224 l 1
 520 1174 l 1
 42 1174 l 1
 42 950 l 1
 168 950 l 1
 168 224 l 1
 43 224 l 1
 43 0 l 1
EndSplineSet
EndChar

StartChar: kcommaaccent
Encoding: 311 311 282
Width: 1277
VWidth: 0
Flags: HW
PickledData: "(dp1
S'org.robofab.postScriptHintData'
p2
(dp3
sS'com.typemytype.robofont.layerData'
p4
(dp5
S'b'
(dp6
S'name'
p7
S'kcommaaccent'
p8
sS'lib'
p9
(dp10
sS'unicodes'
p11
(tsS'width'
p12
I1172
sS'contours'
p13
(tsS'components'
p14
(tsS'anchors'
p15
(tsss."
LayerCount: 2
Fore
SplineSet
472 -695 m 257
 741 -695 852 -607 852 -441 c 258
 852 -129 l 257
 472 -129 l 257
 472 -364 l 257
 589 -364 l 257
 589 -465.731468214 583.367732449 -511.140260918 482.063664193 -511.140260918 c 0
 478.808864347 -511.140260918 475.455305031 -511.093386622 472 -511 c 257
 472 -695 l 257
EndSplineSet
Refer: 281 107 N 1 0 0 1 0 0 2
EndChar

StartChar: kgreenlandic
Encoding: 312 312 283
Width: 1364
VWidth: 0
Flags: HW
PickledData: "(dp1
S'org.robofab.postScriptHintData'
p2
(dp3
sS'com.typemytype.robofont.layerData'
p4
(dp5
S'b'
(dp6
S'name'
p7
S'kgreenlandic'
p8
sS'lib'
p9
(dp10
sS'unicodes'
p11
(tsS'width'
p12
I1129
sS'contours'
p13
(tsS'components'
p14
(tsS'anchors'
p15
(tsss."
LayerCount: 2
Fore
SplineSet
148 0 m 257
 772 0 l 257
 772 225 l 257
 645 225 l 257
 645 364 l 257
 905 225 l 257
 882 225 l 257
 882 0 l 257
 1409 0 l 257
 1409 225 l 257
 1252 225 l 257
 971 383 l 257
 1228 584 l 257
 1382 584 l 257
 1382 804 l 257
 765 804 l 257
 765 584 l 257
 878 584 l 257
 645 372 l 257
 645 804 l 257
 144 804 l 257
 144 584 l 257
 292 584 l 257
 292 225 l 257
 148 225 l 257
 148 0 l 257
EndSplineSet
EndChar

StartChar: l
Encoding: 108 108 284
Width: 694
VWidth: 0
Flags: HW
PickledData: "(dp1
S'org.robofab.postScriptHintData'
p2
(dp3
sS'com.typemytype.robofont.layerData'
p4
(dp5
S'b'
(dp6
S'name'
p7
S'l'
sS'lib'
p8
(dp9
sS'unicodes'
p10
(tsS'width'
p11
I603
sS'contours'
p12
(tsS'components'
p13
(tsS'anchors'
p14
(tsss."
AnchorPoint: "bot" 360 0 basechar 0
AnchorPoint: "caron.alt" 447 936 basechar 0
AnchorPoint: "top" 337 1152 basechar 0
LayerCount: 2
Fore
SplineSet
52 0 m 1
 650 0 l 1
 650 224 l 1
 529 224 l 1
 529 1174 l 1
 51 1174 l 1
 51 950 l 1
 177 950 l 1
 177 224 l 1
 52 224 l 1
 52 0 l 1
EndSplineSet
EndChar

StartChar: lcommaaccent
Encoding: 316 316 287
Width: 694
VWidth: 0
Flags: HW
PickledData: "(dp1
S'org.robofab.postScriptHintData'
p2
(dp3
sS'com.typemytype.robofont.layerData'
p4
(dp5
S'b'
(dp6
S'name'
p7
S'lcommaaccent'
p8
sS'lib'
p9
(dp10
sS'unicodes'
p11
(tsS'width'
p12
I689
sS'contours'
p13
(tsS'components'
p14
(tsS'anchors'
p15
(tsss."
LayerCount: 2
Fore
SplineSet
151 -695 m 257
 420 -695 531 -607 531 -441 c 258
 531 -129 l 257
 151 -129 l 257
 151 -364 l 257
 268 -364 l 257
 268 -465.731468214 262.367732449 -511.140260918 161.063664193 -511.140260918 c 0
 157.808864347 -511.140260918 154.455305031 -511.093386622 151 -511 c 257
 151 -695 l 257
EndSplineSet
Refer: 284 108 N 1 0 0 1 0 0 2
EndChar

StartChar: less
Encoding: 60 60 289
Width: 1300
VWidth: 0
Flags: HW
PickledData: "(dp1
S'org.robofab.postScriptHintData'
p2
(dp3
sS'com.typemytype.robofont.layerData'
p4
(dp5
S'b'
(dp6
S'name'
p7
S'less'
p8
sS'lib'
p9
(dp10
sS'unicodes'
p11
(tsS'width'
p12
I1077
sS'contours'
p13
(tsS'components'
p14
(tsS'anchors'
p15
(tsss."
LayerCount: 2
Fore
SplineSet
1057 15 m 257
 1057 306 l 257
 354 585 l 257
 1057 878 l 257
 1057 1164 l 257
 109 752 l 257
 109 402 l 257
 1057 15 l 257
EndSplineSet
EndChar

StartChar: lessequal
Encoding: 8804 8804 290
Width: 1112
VWidth: 0
Flags: HW
PickledData: "(dp1
S'org.robofab.postScriptHintData'
p2
(dp3
sS'com.typemytype.robofont.layerData'
p4
(dp5
S'b'
(dp6
S'name'
p7
S'lessequal'
p8
sS'lib'
p9
(dp10
sS'unicodes'
p11
(tsS'width'
p12
I1034
sS'contours'
p13
(tsS'components'
p14
(tsS'anchors'
p15
(tsss."
LayerCount: 2
Fore
SplineSet
993 292 m 257
 993 538 l 257
 427 731 l 257
 993 931 l 257
 993 1174 l 257
 114 794 l 257
 114 670 l 257
 993 292 l 257
114 0 m 257
 993 0 l 257
 993 225 l 257
 114 225 l 257
 114 0 l 257
EndSplineSet
EndChar

StartChar: logicalnot
Encoding: 172 172 292
Width: 1152
VWidth: 0
Flags: HW
PickledData: "(dp1
S'org.robofab.postScriptHintData'
p2
(dp3
sS'com.typemytype.robofont.layerData'
p4
(dp5
S'b'
(dp6
S'name'
p7
S'logicalnot'
p8
sS'lib'
p9
(dp10
sS'unicodes'
p11
(tsS'width'
p12
I1122
sS'contours'
p13
(tsS'components'
p14
(tsS'anchors'
p15
(tsss."
LayerCount: 2
Fore
SplineSet
788 271 m 257
 989 271 l 257
 989 792 l 257
 208 792 l 257
 208 573 l 257
 788 573 l 257
 788 271 l 257
EndSplineSet
EndChar

StartChar: lozenge
Encoding: 9674 9674 293
Width: 1136
VWidth: 0
Flags: HW
PickledData: "(dp1
S'org.robofab.postScriptHintData'
p2
(dp3
sS'com.typemytype.robofont.layerData'
p4
(dp5
S'b'
(dp6
S'name'
p7
S'lozenge'
p8
sS'lib'
p9
(dp10
sS'unicodes'
p11
(tsS'width'
p12
I1136
sS'contours'
p13
(tsS'components'
p14
(tsS'anchors'
p15
(tsss."
LayerCount: 2
Fore
SplineSet
521 0 m 257
 615 0 l 257
 1094 638 l 257
 615 1282 l 257
 521 1282 l 257
 42 638 l 257
 521 0 l 257
570 208 m 257
 260 638 l 257
 570 1065 l 257
 876 638 l 257
 570 208 l 257
EndSplineSet
EndChar

StartChar: lslash
Encoding: 322 322 294
Width: 579
VWidth: 0
Flags: HW
PickledData: "(dp1
S'org.robofab.postScriptHintData'
p2
(dp3
sS'com.typemytype.robofont.layerData'
p4
(dp5
S'b'
(dp6
S'name'
p7
S'lslash'
p8
sS'lib'
p9
(dp10
sS'unicodes'
p11
(tsS'width'
p12
I709
sS'contours'
p13
(tsS'components'
p14
(tsS'anchors'
p15
(tsss."
LayerCount: 2
Fore
SplineSet
6 372 m 257
 642 720 l 257
 642 987 l 257
 6 632 l 257
 6 372 l 257
EndSplineSet
Refer: 284 108 N 1 0 0 1 0 0 2
EndChar

StartChar: m
Encoding: 109 109 295
Width: 2046
VWidth: 0
Flags: HW
PickledData: "(dp1
S'org.robofab.postScriptHintData'
p2
(dp3
sS'com.typemytype.robofont.layerData'
p4
(dp5
S'b'
(dp6
S'name'
p7
S'm'
sS'lib'
p8
(dp9
sS'unicodes'
p10
(tsS'width'
p11
I1630
sS'contours'
p12
(tsS'components'
p13
(tsS'anchors'
p14
(tsss."
AnchorPoint: "top" 1043 804 basechar 0
LayerCount: 2
Fore
SplineSet
42.9443359375 0 m 1
 646.48046875 0 l 1
 646.48046875 224 l 1
 542.49609375 224 l 1
 542.49609375 536.711372399 l 1
 591.278865606 562.556075153 639.569277675 573.013349051 690.180223781 573.013349051 c 0
 691.225921122 573.013349051 692.272609091 573.008884872 693.3203125 573 c 0
 767.288085938 573 821.959960938 536 821.959960938 435 c 2
 821.959960938 224 l 1
 722.263671875 224 l 1
 722.263671875 0 l 1
 1340.80761719 0 l 1
 1340.80761719 224 l 1
 1199.30371094 224 l 1
 1199.30371094 472 l 2
 1199.59012787 488.431238897 1199.2643712 504.246805668 1198.35391332 519.455640074 c 1
 1257.19131612 557.990482148 1314.51893615 573.013349052 1375.18022367 573.013349052 c 0
 1376.22592105 573.013349052 1377.27260906 573.008884873 1378.3203125 573 c 0
 1452.28808594 573 1506.95996094 536 1506.95996094 435 c 2
 1506.95996094 224 l 1
 1407.26367188 224 l 1
 1407.26367188 0 l 1
 2025.80761719 0 l 1
 2025.80761719 224 l 1
 1884.30371094 224 l 1
 1884.30371094 472 l 2
 1884.37106916 475.8642234 1884.4045696 479.694395529 1884.4045696 483.490632667 c 0
 1884.4045696 721.366327823 1752.86875008 826 1577.71191406 826 c 0
 1431.31246812 826 1302.44920308 770.065612104 1173.86343775 643.630741468 c 1
 1127.43272278 769.040389248 1021.94534203 826 892.711914062 826 c 0
 766.64305956 826 653.57804946 784.522207267 542.49609375 692.265223235 c 1
 542.49609375 804 l 1
 54.736328125 804 l 1
 54.736328125 580 l 1
 165.15234375 580 l 1
 165.15234375 224 l 1
 42.9443359375 224 l 1
 42.9443359375 0 l 1
EndSplineSet
EndChar

StartChar: macron
Encoding: 175 175 296
Width: 806
VWidth: 0
Flags: HW
PickledData: "(dp1
S'org.robofab.postScriptHintData'
p2
(dp3
sS'com.typemytype.robofont.layerData'
p4
(dp5
S'b'
(dp6
S'name'
p7
S'macron'
p8
sS'lib'
p9
(dp10
sS'unicodes'
p11
(tsS'width'
p12
I390
sS'contours'
p13
(tsS'components'
p14
(tsS'anchors'
p15
(tsss."
AnchorPoint: "top" 409 804 mark 0
LayerCount: 2
Fore
SplineSet
127 977 m 257
 680 977 l 257
 680 1125 l 257
 127 1125 l 257
 127 977 l 257
EndSplineSet
EndChar

StartChar: minus
Encoding: 8722 8722 298
Width: 918
VWidth: 0
Flags: HW
PickledData: "(dp1
S'org.robofab.postScriptHintData'
p2
(dp3
sS'com.typemytype.robofont.layerData'
p4
(dp5
S'b'
(dp6
S'name'
p7
S'minus'
p8
sS'lib'
p9
(dp10
sS'unicodes'
p11
(tsS'width'
p12
I930
sS'contours'
p13
(tsS'components'
p14
(tsS'anchors'
p15
(tsss."
LayerCount: 2
Fore
SplineSet
41 365 m 257
 877 365 l 257
 877 584 l 257
 41 584 l 257
 41 365 l 257
EndSplineSet
EndChar

StartChar: mu
Encoding: 956 956 299
Width: 1262
VWidth: 0
Flags: HW
PickledData: "(dp1
S'org.robofab.postScriptHintData'
p2
(dp3
s."
LayerCount: 2
Fore
SplineSet
129 -262 m 257
 481 -262 l 257
 481 418 l 257
 129 418 l 257
 129 -262 l 257
EndSplineSet
Refer: 392 117 N 1 0 0 1 0 0 2
EndChar

StartChar: multiply
Encoding: 215 215 300
Width: 1091
VWidth: 0
Flags: HW
PickledData: "(dp1
S'org.robofab.postScriptHintData'
p2
(dp3
sS'com.typemytype.robofont.layerData'
p4
(dp5
S'b'
(dp6
S'name'
p7
S'multiply'
p8
sS'lib'
p9
(dp10
sS'unicodes'
p11
(tsS'width'
p12
I929
sS'contours'
p13
(tsS'components'
p14
(tsS'anchors'
p15
(tsss."
LayerCount: 2
Fore
SplineSet
295 90 m 257
 544 333 l 257
 790 93 l 257
 947 251 l 257
 704 491 l 257
 952 736 l 257
 798 891 l 257
 547 647 l 257
 302 888 l 257
 143 730 l 257
 388 488 l 257
 138 244 l 257
 295 90 l 257
EndSplineSet
EndChar

StartChar: n
Encoding: 110 110 301
Width: 1298
VWidth: 0
Flags: HW
PickledData: "(dp1
S'org.robofab.postScriptHintData'
p2
(dp3
sS'com.typemytype.robofont.layerData'
p4
(dp5
S'b'
(dp6
S'name'
p7
S'n'
sS'lib'
p8
(dp9
sS'unicodes'
p10
(tsS'width'
p11
I1085
sS'contours'
p12
(tsS'components'
p13
(tsS'anchors'
p14
(tsss."
AnchorPoint: "bot" 674 0 basechar 0
AnchorPoint: "top" 650 804 basechar 0
LayerCount: 2
Fore
SplineSet
43 0 m 1
 606 0 l 1
 606 224 l 1
 509 224 l 1
 509 524.167512099 l 1
 561.484937488 559.220729198 612.850244082 573.013349051 667.070810977 573.013349051 c 0
 668.046275457 573.013349051 669.022664083 573.008884872 670 573 c 0
 739 573 790 536 790 435 c 2
 790 224 l 1
 697 224 l 1
 697 0 l 1
 1274 0 l 1
 1274 224 l 1
 1142 224 l 1
 1142 472 l 2
 1142.06283155 475.864140563 1142.09408067 479.694231315 1142.09408067 483.490388527 c 0
 1142.09408067 721.366256231 1019.39249051 826 856 826 c 0
 730.708781191 826 619.186082493 778.920544134 509 673.513719342 c 1
 509 804 l 1
 54 804 l 1
 54 580 l 1
 157 580 l 1
 157 224 l 1
 43 224 l 1
 43 0 l 1
EndSplineSet
EndChar

StartChar: ncommaaccent
Encoding: 326 326 305
Width: 1298
VWidth: 0
Flags: HW
PickledData: "(dp1
S'org.robofab.postScriptHintData'
p2
(dp3
sS'com.typemytype.robofont.layerData'
p4
(dp5
S'b'
(dp6
S'name'
p7
S'ncommaaccent'
p8
sS'lib'
p9
(dp10
sS'unicodes'
p11
(tsS'width'
p12
I1127
sS'contours'
p13
(tsS'components'
p14
(tsS'anchors'
p15
(tsss."
LayerCount: 2
Fore
SplineSet
466 -695 m 257
 735 -695 846 -607 846 -441 c 258
 846 -129 l 257
 466 -129 l 257
 466 -364 l 257
 583 -364 l 257
 583 -465.731468214 577.367732449 -511.140260918 476.063664193 -511.140260918 c 0
 472.808864347 -511.140260918 469.455305031 -511.093386622 466 -511 c 257
 466 -695 l 257
EndSplineSet
Refer: 301 110 N 1 0 0 1 0 0 2
EndChar

StartChar: nine
Encoding: 57 57 306
Width: 1233
VWidth: 0
Flags: HW
PickledData: "(dp1
S'org.robofab.postScriptHintData'
p2
(dp3
sS'com.typemytype.robofont.layerData'
p4
(dp5
S'b'
(dp6
S'name'
p7
S'nine'
p8
sS'lib'
p9
(dp10
sS'unicodes'
p11
(tsS'width'
p12
I988
sS'contours'
p13
(tsS'components'
p14
(tsS'anchors'
p15
(tsss."
LayerCount: 2
Fore
SplineSet
533 -169 m 257
 860 143 l 257
 1088 373 1128 538 1128 714 c 256
 1128 968 989 1174 647 1174 c 256
 370 1174 145 1063 145 730 c 256
 145 530 287 338 569 338 c 256
 652 338 783 388 782 481 c 257
 306 34 l 257
 533 -169 l 257
647 549 m 256
 554 549 498 630 498 728 c 256
 498 876 552 937 645 937 c 256
 734 937 781 878 781 728 c 256
 781 632 742 549 647 549 c 256
EndSplineSet
EndChar

StartChar: notequal
Encoding: 8800 8800 308
Width: 1145
VWidth: 0
Flags: HW
PickledData: "(dp1
S'org.robofab.postScriptHintData'
p2
(dp3
sS'com.typemytype.robofont.layerData'
p4
(dp5
S'b'
(dp6
S'name'
p7
S'notequal'
p8
sS'lib'
p9
(dp10
sS'unicodes'
p11
(tsS'width'
p12
I1145
sS'contours'
p13
(tsS'components'
p14
(tsS'anchors'
p15
(tsss."
LayerCount: 2
Fore
SplineSet
334 0 m 257
 561 0 l 257
 607 185 l 257
 1029 185 l 257
 1029 401 l 257
 664 401 l 257
 702 561 l 257
 1029 561 l 257
 1029 777 l 257
 763 777 l 257
 809 962 l 257
 584 962 l 257
 532 777 l 257
 116 777 l 257
 116 561 l 257
 474 561 l 257
 431 401 l 257
 116 401 l 257
 116 185 l 257
 374 185 l 257
 334 0 l 257
EndSplineSet
EndChar

StartChar: numbersign
Encoding: 35 35 310
Width: 1360
VWidth: 0
Flags: HW
PickledData: "(dp1
S'org.robofab.postScriptHintData'
p2
(dp3
sS'com.typemytype.robofont.layerData'
p4
(dp5
S'b'
(dp6
S'name'
p7
S'numbersign'
p8
sS'lib'
p9
(dp10
sS'unicodes'
p11
(tsS'width'
p12
I1226
sS'contours'
p13
(tsS'components'
p14
(tsS'anchors'
p15
(tsss."
LayerCount: 2
Fore
SplineSet
223 2 m 257
 461 2 l 257
 528 277 l 257
 694 277 l 257
 628 2 l 257
 865 2 l 257
 932 277 l 257
 1159 277 l 257
 1199 459 l 257
 974 459 l 257
 1034 709 l 257
 1277 709 l 257
 1317 891 l 257
 1076 891 l 257
 1135 1135 l 257
 895 1135 l 257
 837 891 l 257
 671 891 l 257
 731 1135 l 257
 491 1135 l 257
 432 891 l 257
 223 891 l 257
 183 709 l 257
 391 709 l 257
 331 459 l 257
 106 459 l 257
 66 277 l 257
 289 277 l 257
 223 2 l 257
570 459 m 257
 630 709 l 257
 795 709 l 257
 735 459 l 257
 570 459 l 257
EndSplineSet
EndChar

StartChar: o
Encoding: 111 111 311
Width: 1073
VWidth: 0
Flags: HW
PickledData: "(dp1
S'org.robofab.postScriptHintData'
p2
(dp3
sS'com.typemytype.robofont.layerData'
p4
(dp5
S'b'
(dp6
S'name'
p7
S'o'
sS'lib'
p8
(dp9
sS'unicodes'
p10
(tsS'width'
p11
I1004
sS'contours'
p12
(tsS'components'
p13
(tsS'anchors'
p14
(tsss."
AnchorPoint: "top" 515 830 basechar 0
LayerCount: 2
Fore
SplineSet
534.142300837 199.965459316 m 0
 452.762659195 199.965459316 400 284.544115764 400 417 c 0
 400 530 454 604 537 604 c 0
 620 604 673 530 673 417 c 0
 673 280.34396195 620.93827788 199.965459316 534.142300837 199.965459316 c 0
537 -22 m 0
 833 -22 1029 153 1029 418 c 0
 1029 664 833 826 536 826 c 0
 240 826 44 664 44 418 c 0
 44 153 240 -22 537 -22 c 0
EndSplineSet
EndChar

StartChar: oe
Encoding: 339 339 316
Width: 1561
VWidth: 0
Flags: HW
PickledData: "(dp1
S'org.robofab.postScriptHintData'
p2
(dp3
sS'com.typemytype.robofont.layerData'
p4
(dp5
S'b'
(dp6
S'name'
p7
S'oe'
p8
sS'lib'
p9
(dp10
sS'unicodes'
p11
(tsS'width'
p12
I1695
sS'contours'
p13
(tsS'components'
p14
(tsS'anchors'
p15
(tsss."
LayerCount: 2
Fore
SplineSet
506 -22 m 256
 697 -22 787 63 822 124 c 257
 852 63 957 -21 1162 -21 c 256
 1298 -21 1426 20 1521 88 c 257
 1443 267 l 257
 1369 231 1281 206 1204 206 c 256
 1112 206 1025 241 1018 356 c 257
 1521 356 l 257
 1521 659 1363 827 1109 827 c 256
 959 827 869 770 821 693 c 257
 763 781 633 826 517 826 c 256
 220 826 34 665 34 419 c 256
 34 152 209 -22 506 -22 c 256
516 202 m 256
 514.629358885 201.949235514 513.265876195 201.923955022 511.909702133 201.923955022 c 0
 433.120827404 201.923955022 379 287.250558868 379 418 c 256
 379 530 435 603 516 603 c 256
 598 603 653 530 653 418 c 256
 653 287.250558868 599.845615942 201.923955022 520.139358867 201.923955022 c 0
 518.767394122 201.923955022 517.38756261 201.949235514 516 202 c 256
1020 511 m 257
 1034 597 1076 645 1126 645 c 256
 1189.98975813 645 1230.75821676 604.577737903 1230.75821676 529.316400702 c 0
 1230.75821676 523.423621705 1230.50828541 517.317261487 1230 511 c 257
 1020 511 l 257
EndSplineSet
EndChar

StartChar: ogonek
Encoding: 731 731 317
Width: 151
VWidth: 0
Flags: HW
PickledData: "(dp1
S'org.robofab.postScriptHintData'
p2
(dp3
sS'com.typemytype.robofont.layerData'
p4
(dp5
S'b'
(dp6
S'name'
p7
S'ogonek'
p8
sS'lib'
p9
(dp10
sS'unicodes'
p11
(tsS'width'
p12
I487
sS'contours'
p13
(tsS'components'
p14
(tsS'anchors'
p15
(tsss."
LayerCount: 2
Fore
SplineSet
159 -423 m 256
 212 -423 267 -410 332 -381 c 257
 332 -231 l 257
 309 -235 285 -238 267 -238 c 256
 182 -238 137 -191 137 -127 c 256
 137 -101 149 -49 192 10 c 257
 80 10 l 257
 3 -67 -34 -157 -34 -235 c 256
 -34 -340 33 -423 159 -423 c 256
EndSplineSet
EndChar

StartChar: one
Encoding: 49 49 321
Width: 1286
VWidth: 0
Flags: HW
PickledData: "(dp1
S'org.robofab.postScriptHintData'
p2
(dp3
sS'com.typemytype.robofont.layerData'
p4
(dp5
S'b'
(dp6
S'name'
p7
S'one'
p8
sS'lib'
p9
(dp10
sS'unicodes'
p11
(tsS'width'
p12
I722
sS'contours'
p13
(tsS'components'
p14
(tsS'anchors'
p15
(tsss."
LayerCount: 2
Fore
SplineSet
254 0 m 257
 1096 0 l 257
 1096 225 l 257
 880 225 l 257
 880 1148 l 257
 256 1086 l 257
 256 866 l 257
 481 910 l 257
 481 225 l 257
 254 225 l 257
 254 0 l 257
EndSplineSet
EndChar

StartChar: onehalf
Encoding: 189 189 322
Width: 2377
VWidth: 0
Flags: HW
PickledData: "(dp1
S'org.robofab.postScriptHintData'
p2
(dp3
sS'com.typemytype.robofont.layerData'
p4
(dp5
S'b'
(dp6
S'name'
p7
S'onehalf'
p8
sS'lib'
p9
(dp10
sS'unicodes'
p11
(tsS'width'
p12
I1910
sS'contours'
p13
(tsS'components'
p14
(tsS'anchors'
p15
(tsss."
LayerCount: 2
Fore
SplineSet
1507 0 m 257
 2182 0 l 257
 2177 270 l 257
 1993 270 l 257
 1990 140 l 257
 1820 140 l 257
 2065 366 l 257
 2164 460 2176 512 2176 579 c 256
 2176 799 1934 834 1815 834 c 256
 1558 834 1476 698 1476 573 c 256
 1476 529 1487 485 1506 446 c 257
 1734 446 l 257
 1725 477 1719 508 1719 536 c 256
 1719 611 1748 662 1813 662 c 256
 1854 662 1903 650 1903 579 c 256
 1902.91577517 577.231278577 1902.88830092 575.405806578 1902.88830092 573.526571384 c 0
 1902.88830092 569.999448902 1902.98508517 566.282933438 1902.98508517 562.396776881 c 0
 1902.98508517 543.770128334 1900.76160339 521.246214958 1875 497 c 258
 1508 161 l 257
 1507 0 l 257
160 336 m 257
 758 336 l 257
 758 496 l 257
 605 496 l 257
 605 1152 l 257
 162 1108 l 257
 162 951 l 257
 321 983 l 257
 321 496 l 257
 160 496 l 257
 160 336 l 257
677 -94 m 257
 843 -94 l 257
 1617 1204 l 257
 1455 1204 l 257
 677 -94 l 257
EndSplineSet
EndChar

StartChar: onequarter
Encoding: 188 188 323
Width: 2296
VWidth: 0
Flags: HW
PickledData: "(dp1
S'org.robofab.postScriptHintData'
p2
(dp3
sS'com.typemytype.robofont.layerData'
p4
(dp5
S'b'
(dp6
S'name'
p7
S'onequarter'
p8
sS'lib'
p9
(dp10
sS'unicodes'
p11
(tsS'width'
p12
I1825
sS'contours'
p13
(tsS'components'
p14
(tsS'anchors'
p15
(tsss."
LayerCount: 2
Fore
SplineSet
1617 0 m 257
 2155 0 l 257
 2155 159 l 257
 2027 159 l 257
 2027 283 l 257
 2143 283 l 257
 2143 414 l 257
 2027 414 l 257
 2027 818 l 257
 1754 818 l 257
 1406 389 l 257
 1427 283 l 257
 1772 283 l 257
 1772 159 l 257
 1617 159 l 257
 1617 0 l 257
160 336 m 257
 758 336 l 257
 758 496 l 257
 605 496 l 257
 605 1152 l 257
 162 1108 l 257
 162 951 l 257
 321 983 l 257
 321 496 l 257
 160 496 l 257
 160 336 l 257
664 -94 m 257
 830 -94 l 257
 1603 1204 l 257
 1442 1204 l 257
 664 -94 l 257
1591 414 m 257
 1772 649 l 257
 1772 414 l 257
 1591 414 l 257
EndSplineSet
EndChar

StartChar: ordfeminine
Encoding: 170 170 325
Width: 1055
VWidth: 0
Flags: HW
PickledData: "(dp1
S'org.robofab.postScriptHintData'
p2
(dp3
sS'com.typemytype.robofont.layerData'
p4
(dp5
S'b'
(dp6
S'name'
p7
S'ordfeminine'
p8
sS'lib'
p9
(dp10
sS'unicodes'
p11
(tsS'width'
p12
I743
sS'contours'
p13
(tsS'components'
p14
(tsS'anchors'
p15
(tsss."
LayerCount: 2
Fore
SplineSet
426 470 m 256
 492 470 575 491 639 531 c 257
 666 487 l 257
 977 487 l 257
 977 677 l 257
 886 677 l 257
 886 901 l 258
 886 1090 724 1174 532 1174 c 256
 412 1174 296 1149 181 1091 c 257
 250 920 l 257
 365 965 434 981 495 981 c 256
 561 981 593 950 593 886 c 258
 593 872 l 257
 569 879 529 884 488 884 c 256
 360 884 183 840 183 691 c 256
 183 536 302 470 426 470 c 256
520 616 m 256
 480 616 446 641 446 681 c 256
 446 738 485 761 532 761 c 256
 547 761 573 756 593 749 c 257
 593 641 l 257
 567 623 540 616 520 616 c 256
EndSplineSet
EndChar

StartChar: ordmasculine
Encoding: 186 186 326
Width: 1079
VWidth: 0
Flags: HW
PickledData: "(dp1
S'org.robofab.postScriptHintData'
p2
(dp3
sS'com.typemytype.robofont.layerData'
p4
(dp5
S'b'
(dp6
S'name'
p7
S'ordmasculine'
p8
sS'lib'
p9
(dp10
sS'unicodes'
p11
(tsS'width'
p12
I813
sS'contours'
p13
(tsS'components'
p14
(tsS'anchors'
p15
(tsss."
LayerCount: 2
Fore
SplineSet
526 653 m 256
 525.051939428 652.972519983 524.108598552 652.958821478 523.170026656 652.958821478 c 0
 455.799185935 652.958821478 413 723.538880929 413 834 c 256
 413 928 457 990 527 990 c 256
 596 990 641 928 641 834 c 256
 641 723.538880929 597.228105294 652.958821478 528.871190775 652.958821478 c 0
 527.918881465 652.958821478 526.96180058 652.972519983 526 653 c 256
527 468 m 256
 774 468 936 614 936 835 c 256
 936 1040 774 1174 526 1174 c 256
 279 1174 116 1040 116 835 c 256
 116 614 279 468 527 468 c 256
EndSplineSet
EndChar

StartChar: oslash
Encoding: 248 248 327
Width: 1078
VWidth: 0
Flags: HW
PickledData: "(dp1
S'org.robofab.postScriptHintData'
p2
(dp3
sS'com.typemytype.robofont.layerData'
p4
(dp5
S'b'
(dp6
S'name'
p7
S'oslash'
p8
sS'lib'
p9
(dp10
sS'unicodes'
p11
(tsS'width'
p12
I1064
sS'contours'
p13
(tsS'components'
p14
(tsS'anchors'
p15
(tsss."
LayerCount: 2
Fore
SplineSet
335 -119 m 257
 852 890 l 257
 758 933 l 257
 241 -76 l 257
 335 -119 l 257
EndSplineSet
Refer: 311 111 N 1 0 0 1 0 0 2
EndChar

StartChar: p
Encoding: 112 112 330
Width: 1178
VWidth: 0
Flags: HW
PickledData: "(dp1
S'org.robofab.postScriptHintData'
p2
(dp3
sS'com.typemytype.robofont.layerData'
p4
(dp5
S'b'
(dp6
S'name'
p7
S'p'
sS'lib'
p8
(dp9
sS'unicodes'
p10
(tsS'width'
p11
I1097
sS'contours'
p12
(tsS'components'
p13
(tsS'anchors'
p14
(tsss."
AnchorPoint: "top" 573 804 basechar 0
LayerCount: 2
Fore
SplineSet
11 -408 m 1
 690 -408 l 1
 690 -184 l 1
 509 -184 l 1
 509.515128749 34.6721540922 l 1
 577.398580338 -2.79355466293 649.338060611 -21 724 -21 c 0
 945 -21 1135 138 1135 422 c 0
 1135 647 1001 826 736 826 c 0
 660.445071613 826 584.685455097 803.279617785 510.29545193 762.932181661 c 1
 510 804 l 1
 11 804 l 1
 11 580 l 1
 157 580 l 1
 157 -184 l 1
 11 -184 l 1
 11 -408 l 1
509.849845627 176.759468665 m 1
 510.84279364 598.265900214 l 1
 529.998794409 601.493253786 548.398947457 603 567 603 c 0
 739 603 765 473 765 400 c 0
 765 263 672 175 541 175 c 0
 531.198031767 175 520.856559783 175.469133697 509.849845627 176.759468665 c 1
EndSplineSet
EndChar

StartChar: paragraph
Encoding: 182 182 331
Width: 1243
VWidth: 0
Flags: HW
PickledData: "(dp1
S'org.robofab.postScriptHintData'
p2
(dp3
sS'com.typemytype.robofont.layerData'
p4
(dp5
S'b'
(dp6
S'name'
p7
S'paragraph'
p8
sS'lib'
p9
(dp10
sS'unicodes'
p11
(tsS'width'
p12
I1096
sS'contours'
p13
(tsS'components'
p14
(tsS'anchors'
p15
(tsss."
LayerCount: 2
Fore
SplineSet
410 0 m 257
 1202 0 l 257
 1202 224 l 257
 1017 224 l 257
 1017 927 l 257
 1204 927 l 257
 1204 1152 l 257
 526 1152 l 258
 67 1152 58 895 58 788 c 256
 58 660.241824553 142.891058184 432.828928629 403.082109166 432.828928629 c 0
 413.757557799 432.828928629 424.728106601 433.211755706 436 434 c 258
 689 434 l 257
 689 224 l 257
 410 224 l 257
 410 0 l 257
488 637 m 257
 488 927 l 257
 689 927 l 257
 689 641 l 257
 488 637 l 257
EndSplineSet
EndChar

StartChar: parenleft
Encoding: 40 40 332
Width: 840
VWidth: 0
Flags: HW
PickledData: "(dp1
S'org.robofab.postScriptHintData'
p2
(dp3
sS'com.typemytype.robofont.layerData'
p4
(dp5
S'b'
(dp6
S'name'
p7
S'parenleft'
p8
sS'lib'
p9
(dp10
sS'unicodes'
p11
(tsS'width'
p12
I595
sS'contours'
p13
(tsS'components'
p14
(tsS'anchors'
p15
(tsss."
LayerCount: 2
Fore
SplineSet
684 -158 m 257
 678 44 l 257
 560 181 497 344 497 509 c 256
 497 673 560 837 678 978 c 257
 684 1169 l 257
 314 964 123 732 123 503 c 256
 123 281 310 55 684 -158 c 257
EndSplineSet
EndChar

StartChar: parenright
Encoding: 41 41 333
Width: 840
VWidth: 0
Flags: HW
PickledData: "(dp1
S'org.robofab.postScriptHintData'
p2
(dp3
sS'com.typemytype.robofont.layerData'
p4
(dp5
S'b'
(dp6
S'name'
p7
S'parenright'
p8
sS'lib'
p9
(dp10
sS'unicodes'
p11
(tsS'width'
p12
I595
sS'contours'
p13
(tsS'components'
p14
(tsS'anchors'
p15
(tsss."
LayerCount: 2
Fore
SplineSet
184 -158 m 257
 558 55 746 281 746 503 c 256
 746 732 555 964 184 1169 c 257
 191 978 l 257
 309 837 371 673 371 509 c 256
 371 344 309 181 191 44 c 257
 184 -158 l 257
EndSplineSet
EndChar

StartChar: partialdiff
Encoding: 8706 8706 334
Width: 984
VWidth: 0
Flags: HW
PickledData: "(dp1
S'org.robofab.postScriptHintData'
p2
(dp3
sS'com.typemytype.robofont.layerData'
p4
(dp5
S'b'
(dp6
S'name'
p7
S'partialdiff'
p8
sS'lib'
p9
(dp10
sS'unicodes'
p11
(tsS'width'
p12
I1006
sS'contours'
p13
(tsS'components'
p14
(tsS'anchors'
p15
(tsss."
LayerCount: 2
Fore
SplineSet
401 -23 m 256
 829 -23 960 441 960 744 c 256
 960 1032 815 1246 496 1246 c 256
 287 1246 165 1153 165 1041 c 256
 165 977.837719412 226.703859724 927.441754629 389.533116198 927.441754629 c 0
 420.050175307 927.441754629 454.119297882 929.211929788 492 933 c 257
 491.251794104 940.565192945 490.89061877 947.909225569 490.89061877 955.016584735 c 0
 490.89061877 1033.40204629 534.821771327 1083 588 1083 c 256
 649 1083 714 1059 719 709 c 257
 825 708 l 257
 782 768 686 813 561 813 c 256
 174 813 39 480 39 300 c 256
 39 147 125 -23 401 -23 c 256
472 168 m 256
 438 168 418 211 417 288 c 256
 417 426 493 654 596 654 c 256
 621 654 679 645 712 565 c 257
 668 268 545 168 472 168 c 256
EndSplineSet
EndChar

StartChar: percent
Encoding: 37 37 336
Width: 2129
VWidth: 0
Flags: HW
PickledData: "(dp1
S'org.robofab.postScriptHintData'
p2
(dp3
sS'com.typemytype.robofont.layerData'
p4
(dp5
S'b'
(dp6
S'name'
p7
S'percent'
p8
sS'lib'
p9
(dp10
sS'unicodes'
p11
(tsS'width'
p12
I1741
sS'contours'
p13
(tsS'components'
p14
(tsS'anchors'
p15
(tsss."
LayerCount: 2
Fore
SplineSet
493 718 m 257
 428 721 394 774 394 867 c 256
 394 959 428 1010 493 1014 c 257
 559 1010 594 959 594 867 c 256
 594 774 559 721 493 718 c 257
493 556 m 256
 692 556 823 679 823 867 c 256
 823 1052 692 1173 493 1173 c 256
 294 1173 165 1052 165 867 c 256
 165 679 294 556 493 556 c 256
698 -130 m 257
 1659 1169 l 257
 1463 1309 l 257
 497 17 l 257
 698 -130 l 257
1631 140 m 257
 1566 143 1532 196 1532 289 c 256
 1532 380 1566 432 1631 435 c 257
 1697 432 1732 380 1732 289 c 256
 1732 196 1697 143 1631 140 c 257
1631 -22 m 256
 1830 -22 1961 101 1961 289 c 256
 1961 474 1830 595 1631 595 c 256
 1433 595 1303 474 1303 289 c 256
 1303 101 1433 -22 1631 -22 c 256
EndSplineSet
EndChar

StartChar: period
Encoding: 46 46 337
Width: 1020
VWidth: 0
Flags: HW
PickledData: "(dp1
S'org.robofab.postScriptHintData'
p2
(dp3
sS'com.typemytype.robofont.layerData'
p4
(dp5
S'b'
(dp6
S'name'
p7
S'period'
p8
sS'lib'
p9
(dp10
sS'unicodes'
p11
(tsS'width'
p12
I553
sS'contours'
p13
(tsS'components'
p14
(tsS'anchors'
p15
(tsss."
LayerCount: 2
Fore
SplineSet
382 0 m 257
 696 0 l 257
 696 329 l 257
 382 329 l 257
 382 0 l 257
EndSplineSet
EndChar

StartChar: periodcentered
Encoding: 183 183 338
Width: 1112
VWidth: 0
Flags: HW
PickledData: "(dp1
S'org.robofab.postScriptHintData'
p2
(dp3
sS'com.typemytype.robofont.layerData'
p4
(dp5
S'b'
(dp6
S'name'
p7
S'periodcentered'
p8
sS'lib'
p9
(dp10
sS'unicodes'
p11
(tsS'width'
p12
I574
sS'contours'
p13
(tsS'components'
p14
(tsS'anchors'
p15
(tsss."
LayerCount: 2
Fore
SplineSet
462 422 m 257
 725 422 l 257
 725 669 l 257
 462 669 l 257
 462 422 l 257
EndSplineSet
EndChar

StartChar: perthousand
Encoding: 8240 8240 339
Width: 2915
VWidth: 0
Flags: HW
PickledData: "(dp1
S'org.robofab.postScriptHintData'
p2
(dp3
s."
LayerCount: 2
Fore
SplineSet
2418 140 m 257
 2353 143 2319 196 2319 289 c 256
 2319 380 2353 432 2418 435 c 257
 2484 432 2519 380 2519 289 c 256
 2519 196 2484 143 2418 140 c 257
2418 -22 m 256
 2617 -22 2748 101 2748 289 c 256
 2748 474 2617 595 2418 595 c 256
 2219 595 2090 474 2090 289 c 256
 2090 101 2219 -22 2418 -22 c 256
EndSplineSet
Refer: 336 37 N 1 0 0 1 0 0 2
EndChar

StartChar: pi
Encoding: 960 960 340
Width: 1357
VWidth: 0
Flags: HW
PickledData: "(dp1
S'org.robofab.postScriptHintData'
p2
(dp3
sS'com.typemytype.robofont.layerData'
p4
(dp5
S'b'
(dp6
S'name'
p7
S'pi'
p8
sS'lib'
p9
(dp10
sS'unicodes'
p11
(tsS'width'
p12
I1187
sS'contours'
p13
(tsS'components'
p14
(tsS'anchors'
p15
(tsss."
LayerCount: 2
Fore
SplineSet
1004 -23 m 256
 1094 -23 1183 15 1207 49 c 257
 1207 201 l 257
 1138 174 1101 164 1069 164 c 256
 1034 164 1011 181 1011 267 c 256
 1011 348 1016 432 1028 576 c 257
 1194 576 l 257
 1194 804 l 257
 417 804 l 258
 187.416485232 804 103.861296562 648.427338863 103.861296562 487.404033393 c 0
 103.861296562 483.605065697 103.907804507 479.803064099 104 476 c 257
 259 476 l 257
 269 553 321 576 341 576 c 258
 412 576 l 257
 335 336 l 258
 285 177 239 148 133 123 c 257
 133 -5 l 257
 295 -5 l 258
 493 -5 580 89 601 250 c 258
 642 576 l 257
 805 576 l 257
 760 421 722 306 722 202 c 256
 722 79 787 -23 1004 -23 c 256
EndSplineSet
EndChar

StartChar: plus
Encoding: 43 43 341
Width: 994
VWidth: 0
Flags: HW
PickledData: "(dp1
S'org.robofab.postScriptHintData'
p2
(dp3
sS'com.typemytype.robofont.layerData'
p4
(dp5
S'b'
(dp6
S'name'
p7
S'plus'
p8
sS'lib'
p9
(dp10
sS'unicodes'
p11
(tsS'width'
p12
I1035
sS'contours'
p13
(tsS'components'
p14
(tsS'anchors'
p15
(tsss."
LayerCount: 2
Fore
SplineSet
381 218 m 257
 610 218 l 257
 610 464 l 257
 870 464 l 257
 870 661 l 257
 610 661 l 257
 610 915 l 257
 381 915 l 257
 381 661 l 257
 121 661 l 257
 121 464 l 257
 381 464 l 257
 381 218 l 257
EndSplineSet
EndChar

StartChar: plusminus
Encoding: 177 177 342
Width: 1029
VWidth: 0
Flags: HW
PickledData: "(dp1
S'org.robofab.postScriptHintData'
p2
(dp3
sS'com.typemytype.robofont.layerData'
p4
(dp5
S'b'
(dp6
S'name'
p7
S'plusminus'
p8
sS'lib'
p9
(dp10
sS'unicodes'
p11
(tsS'width'
p12
I980
sS'contours'
p13
(tsS'components'
p14
(tsS'anchors'
p15
(tsss."
LayerCount: 2
Fore
SplineSet
399 250 m 257
 630 250 l 257
 630 465 l 257
 866 465 l 257
 866 662 l 257
 630 662 l 257
 630 893 l 257
 399 893 l 257
 399 662 l 257
 163 662 l 257
 163 465 l 257
 399 465 l 257
 399 250 l 257
163 0 m 257
 866 0 l 257
 866 198 l 257
 163 198 l 257
 163 0 l 257
EndSplineSet
EndChar

StartChar: product
Encoding: 8719 8719 343
Width: 1597
VWidth: 0
Flags: HW
PickledData: "(dp1
S'org.robofab.postScriptHintData'
p2
(dp3
sS'com.typemytype.robofont.layerData'
p4
(dp5
S'b'
(dp6
S'name'
p7
S'product'
p8
sS'lib'
p9
(dp10
sS'unicodes'
p11
(tsS'width'
p12
I1477
sS'contours'
p13
(tsS'components'
p14
(tsS'anchors'
p15
(tsss."
LayerCount: 2
Fore
SplineSet
29 0 m 257
 735 0 l 257
 735 224 l 257
 584 224 l 257
 584 928 l 257
 1014 928 l 257
 1014 224 l 257
 864 224 l 257
 864 0 l 257
 1568 0 l 257
 1568 224 l 257
 1427 224 l 257
 1427 928 l 257
 1568 928 l 257
 1568 1152 l 257
 29 1152 l 257
 29 928 l 257
 170 928 l 257
 170 224 l 257
 29 224 l 257
 29 0 l 257
EndSplineSet
EndChar

StartChar: q
Encoding: 113 113 344
Width: 1163
VWidth: 0
Flags: HW
PickledData: "(dp1
S'org.robofab.postScriptHintData'
p2
(dp3
sS'com.typemytype.robofont.layerData'
p4
(dp5
S'b'
(dp6
S'name'
p7
S'q'
sS'lib'
p8
(dp9
sS'unicodes'
p10
(tsS'width'
p11
I1134
sS'contours'
p12
(tsS'components'
p13
(tsS'anchors'
p14
(tsss."
LayerCount: 2
Fore
SplineSet
515 -410 m 1
 1170 -410 l 1
 1170 -188 l 1
 1040 -188 l 1
 1040 580 l 1
 1097 580 l 1
 1097 804 l 1
 687 804 l 1
 688.258097825 745.498451155 l 1
 615.819558125 794.248456137 481.680173898 817.4087669 457 826 c 1
 201 826 42 642 42 380 c 0
 42 142 220 -22 505 -22 c 0
 575.828419263 -22 636.064836827 -3.63301832884 689 27.0489959382 c 1
 689 -188 l 1
 515 -188 l 1
 515 -410 l 1
689 592.913328992 m 1
 689 216.946767724 l 1
 649.549914143 207.308994489 586 202 586 202 c 1
 479 202 412 289 412 408 c 0
 412 537 492 602 616 602 c 0
 638.92196151 602 663.54363271 598.858112392 689 592.913328992 c 1
EndSplineSet
EndChar

StartChar: question
Encoding: 63 63 345
Width: 1240
VWidth: 0
Flags: HW
PickledData: "(dp1
S'org.robofab.postScriptHintData'
p2
(dp3
sS'com.typemytype.robofont.layerData'
p4
(dp5
S'b'
(dp6
S'name'
p7
S'question'
p8
sS'lib'
p9
(dp10
sS'unicodes'
p11
(tsS'width'
p12
I851
sS'contours'
p13
(tsS'components'
p14
(tsS'anchors'
p15
(tsss."
LayerCount: 2
Fore
SplineSet
511 423 m 257
 740 423 l 257
 829 613 1095 621 1095 886 c 256
 1095 1030 1041 1255 642 1255 c 256
 360 1255 143 1130 143 809 c 257
 442 809 l 257
 442 926 499 986 610 986 c 256
 733 986 752 933 752 878 c 256
 752 741 612 781 511 423 c 257
457 0 m 257
 818 0 l 257
 818 285 l 257
 457 285 l 257
 457 0 l 257
EndSplineSet
EndChar

StartChar: quotedbl
Encoding: 34 34 347
Width: 1048
VWidth: 0
Flags: HW
PickledData: "(dp1
S'org.robofab.postScriptHintData'
p2
(dp3
sS'com.typemytype.robofont.layerData'
p4
(dp5
S'b'
(dp6
S'name'
p7
S'quotedbl'
p8
sS'lib'
p9
(dp10
sS'unicodes'
p11
(tsS'width'
p12
I808
sS'contours'
p13
(tsS'components'
p14
(tsS'anchors'
p15
(tsss."
LayerCount: 2
Fore
SplineSet
242 570 m 257
 405 570 l 257
 460 1164 l 257
 180 1164 l 257
 242 570 l 257
638 570 m 257
 801 570 l 257
 856 1164 l 257
 576 1164 l 257
 638 570 l 257
EndSplineSet
EndChar

StartChar: quotedblbase
Encoding: 8222 8222 348
Width: 1142
VWidth: 0
Flags: HW
PickledData: "(dp1
S'org.robofab.postScriptHintData'
p2
(dp3
sS'com.typemytype.robofont.layerData'
p4
(dp5
S'b'
(dp6
S'name'
p7
S'quotedblbase'
p8
sS'lib'
p9
(dp10
sS'unicodes'
p11
(tsS'width'
p12
I898
sS'contours'
p13
(tsS'components'
p14
(tsS'anchors'
p15
(tsss."
LayerCount: 2
Fore
SplineSet
218 -284 m 257
 461 -284 507 -93 507 16 c 258
 507 304 l 257
 173 304 l 257
 173 2 l 257
 336 2 l 257
 336 -108.761695915 312.808783966 -147.166797804 228.007558164 -147.166797804 c 0
 224.762633294 -147.166797804 221.427498086 -147.110564454 218 -147 c 257
 218 -284 l 257
644 -284 m 257
 887 -284 933 -93 933 16 c 258
 933 304 l 257
 599 304 l 257
 599 2 l 257
 762 2 l 257
 762 -108.761695915 738.808783966 -147.166797804 654.007558164 -147.166797804 c 0
 650.762633294 -147.166797804 647.427498086 -147.110564454 644 -147 c 257
 644 -284 l 257
EndSplineSet
EndChar

StartChar: quotedblleft
Encoding: 8220 8220 349
Width: 1152
VWidth: 0
Flags: HW
PickledData: "(dp1
S'org.robofab.postScriptHintData'
p2
(dp3
sS'com.typemytype.robofont.layerData'
p4
(dp5
S'b'
(dp6
S'name'
p7
S'quotedblleft'
p8
sS'lib'
p9
(dp10
sS'unicodes'
p11
(tsS'width'
p12
I844
sS'contours'
p13
(tsS'components'
p14
(tsS'anchors'
p15
(tsss."
LayerCount: 2
Fore
SplineSet
177 575 m 257
 511 575 l 257
 511 876 l 257
 348 876 l 257
 348 986.761695915 371.191216034 1025.1667978 455.992441836 1025.1667978 c 0
 459.237366706 1025.1667978 462.572501914 1025.11056445 466 1025 c 257
 466 1162 l 257
 223 1162 177 972 177 862 c 258
 177 575 l 257
614 575 m 257
 948 575 l 257
 948 876 l 257
 785 876 l 257
 785 986.761695915 808.191216034 1025.1667978 892.098981516 1025.1667978 c 0
 895.309718064 1025.1667978 898.609356732 1025.11056445 902 1025 c 257
 902 1162 l 257
 660 1162 614 972 614 862 c 258
 614 575 l 257
EndSplineSet
EndChar

StartChar: quotedblright
Encoding: 8221 8221 350
Width: 1280
VWidth: 0
Flags: HW
PickledData: "(dp1
S'org.robofab.postScriptHintData'
p2
(dp3
sS'com.typemytype.robofont.layerData'
p4
(dp5
S'b'
(dp6
S'name'
p7
S'quotedblright'
p8
sS'lib'
p9
(dp10
sS'unicodes'
p11
(tsS'width'
p12
I836
sS'contours'
p13
(tsS'components'
p14
(tsS'anchors'
p15
(tsss."
LayerCount: 2
Fore
SplineSet
218 552 m 257
 461 552 507 742 507 852 c 258
 507 1139 l 257
 173 1139 l 257
 173 838 l 257
 335 838 l 257
 335.018941 835.821784962 335.028554202 833.67155332 335.028554202 831.549046853 c 0
 335.028554202 725.742624489 311.139769246 688.833202196 228.007508105 688.833202196 c 0
 224.762633294 688.833202196 221.427498086 688.889435546 218 689 c 257
 218 552 l 257
656 552 m 257
 899 552 945 742 945 852 c 258
 945 1139 l 257
 611 1139 l 257
 611 838 l 257
 774 838 l 257
 774 727.238304085 750.808783966 688.833202196 666.007558164 688.833202196 c 0
 662.762633294 688.833202196 659.427498086 688.889435546 656 689 c 257
 656 552 l 257
EndSplineSet
EndChar

StartChar: quoteleft
Encoding: 8216 8216 351
Width: 721
VWidth: 0
Flags: HW
PickledData: "(dp1
S'org.robofab.postScriptHintData'
p2
(dp3
sS'com.typemytype.robofont.layerData'
p4
(dp5
S'b'
(dp6
S'name'
p7
S'quoteleft'
p8
sS'lib'
p9
(dp10
sS'unicodes'
p11
(tsS'width'
p12
I511
sS'contours'
p13
(tsS'components'
p14
(tsS'anchors'
p15
(tsss."
LayerCount: 2
Fore
SplineSet
182 575 m 257
 516 575 l 257
 516 876 l 257
 353 876 l 257
 353 986.761695915 376.191216034 1025.1667978 460.098981516 1025.1667978 c 0
 463.309718064 1025.1667978 466.609356732 1025.11056445 470 1025 c 257
 470 1162 l 257
 228 1162 182 972 182 862 c 258
 182 575 l 257
EndSplineSet
EndChar

StartChar: quoteright
Encoding: 8217 8217 352
Width: 732
VWidth: 0
Flags: HW
PickledData: "(dp1
S'org.robofab.postScriptHintData'
p2
(dp3
sS'com.typemytype.robofont.layerData'
p4
(dp5
S'b'
(dp6
S'name'
p7
S'quoteright'
p8
sS'lib'
p9
(dp10
sS'unicodes'
p11
(tsS'width'
p12
I511
sS'contours'
p13
(tsS'components'
p14
(tsS'anchors'
p15
(tsss."
LayerCount: 2
Fore
SplineSet
218 552 m 257
 461 552 507 742 507 852 c 258
 507 1139 l 257
 173 1139 l 257
 173 838 l 257
 335 838 l 257
 335.018941 835.821784962 335.028554202 833.67155332 335.028554202 831.549046853 c 0
 335.028554202 725.742624489 311.139769246 688.833202196 228.007508105 688.833202196 c 0
 224.762633294 688.833202196 221.427498086 688.889435546 218 689 c 257
 218 552 l 257
EndSplineSet
EndChar

StartChar: quotesinglbase
Encoding: 8218 8218 353
Width: 722
VWidth: 0
Flags: HW
PickledData: "(dp1
S'org.robofab.postScriptHintData'
p2
(dp3
sS'com.typemytype.robofont.layerData'
p4
(dp5
S'b'
(dp6
S'name'
p7
S'quotesinglbase'
p8
sS'lib'
p9
(dp10
sS'unicodes'
p11
(tsS'width'
p12
I508
sS'contours'
p13
(tsS'components'
p14
(tsS'anchors'
p15
(tsss."
LayerCount: 2
Fore
SplineSet
219 -284 m 257
 462 -284 508 -93 508 16 c 258
 508 304 l 257
 174 304 l 257
 174 2 l 257
 336 2 l 257
 336.018277254 -0.101884254532 336.027534942 -2.17771198288 336.027534942 -4.22771520027 c 0
 336.027534942 -110.205464938 311.286217291 -147.166797804 228.904943139 -147.166797804 c 0
 225.691640213 -147.166797804 222.390643268 -147.110564454 219 -147 c 257
 219 -284 l 257
EndSplineSet
EndChar

StartChar: quotesingle
Encoding: 39 39 354
Width: 688
VWidth: 0
Flags: HW
PickledData: "(dp1
S'org.robofab.postScriptHintData'
p2
(dp3
sS'com.typemytype.robofont.layerData'
p4
(dp5
S'b'
(dp6
S'name'
p7
S'quotesingle'
p8
sS'lib'
p9
(dp10
sS'unicodes'
p11
(tsS'width'
p12
I479
sS'contours'
p13
(tsS'components'
p14
(tsS'anchors'
p15
(tsss."
LayerCount: 2
Fore
SplineSet
242 570 m 257
 405 570 l 257
 460 1164 l 257
 180 1164 l 257
 242 570 l 257
EndSplineSet
EndChar

StartChar: r
Encoding: 114 114 355
Width: 892
VWidth: 0
Flags: HW
PickledData: "(dp1
S'org.robofab.postScriptHintData'
p2
(dp3
sS'com.typemytype.robofont.layerData'
p4
(dp5
S'b'
(dp6
S'name'
p7
S'r'
sS'lib'
p8
(dp9
sS'unicodes'
p10
(tsS'width'
p11
I809
sS'contours'
p12
((dp13
S'points'
p14
((dp15
S'segmentType'
p16
S'line'
p17
sS'x'
I252
sS'smooth'
p18
I0
sS'y'
I449
s(dp19
S'y'
I643
sS'x'
I252
sg18
I0
s(dp20
S'y'
I756
sS'x'
I355
sg18
I0
s(dp21
g16
S'curve'
p22
sS'x'
I484
sg18
I1
sS'y'
I756
s(dp23
S'y'
I756
sS'x'
I528
sg18
I0
s(dp24
S'y'
I742
sS'x'
I565
sg18
I0
s(dp25
g16
S'curve'
p26
sS'x'
I618
sg18
I0
sS'y'
I716
s(dp27
g16
S'line'
p28
sS'x'
I636
sg18
I0
sS'y'
I784
s(dp29
S'y'
I810
sS'x'
I578
sg18
I0
s(dp30
S'y'
I820
sS'x'
I536
sg18
I0
s(dp31
g16
S'curve'
p32
sS'x'
I489
sg18
I1
sS'y'
I820
s(dp33
S'y'
I820
sS'x'
I381
sg18
I0
s(dp34
S'y'
I769
sS'x'
I295
sg18
I0
s(dp35
g16
S'curve'
p36
sS'x'
I230
sg18
I0
sS'y'
I582
stp37
stp38
sS'components'
p39
(tsS'anchors'
p40
(tsss."
AnchorPoint: "bot" 329 0 basechar 0
AnchorPoint: "top" 465 804 basechar 0
LayerCount: 2
Fore
SplineSet
45 0 m 1
 608 0 l 1
 608 224 l 1
 511 224 l 1
 511 442 l 2
 511 517 593 534 656 534 c 0
 721 534 792 511 823 493 c 1
 895 778 l 1
 851 794 802 814 743 814 c 0
 667.798569284 814 578.536576131 774.727394571 511 628.661467753 c 1
 511 804 l 1
 56 804 l 1
 56 580 l 1
 159 580 l 1
 159 224 l 1
 45 224 l 1
 45 0 l 1
EndSplineSet
EndChar

StartChar: radical
Encoding: 8730 8730 357
Width: 1446
VWidth: 0
Flags: HW
PickledData: "(dp1
S'org.robofab.postScriptHintData'
p2
(dp3
sS'com.typemytype.robofont.layerData'
p4
(dp5
S'b'
(dp6
S'name'
p7
S'radical'
p8
sS'lib'
p9
(dp10
sS'unicodes'
p11
(tsS'width'
p12
I1172
sS'contours'
p13
(tsS'components'
p14
(tsS'anchors'
p15
(tsss."
LayerCount: 2
Fore
SplineSet
518 3 m 257
 790 3 l 257
 1396 1260 l 257
 1223 1260 l 257
 707 211 l 257
 614 468 l 257
 204 468 l 257
 204 345 l 257
 370 345 l 257
 518 3 l 257
EndSplineSet
EndChar

StartChar: rcommaaccent
Encoding: 343 343 359
Width: 892
VWidth: 0
Flags: HW
PickledData: "(dp1
S'org.robofab.postScriptHintData'
p2
(dp3
sS'com.typemytype.robofont.layerData'
p4
(dp5
S'b'
(dp6
S'name'
p7
S'rcommaaccent'
p8
sS'lib'
p9
(dp10
sS'unicodes'
p11
(tsS'width'
p12
I895
sS'contours'
p13
(tsS'components'
p14
(tsS'anchors'
p15
(tsss."
LayerCount: 2
Fore
SplineSet
121 -695 m 257
 390 -695 501 -607 501 -441 c 258
 501 -129 l 257
 121 -129 l 257
 121 -364 l 257
 238 -364 l 257
 238 -465.731468214 232.367732449 -511.140260918 131.063664193 -511.140260918 c 0
 127.808864347 -511.140260918 124.455305031 -511.093386622 121 -511 c 257
 121 -695 l 257
EndSplineSet
Refer: 355 114 N 1 0 0 1 0 0 2
EndChar

StartChar: registered
Encoding: 174 174 360
Width: 1538
VWidth: 0
Flags: HW
PickledData: "(dp1
S'org.robofab.postScriptHintData'
p2
(dp3
sS'com.typemytype.robofont.layerData'
p4
(dp5
S'b'
(dp6
S'name'
p7
S'registered'
p8
sS'lib'
p9
(dp10
sS'unicodes'
p11
(tsS'width'
p12
I1538
sS'contours'
p13
(tsS'components'
p14
(tsS'anchors'
p15
(tsss."
LayerCount: 2
Fore
SplineSet
490 307 m 257
 772 307 l 257
 772 381 l 257
 690 381 l 257
 690 594 l 257
 772 594 l 257
 924 307 l 257
 1090 307 l 257
 1090 381 l 257
 1002 381 l 257
 877 607 l 257
 960 628 1015 693 1015 770 c 256
 1015 869 928 935 798 935 c 258
 490 935 l 257
 490 861 l 257
 577 861 l 257
 577 381 l 257
 490 381 l 257
 490 307 l 257
690 672 m 257
 690 861 l 257
 799 861 l 258
 861 861 903 824 903 768 c 256
 903 710 859 672 792 672 c 258
 690 672 l 257
767 103 m 256
 483 103 282 309 282 600 c 256
 282 896 483 1106 767 1106 c 256
 1053 1106 1255 896 1255 600 c 256
 1255 309 1053 103 767 103 c 256
767 -22 m 256
 1147 -22 1415 237 1415 603 c 256
 1415 970 1147 1230 767 1230 c 256
 390 1230 123 970 123 603 c 256
 123 237 390 -22 767 -22 c 256
EndSplineSet
EndChar

StartChar: ring
Encoding: 730 730 361
Width: 615
VWidth: 0
Flags: HW
PickledData: "(dp1
S'org.robofab.postScriptHintData'
p2
(dp3
sS'com.typemytype.robofont.layerData'
p4
(dp5
S'b'
(dp6
S'name'
p7
S'ring'
p8
sS'lib'
p9
(dp10
sS'unicodes'
p11
(tsS'width'
p12
I499
sS'contours'
p13
(tsS'components'
p14
(tsS'anchors'
p15
(tsss."
AnchorPoint: "top" 304 804 mark 0
LayerCount: 2
Fore
SplineSet
308 1034 m 256
 252 1034 219 1067 219 1127 c 256
 219 1187 252 1220 308 1220 c 256
 364 1220 397 1187 397 1127 c 256
 397 1067 364 1034 308 1034 c 256
308 932 m 256
 434 934 509 1003 509 1127 c 256
 509 1251 433 1320 308 1323 c 257
 182 1320 107 1251 107 1127 c 256
 107 1003 182 934 308 932 c 256
EndSplineSet
EndChar

StartChar: s
Encoding: 115 115 362
Width: 951
VWidth: 0
Flags: HW
PickledData: "(dp1
S'org.robofab.postScriptHintData'
p2
(dp3
sS'com.typemytype.robofont.layerData'
p4
(dp5
S'b'
(dp6
S'name'
p7
S's'
sS'lib'
p8
(dp9
sS'unicodes'
p10
(tsS'width'
p11
F912.99599999999998
sS'contours'
p12
(tsS'components'
p13
(tsS'anchors'
p14
(tsss."
AnchorPoint: "bot" 558 0 basechar 0
AnchorPoint: "top" 415 804 basechar 0
LayerCount: 2
Fore
SplineSet
561 -22 m 0
 695.599882996 -22 863.004443115 19.7514072484 863.004443115 241.021964205 c 0
 863.004443115 385.295637274 775.645329654 425.125177769 674 461 c 2
 534 510 l 2
 470 533 429 543 429 584 c 0
 429 616 453 629 501 629 c 0
 547 629 631 602 660 579 c 1
 675 497 l 1
 864 497 l 1
 864 826 l 1
 658 826 l 1
 658 749 l 1
 611.537726251 783.599565558 559.211958935 826 416.974761295 826 c 0
 415.328594009 826 413.670383674 826 412 826 c 0
 304 826 79 778 79 587 c 0
 79 485 135 385 243 347 c 1
 452 278 l 1
 501 260 532 244 532 212 c 0
 532 193 526 176 475 176 c 0
 402 176 286 216 259 259 c 1
 257 300 l 1
 82 300 l 1
 82 0 l 1
 276 0 l 1
 276 85 l 1
 304 20 456 -22 561 -22 c 0
EndSplineSet
EndChar

StartChar: scommaaccent
Encoding: 537 537 368
Width: 951
VWidth: 0
Flags: HW
PickledData: "(dp1
S'org.robofab.postScriptHintData'
p2
(dp3
sS'com.typemytype.robofont.layerData'
p4
(dp5
S'b'
(dp6
S'name'
p7
S'scommaaccent'
p8
sS'lib'
p9
(dp10
sS'unicodes'
p11
(tsS'width'
p12
I913
sS'contours'
p13
(tsS'components'
p14
(tsS'anchors'
p15
(tsss."
LayerCount: 2
Fore
SplineSet
349 -695 m 257
 618 -695 729 -607 729 -441 c 258
 729 -129 l 257
 349 -129 l 257
 349 -364 l 257
 466 -364 l 257
 466 -465.731468214 460.367732449 -511.140260918 359.063664193 -511.140260918 c 0
 355.808864347 -511.140260918 352.455305031 -511.093386622 349 -511 c 257
 349 -695 l 257
EndSplineSet
Refer: 362 115 N 1 0 0 1 0 0 2
EndChar

StartChar: section
Encoding: 167 167 370
Width: 944
VWidth: 0
Flags: HW
PickledData: "(dp1
S'org.robofab.postScriptHintData'
p2
(dp3
sS'com.typemytype.robofont.layerData'
p4
(dp5
S'b'
(dp6
S'name'
p7
S'section'
p8
sS'lib'
p9
(dp10
sS'unicodes'
p11
(tsS'width'
p12
I891
sS'contours'
p13
(tsS'components'
p14
(tsS'anchors'
p15
(tsss."
LayerCount: 2
Fore
SplineSet
452 -185 m 256
 670 -185 782 -64 782 110 c 256
 782 174 760 239 724 285 c 257
 782 321 829 399 829 478 c 256
 829 619 732 697 502 808 c 256
 378 866 306 898 306 1001 c 256
 306 1100 366 1155 458 1155 c 256
 574 1155 603 1037 603 941 c 257
 703 941 758 991 758 1058 c 256
 758 1166 658 1245 466 1245 c 256
 278 1245 142 1149 142 982 c 256
 142 892 175 826 213 786 c 257
 150 754 106 691 106 618 c 256
 106 489 177 399 359 310 c 256
 602 190 641 152 641 62 c 256
 641 -34 579 -97 474 -97 c 256
 346 -97 280 10 280 154 c 257
 194 154 134 110 134 25 c 256
 134 -74 206 -185 452 -185 c 256
647 350 m 257
 604 379 554 407 483 442 c 256
 308 529 252 569 252 660 c 256
 252 688 262 714 278 732 c 257
 331 695 396 666 469 630 c 256
 629 552 669 494 669 421 c 256
 669 391 659 367 647 350 c 257
EndSplineSet
EndChar

StartChar: semicolon
Encoding: 59 59 371
Width: 872
VWidth: 0
Flags: HW
PickledData: "(dp1
S'org.robofab.postScriptHintData'
p2
(dp3
sS'com.typemytype.robofont.layerData'
p4
(dp5
S'b'
(dp6
S'name'
p7
S'semicolon'
p8
sS'lib'
p9
(dp10
sS'unicodes'
p11
(tsS'width'
p12
I519
sS'contours'
p13
(tsS'components'
p14
(tsS'anchors'
p15
(tsss."
LayerCount: 2
Fore
SplineSet
296 -297 m 257
 584 -297 673 -246 673 45 c 256
 673 158 664 255 653 342 c 257
 285 342 l 257
 290 -16 l 257
 486 -16 l 257
 486 -136 410 -181 296 -188 c 257
 296 -297 l 257
288 662 m 257
 632 662 l 257
 632 1021 l 257
 288 1021 l 257
 288 662 l 257
EndSplineSet
EndChar

StartChar: seven
Encoding: 55 55 372
Width: 1231
VWidth: 0
Flags: HW
PickledData: "(dp1
S'org.robofab.postScriptHintData'
p2
(dp3
sS'com.typemytype.robofont.layerData'
p4
(dp5
S'b'
(dp6
S'name'
p7
S'seven'
p8
sS'lib'
p9
(dp10
sS'unicodes'
p11
(tsS'width'
p12
I997
sS'contours'
p13
(tsS'components'
p14
(tsS'anchors'
p15
(tsss."
LayerCount: 2
Fore
SplineSet
284 0 m 257
 740 0 l 257
 740 0 911 464 1116 843 c 257
 1116 1152 l 257
 132 1152 l 257
 132 658 l 257
 379 658 l 257
 379 932 l 257
 705 932 l 257
 563 623 284 0 284 0 c 257
EndSplineSet
EndChar

StartChar: six
Encoding: 54 54 373
Width: 1232
VWidth: 0
Flags: HW
PickledData: "(dp1
S'org.robofab.postScriptHintData'
p2
(dp3
sS'com.typemytype.robofont.layerData'
p4
(dp5
S'b'
(dp6
S'name'
p7
S'six'
p8
sS'lib'
p9
(dp10
sS'unicodes'
p11
(tsS'width'
p12
I990
sS'contours'
p13
(tsS'components'
p14
(tsS'anchors'
p15
(tsss."
LayerCount: 2
Fore
SplineSet
602 -23 m 256
 888 -23 1109 91 1109 426 c 256
 1109 634 960 823 671 823 c 256
 599 823 452 780 437 682 c 257
 925 1117 l 257
 709 1318 l 257
 383 1020 l 257
 159 803 134 631 134 454 c 256
 134 198 272 -23 602 -23 c 256
612 215 m 256
 523 215 469 287 469 437 c 256
 469 538 514 622 610 622 c 256
 705 622 755 541 755 436 c 256
 755 289 706 215 612 215 c 256
EndSplineSet
EndChar

StartChar: slash
Encoding: 47 47 374
Width: 519
VWidth: 0
Flags: HW
PickledData: "(dp1
S'org.robofab.postScriptHintData'
p2
(dp3
sS'com.typemytype.robofont.layerData'
p4
(dp5
S'b'
(dp6
S'name'
p7
S'slash'
p8
sS'lib'
p9
(dp10
sS'unicodes'
p11
(tsS'width'
p12
I730
sS'contours'
p13
(tsS'components'
p14
(tsS'anchors'
p15
(tsss."
LayerCount: 2
Fore
SplineSet
141 -300 m 257
 820 1163 l 257
 648 1258 l 257
 -36 -206 l 257
 141 -300 l 257
EndSplineSet
EndChar

StartChar: sterling
Encoding: 163 163 377
Width: 1200
VWidth: 0
Flags: HW
PickledData: "(dp1
S'org.robofab.postScriptHintData'
p2
(dp3
sS'com.typemytype.robofont.layerData'
p4
(dp5
S'b'
(dp6
S'name'
p7
S'sterling'
p8
sS'lib'
p9
(dp10
sS'unicodes'
p11
(tsS'width'
p12
I1049
sS'contours'
p13
(tsS'components'
p14
(tsS'anchors'
p15
(tsss."
LayerCount: 2
Fore
SplineSet
289 -23 m 256
 396 -23 470 19 518 69 c 257
 590 18 746 -23 844 -23 c 256
 1077 -23 1137 109 1141 317 c 257
 1141 365 l 257
 929 365 l 257
 923 250 873 224 838 224 c 256
 800 224 758 246 741 255 c 257
 756 294 762 336 762 377 c 256
 762 449 742 519 715 573 c 257
 1022 573 l 257
 1022 714 l 257
 663 714 l 257
 631 765 612 835 612 892 c 256
 612 955 636 1012 712 1012 c 256
 784.801601311 1012 812.593768696 954.252047039 812.593768696 885.712322591 c 0
 812.593768696 879.876784216 812.392303715 873.963016461 812 868 c 257
 1094 868 l 257
 1094.22575589 873.10772702 1094.33843159 878.197138234 1094.33843159 883.265199883 c 0
 1094.33843159 1057.79153604 960.719372534 1207 710 1207 c 257
 365 1207 234 1056 234 887 c 256
 234 833 248 773 273 714 c 257
 125 714 l 257
 125 573 l 257
 345 573 l 257
 375 534 446 432 446 368 c 257
 427 382 346 414 279 414 c 256
 108 414 43 294 43 186 c 256
 43 87 105 -23 289 -23 c 256
291 109 m 256
 245 109 206 138 206 189 c 256
 206 238 237 266 282 266 c 256
 320 266 368 245 414 198 c 257
 386 136 335 109 291 109 c 256
EndSplineSet
EndChar

StartChar: summation
Encoding: 8721 8721 378
Width: 1292
VWidth: 0
Flags: HW
PickledData: "(dp1
S'org.robofab.postScriptHintData'
p2
(dp3
sS'com.typemytype.robofont.layerData'
p4
(dp5
S'b'
(dp6
S'name'
p7
S'summation'
p8
sS'lib'
p9
(dp10
sS'unicodes'
p11
(tsS'width'
p12
I1314
sS'contours'
p13
(tsS'components'
p14
(tsS'anchors'
p15
(tsss."
LayerCount: 2
Fore
SplineSet
27 0 m 257
 1238 0 l 257
 1238 446 l 257
 948 446 l 257
 948 224 l 257
 537 224 l 257
 800 507 l 257
 796 661 l 257
 610 928 l 257
 946 928 l 257
 946 757 l 257
 1229 757 l 257
 1229 1152 l 257
 27 1152 l 257
 27 928 l 257
 202 928 l 257
 470 532 l 257
 202 224 l 257
 27 224 l 257
 27 0 l 257
EndSplineSet
EndChar

StartChar: t
Encoding: 116 116 379
Width: 767
VWidth: 0
Flags: HW
PickledData: "(dp1
S'org.robofab.postScriptHintData'
p2
(dp3
sS'com.typemytype.robofont.layerData'
p4
(dp5
S'b'
(dp6
S'name'
p7
S't'
sS'lib'
p8
(dp9
sS'unicodes'
p10
(tsS'width'
p11
I671
sS'contours'
p12
(tsS'components'
p13
(tsS'anchors'
p14
(tsss."
AnchorPoint: "bot" 439 0 basechar 0
AnchorPoint: "caron.alt" 379 1107 basechar 0
AnchorPoint: "top" 326 1061 basechar 0
LayerCount: 2
Fore
SplineSet
408 0 m 2
 702 0 l 1
 702 224 l 1
 544 224 l 2
 491 224 490 256 490 260 c 2
 490 580 l 1
 704 580 l 1
 704 804 l 1
 490 804 l 1
 490 1134 l 1
 138 1088 l 1
 138 804 l 1
 11 804 l 1
 11 580 l 1
 139 580 l 1
 139 246 l 2
 139 73 237 0 408 0 c 2
EndSplineSet
EndChar

StartChar: thorn
Encoding: 254 254 384
Width: 1245
VWidth: 0
Flags: HW
PickledData: "(dp1
S'org.robofab.postScriptHintData'
p2
(dp3
sS'com.typemytype.robofont.layerData'
p4
(dp5
S'b'
(dp6
S'name'
p7
S'thorn'
p8
sS'lib'
p9
(dp10
sS'unicodes'
p11
(tsS'width'
p12
I1129
sS'contours'
p13
(tsS'components'
p14
(tsS'anchors'
p15
(tsss."
LayerCount: 2
Fore
SplineSet
793 0 m 256
 1014 0 1204 159 1204 443 c 256
 1204 668 1070 847 805 847 c 256
 638 847 470 736 318 569 c 257
 314 515 l 257
 474 594 553 624 636 624 c 256
 808 624 834 494 834 421 c 256
 834 284 741 196 610 196 c 256
 546 196 459 216 314 354 c 257
 317 336 l 257
 447 107 612 0 793 0 c 256
55 -421 m 257
 553 -421 l 257
 550 1148 l 257
 34 1148 l 257
 34 928 l 257
 194 928 l 257
 194 -210 l 257
 55 -210 l 257
 55 -421 l 257
EndSplineSet
EndChar

StartChar: three
Encoding: 51 51 385
Width: 1217
VWidth: 0
Flags: HW
PickledData: "(dp1
S'org.robofab.postScriptHintData'
p2
(dp3
sS'com.typemytype.robofont.layerData'
p4
(dp5
S'b'
(dp6
S'name'
p7
S'three'
p8
sS'lib'
p9
(dp10
sS'unicodes'
p11
(tsS'width'
p12
I1068
sS'contours'
p13
(tsS'components'
p14
(tsS'anchors'
p15
(tsss."
LayerCount: 2
Fore
SplineSet
595 -22 m 256
 970 -22 1114 155 1114 340 c 256
 1114 446 1059 586 897 624 c 257
 1010 658 1065 729 1065 844 c 256
 1065 968 995 1175 596 1175 c 256
 474 1175 158 1092 132 840 c 257
 412 741 l 257
 438 827 492 905 575 905 c 256
 656 905 703 853 703 798 c 256
 703 748 652 689 543 689 c 257
 543 498 l 257
 689.928154983 498 758.010865383 450.692733251 758.010865383 376.625237735 c 0
 758.010865383 283.377530332 684.579653159 245 598 245 c 256
 524 245 422 285 378 444 c 257
 117 322 l 257
 173 105 374 -22 595 -22 c 256
EndSplineSet
EndChar

StartChar: threequarters
Encoding: 190 190 386
Width: 2514
VWidth: 0
Flags: HW
PickledData: "(dp1
S'org.robofab.postScriptHintData'
p2
(dp3
sS'com.typemytype.robofont.layerData'
p4
(dp5
S'b'
(dp6
S'name'
p7
S'threequarters'
p8
sS'lib'
p9
(dp10
sS'unicodes'
p11
(tsS'width'
p12
I1834
sS'contours'
p13
(tsS'components'
p14
(tsS'anchors'
p15
(tsss."
LayerCount: 2
Fore
SplineSet
547 324 m 256
 813 324 915 450 915 582 c 256
 915 657 876 757 761 784 c 257
 841 807 881 857 881 939 c 256
 881 1028 830 1174 548 1174 c 256
 461 1174 236 1115 218 936 c 257
 418 866 l 257
 435 927 474 982 533 982 c 256
 590 982 624 946 624 906 c 256
 624 871 587 829 510 829 c 257
 510 693 l 257
 613.92946243 693 662.015297633 659.689766215 662.015297633 607.615158691 c 0
 662.015297633 540.38665077 611.322931224 513 548 513 c 256
 497 513 424 542 393 656 c 257
 208 568 l 257
 248 414 390 324 547 324 c 256
1756 0 m 257
 2294 0 l 257
 2294 159 l 257
 2165 159 l 257
 2165 283 l 257
 2282 283 l 257
 2282 414 l 257
 2165 414 l 257
 2165 818 l 257
 1893 818 l 257
 1544 389 l 257
 1566 283 l 257
 1910 283 l 257
 1910 159 l 257
 1756 159 l 257
 1756 0 l 257
797 -94 m 257
 963 -94 l 257
 1737 1204 l 257
 1575 1204 l 257
 797 -94 l 257
1729 414 m 257
 1910 649 l 257
 1910 414 l 257
 1729 414 l 257
EndSplineSet
EndChar

StartChar: tilde
Encoding: 732 732 388
Width: 1074
VWidth: 0
Flags: HW
PickledData: "(dp1
S'org.robofab.postScriptHintData'
p2
(dp3
sS'com.typemytype.robofont.layerData'
p4
(dp5
S'b'
(dp6
S'name'
p7
S'tilde'
p8
sS'lib'
p9
(dp10
sS'unicodes'
p11
(tsS'width'
p12
I635
sS'contours'
p13
(tsS'components'
p14
(tsS'anchors'
p15
(tsss."
AnchorPoint: "top" 536 804 mark 0
LayerCount: 2
Fore
SplineSet
747 897 m 256
 899 897 938 1011 956 1218 c 257
 788 1218 l 257
 779 1158 760 1145 740 1145 c 256
 647 1145 501 1251 348 1251 c 256
 233 1251 133 1170 116 935 c 257
 286 935 l 257
 293 996 325 1004 353 1004 c 256
 475.433179724 1004 650.379005713 896.993098176 745.681488618 896.993098176 c 0
 746.122703816 896.993098176 746.562211982 896.995391705 747 897 c 256
EndSplineSet
EndChar

StartChar: trademark
Encoding: 8482 8482 389
Width: 1847
VWidth: 0
Flags: HW
PickledData: "(dp1
S'org.robofab.postScriptHintData'
p2
(dp3
sS'com.typemytype.robofont.layerData'
p4
(dp5
S'b'
(dp6
S'name'
p7
S'trademark'
p8
sS'lib'
p9
(dp10
sS'unicodes'
p11
(tsS'width'
p12
I2069
sS'contours'
p13
(tsS'components'
p14
(tsS'anchors'
p15
(tsss."
LayerCount: 2
Fore
SplineSet
845 448 m 257
 1170 448 l 257
 1170 558 l 257
 1078 558 l 257
 1078 951 l 257
 1254 505 l 257
 1352 505 l 257
 1522 948 l 257
 1522 558 l 257
 1431 558 l 257
 1431 448 l 257
 1780 448 l 257
 1780 558 l 257
 1695 558 l 257
 1695 1042 l 257
 1780 1042 l 257
 1780 1152 l 257
 1480 1152 l 257
 1305 764 l 257
 1134 1152 l 257
 845 1152 l 257
 845 1042 l 257
 930 1042 l 257
 930 558 l 257
 845 558 l 257
 845 448 l 257
240 448 m 257
 648 448 l 257
 648 558 l 257
 541 558 l 257
 541 1042 l 257
 613 1042 l 257
 613 854 l 257
 762 854 l 257
 762 1152 l 257
 125 1152 l 257
 125 854 l 257
 274 854 l 257
 274 1042 l 257
 349 1042 l 257
 349 558 l 257
 240 558 l 257
 240 448 l 257
EndSplineSet
EndChar

StartChar: two
Encoding: 50 50 390
Width: 1224
VWidth: 0
Flags: HW
PickledData: "(dp1
S'org.robofab.postScriptHintData'
p2
(dp3
sS'com.typemytype.robofont.layerData'
p4
(dp5
S'b'
(dp6
S'name'
p7
S'two'
p8
sS'lib'
p9
(dp10
sS'unicodes'
p11
(tsS'width'
p12
I1033
sS'contours'
p13
(tsS'components'
p14
(tsS'anchors'
p15
(tsss."
LayerCount: 2
Fore
SplineSet
167 0 m 257
 1105 0 l 257
 1097 378 l 257
 861 378 l 257
 856 193 l 257
 589 193 l 257
 941 517 l 258
 1078 644 1092 720 1092 815 c 256
 1092 1128 760 1174 594 1174 c 256
 236 1174 122 982 122 803 c 256
 122 741 136 679 161 626 c 257
 464 626 l 257
 450 671 443 713 443 751 c 256
 443 858 487 936 592 936 c 256
 654.589344733 936 730.009765043 915.272877915 730.009765043 817.926019682 c 0
 730.009765043 809.239339543 730.318816608 800.535006625 730.318816608 790.400920359 c 0
 730.318816608 764.800565466 725.880931627 733.745714243 687 700 c 257
 170 226 l 257
 167 0 l 257
EndSplineSet
EndChar

StartChar: u
Encoding: 117 117 392
Width: 1262
VWidth: 0
Flags: HW
PickledData: "(dp1
S'org.robofab.postScriptHintData'
p2
(dp3
sS'com.typemytype.robofont.layerData'
p4
(dp5
S'b'
(dp6
S'name'
p7
S'u'
sS'lib'
p8
(dp9
sS'unicodes'
p10
(tsS'width'
p11
I1088
sS'contours'
p12
(tsS'components'
p13
(tsS'anchors'
p14
(tsss."
AnchorPoint: "top" 575 804 basechar 0
LayerCount: 2
Fore
SplineSet
443 -23 m 0
 585 -23 674 21 751 83 c 1
 752 0 l 1
 1215 0 l 1
 1215 224 l 1
 1103 224 l 1
 1103 804 l 1
 633 804 l 1
 633 580 l 1
 751 580 l 1
 751 278 l 1
 711 250 650 223 597 223 c 0
 537 223 481 258 481 372 c 2
 481 804 l 1
 22 804 l 1
 22 580 l 1
 129 580 l 1
 129 295 l 2
 129 140 193 -23 443 -23 c 0
EndSplineSet
EndChar

StartChar: underscore
Encoding: 95 95 400
Width: 1015
VWidth: 0
Flags: HW
PickledData: "(dp1
S'org.robofab.postScriptHintData'
p2
(dp3
sS'com.typemytype.robofont.layerData'
p4
(dp5
S'b'
(dp6
S'name'
p7
S'underscore'
p8
sS'lib'
p9
(dp10
sS'unicodes'
p11
(tsS'width'
p12
I1290
sS'contours'
p13
(tsS'components'
p14
(tsS'anchors'
p15
(tsss."
LayerCount: 2
Fore
SplineSet
-35 -232 m 257
 1050 -232 l 257
 1050 -91 l 257
 -35 -91 l 257
 -35 -232 l 257
EndSplineSet
EndChar

StartChar: uni00B5
Encoding: 181 181 406
Width: 1275
VWidth: 0
Flags: HW
PickledData: "(dp1
S'org.robofab.postScriptHintData'
p2
(dp3
sS'com.typemytype.robofont.layerData'
p4
(dp5
S'b'
(dp6
S'name'
p7
S'uni00B5'
p8
sS'lib'
p9
(dp10
sS'unicodes'
p11
(tsS'width'
p12
I1190
sS'contours'
p13
(tsS'components'
p14
(tsS'anchors'
p15
(tsss."
LayerCount: 2
Fore
SplineSet
129 -277 m 257
 481 -277 l 257
 481 479 l 257
 129 479 l 257
 129 -277 l 257
EndSplineSet
Refer: 392 117 N 1 0 0 1 0 0 2
EndChar

StartChar: uni021A
Encoding: 538 538 460
Width: 1410
VWidth: 0
Flags: HW
PickledData: "(dp1
S'org.robofab.postScriptHintData'
p2
(dp3
sS'com.typemytype.robofont.layerData'
p4
(dp5
S'b'
(dp6
S'name'
p7
S'uni021A'
p8
sS'lib'
p9
(dp10
sS'unicodes'
p11
(tsS'width'
p12
I1252
sS'contours'
p13
(tsS'components'
p14
(tsS'anchors'
p15
(tsss."
LayerCount: 2
Fore
SplineSet
529 -695 m 257
 798 -695 909 -607 909 -441 c 258
 909 -129 l 257
 529 -129 l 257
 529 -364 l 257
 646 -364 l 257
 646 -465.731468214 640.367732449 -511.140260918 539.063664193 -511.140260918 c 0
 535.808864347 -511.140260918 532.455305031 -511.093386622 529 -511 c 257
 529 -695 l 257
EndSplineSet
Refer: 113 84 N 1 0 0 1 0 0 2
EndChar

StartChar: uni021B
Encoding: 539 539 461
Width: 767
VWidth: 0
Flags: HW
PickledData: "(dp1
S'org.robofab.postScriptHintData'
p2
(dp3
sS'com.typemytype.robofont.layerData'
p4
(dp5
S'b'
(dp6
S'name'
p7
S'uni021B'
p8
sS'lib'
p9
(dp10
sS'unicodes'
p11
(tsS'width'
p12
I671
sS'contours'
p13
(tsS'components'
p14
(tsS'anchors'
p15
(tsss."
LayerCount: 2
Fore
SplineSet
231 -695 m 257
 500 -695 611 -607 611 -441 c 258
 611 -129 l 257
 231 -129 l 257
 231 -364 l 257
 348 -364 l 257
 348 -465.731468214 342.367732449 -511.140260918 241.063664193 -511.140260918 c 0
 237.808864347 -511.140260918 234.455305031 -511.093386622 231 -511 c 257
 231 -695 l 257
EndSplineSet
Refer: 379 116 N 1 0 0 1 0 0 2
EndChar

StartChar: uni02C9
Encoding: 713 713 472
Width: 600
VWidth: 0
Flags: HW
PickledData: "(dp1
S'org.robofab.postScriptHintData'
p2
(dp3
s."
LayerCount: 2
Fore
SplineSet
38 784 m 257
 521 784 l 257
 521 995 l 257
 38 995 l 257
 38 784 l 257
EndSplineSet
EndChar

StartChar: uni0307
Encoding: 775 775 473
Width: 535
VWidth: 0
Flags: HW
PickledData: "(dp1
S'org.robofab.postScriptHintData'
p2
(dp3
sS'com.typemytype.robofont.layerData'
p4
(dp5
S'b'
(dp6
S'name'
p7
S'uni0307'
p8
sS'lib'
p9
(dp10
sS'unicodes'
p11
(tsS'width'
p12
I535
sS'contours'
p13
(tsS'components'
p14
(tsS'anchors'
p15
(tsss."
AnchorPoint: "top" 270 804 mark 0
LayerCount: 2
Fore
SplineSet
268 850 m 256
 385.251994154 850 463.009503582 923.064796743 463.009503582 1035.83688151 c 0
 463.009503582 1148.35452497 389.314737854 1225 268 1225 c 256
 150 1225 73 1150 73 1038 c 256
 73 924 149 850 268 850 c 256
EndSplineSet
EndChar

StartChar: uni2113
Encoding: 8467 8467 492
Width: 982
VWidth: 0
Flags: HW
PickledData: "(dp1
S'org.robofab.postScriptHintData'
p2
(dp3
s."
LayerCount: 2
Fore
SplineSet
883 -12 m 257
 911 247 l 257
 736.797483814 247 692.415885177 278.967913631 692.415885177 361.646839343 c 0
 692.415885177 411.3851759 708.477744024 479.476008605 722 570 c 258
 810 1162 l 257
 216 1162 l 257
 164 864 l 257
 359 864 l 257
 281 300 l 258
 279.271762503 288.007079188 278.42667575 276.409107777 278.42667575 265.197898419 c 0
 278.42667575 64.7869929712 548.473496627 -12.0343966839 871.136376513 -12.0343966839 c 0
 875.083177853 -12.0343966839 879.03785166 -12.0229025916 883 -12 c 257
EndSplineSet
EndChar

StartChar: uni2126
Encoding: 8486 8486 493
Width: 1488
VWidth: 0
Flags: HW
PickledData: "(dp1
S'org.robofab.postScriptHintData'
p2
(dp3
s."
LayerCount: 2
Fore
SplineSet
76 0 m 257
 690 0 l 257
 690 201 l 257
 484 257 415 457 415 618 c 256
 415 825 540 935 744 935 c 256
 948 935 1073 825 1073 617 c 256
 1073 457 1004 257 799 201 c 257
 799 0 l 257
 1413 0 l 257
 1413 224 l 257
 1180 224 l 257
 1345 318 1413 474 1413 639 c 256
 1413 930 1167 1174 744 1174 c 256
 324 1174 76 929 76 637 c 256
 76 473 144 318 310 224 c 257
 76 224 l 257
 76 0 l 257
EndSplineSet
EndChar

StartChar: uni2206
Encoding: 8710 8710 494
Width: 1590
VWidth: 0
Flags: HW
PickledData: "(dp1
S'org.robofab.postScriptHintData'
p2
(dp3
sS'com.typemytype.robofont.layerData'
p4
(dp5
S'b'
(dp6
S'name'
p7
S'uni2206'
p8
sS'lib'
p9
(dp10
sS'unicodes'
p11
(tsS'width'
p12
I1158
sS'contours'
p13
(tsS'components'
p14
(tsS'anchors'
p15
(tsss."
LayerCount: 2
Fore
SplineSet
103 0 m 257
 1488 0 l 257
 1488 207 l 257
 988 1148 l 257
 656 1148 l 257
 103 209 l 257
 103 0 l 257
433 275 m 257
 433 275 772 903 769 887 c 257
 765 903 1025 275 1025 275 c 257
 433 275 l 257
EndSplineSet
EndChar

StartChar: v
Encoding: 118 118 500
Width: 1232
VWidth: 0
Flags: HW
PickledData: "(dp1
S'org.robofab.postScriptHintData'
p2
(dp3
sS'com.typemytype.robofont.layerData'
p4
(dp5
S'b'
(dp6
S'name'
p7
S'v'
sS'lib'
p8
(dp9
sS'unicodes'
p10
(tsS'width'
p11
I1052
sS'contours'
p12
(tsS'components'
p13
(tsS'anchors'
p14
(tsss."
LayerCount: 2
Fore
SplineSet
470 0 m 1
 777 0 l 1
 1080 580 l 1
 1196 580 l 1
 1196 804 l 1
 722 804 l 1
 722 580 l 1
 812 580 l 1
 679 321 l 1
 544 580 l 1
 619 580 l 1
 619 804 l 1
 36 804 l 1
 36 580 l 1
 157 580 l 1
 470 0 l 1
EndSplineSet
EndChar

StartChar: w
Encoding: 119 119 501
Width: 1524
VWidth: 0
Flags: HW
PickledData: "(dp1
S'org.robofab.postScriptHintData'
p2
(dp3
sS'com.typemytype.robofont.layerData'
p4
(dp5
S'b'
(dp6
S'name'
p7
S'w'
sS'lib'
p8
(dp9
sS'unicodes'
p10
(tsS'width'
p11
I1417
sS'contours'
p12
(tsS'components'
p13
(tsS'anchors'
p14
(tsss."
AnchorPoint: "top" 847 804 basechar 0
LayerCount: 2
Fore
SplineSet
371 0 m 1
 673 0 l 1
 802 342 l 1
 943 0 l 1
 1180 0 l 1
 1374 580 l 1
 1475 580 l 1
 1475 804 l 1
 1142 804 l 1
 1142 580 l 1
 1220 580 l 1
 1102 264 l 1
 983 580 l 1
 1052 580 l 1
 1052 804 l 1
 647 804 l 1
 647 580 l 1
 722 580 l 1
 597 263 l 1
 494 580 l 1
 562 580 l 1
 562 804 l 1
 48 804 l 1
 48 580 l 1
 164 580 l 1
 371 0 l 1
EndSplineSet
EndChar

StartChar: x
Encoding: 120 120 506
Width: 1115
VWidth: 0
Flags: HW
PickledData: "(dp1
S'org.robofab.postScriptHintData'
p2
(dp3
sS'com.typemytype.robofont.layerData'
p4
(dp5
S'b'
(dp6
S'name'
p7
S'x'
sS'lib'
p8
(dp9
sS'unicodes'
p10
(tsS'width'
p11
I1039
sS'contours'
p12
(tsS'components'
p13
(tsS'anchors'
p14
(tsss."
LayerCount: 2
Fore
SplineSet
23 0 m 1
 438 0 l 1
 438 224 l 1
 340 224 l 1
 486 318 l 1
 626 224 l 1
 543 224 l 1
 543 0 l 1
 1082 0 l 1
 1082 224 l 1
 979 224 l 1
 710 438 l 1
 938 580 l 1
 1062 580 l 1
 1062 804 l 1
 660 804 l 1
 660 580 l 1
 740 580 l 1
 616 498 l 1
 501 580 l 1
 535 580 l 1
 535 804 l 1
 31 804 l 1
 31 580 l 1
 147 580 l 1
 382 393 l 1
 131 224 l 1
 23 224 l 1
 23 0 l 1
EndSplineSet
EndChar

StartChar: y
Encoding: 121 121 507
Width: 1232
VWidth: 0
Flags: HW
PickledData: "(dp1
S'org.robofab.postScriptHintData'
p2
(dp3
sS'com.typemytype.robofont.layerData'
p4
(dp5
S'b'
(dp6
S'name'
p7
S'y'
sS'lib'
p8
(dp9
sS'unicodes'
p10
(tsS'width'
p11
I1092
sS'contours'
p12
(tsS'components'
p13
(tsS'anchors'
p14
(tsss."
AnchorPoint: "top" 617 804 basechar 0
LayerCount: 2
Fore
SplineSet
216 -353 m 1
 346 -353 l 2
 517 -353 596 -315 697 -139 c 1
 1101 580 l 1
 1212 580 l 1
 1212 804 l 1
 650 804 l 1
 650 580 l 1
 754 580 l 1
 619 325 l 1
 469 580 l 1
 575 580 l 1
 575 804 l 1
 18 804 l 1
 18 580 l 1
 150 580 l 1
 434 85 l 1
 515 85 l 1
 459 -12 l 2
 409 -97 358 -102 324 -102 c 2
 216 -102 l 1
 216 -353 l 1
EndSplineSet
EndChar

StartChar: yen
Encoding: 165 165 511
Width: 1416
VWidth: 0
Flags: HW
PickledData: "(dp1
S'org.robofab.postScriptHintData'
p2
(dp3
sS'com.typemytype.robofont.layerData'
p4
(dp5
S'b'
(dp6
S'name'
p7
S'yen'
p8
sS'lib'
p9
(dp10
sS'unicodes'
p11
(tsS'width'
p12
I1320
sS'contours'
p13
(tsS'components'
p14
(tsS'anchors'
p15
(tsss."
LayerCount: 2
Fore
SplineSet
185 297 m 257
 1220 297 l 257
 1220 414 l 257
 826 414 l 257
 826 503 l 257
 1220 503 l 257
 1220 622 l 257
 185 622 l 257
 185 503 l 257
 666 503 l 257
 666 414 l 257
 185 414 l 257
 185 297 l 257
EndSplineSet
Refer: 137 89 N 1 0 0 1 0 0 2
EndChar

StartChar: z
Encoding: 122 122 513
Width: 1041
VWidth: 0
Flags: HW
PickledData: "(dp1
S'org.robofab.postScriptHintData'
p2
(dp3
sS'com.typemytype.robofont.layerData'
p4
(dp5
S'b'
(dp6
S'name'
p7
S'z'
sS'lib'
p8
(dp9
sS'unicodes'
p10
(tsS'width'
p11
I985
sS'contours'
p12
(tsS'components'
p13
(tsS'anchors'
p14
(tsss."
AnchorPoint: "top" 510 804 basechar 0
LayerCount: 2
Fore
SplineSet
84 0 m 1
 988 0 l 1
 988 372 l 1
 759 372 l 1
 759 191 l 1
 498 191 l 1
 940 594 l 1
 940 804 l 1
 83 804 l 1
 83 453 l 1
 313 453 l 1
 313 610 l 1
 519 610 l 1
 84 199 l 1
 84 0 l 1
EndSplineSet
EndChar

StartChar: zero
Encoding: 48 48 517
Width: 1210
VWidth: 0
Flags: HW
PickledData: "(dp1
S'org.robofab.postScriptHintData'
p2
(dp3
sS'com.typemytype.robofont.layerData'
p4
(dp5
S'b'
(dp6
S'name'
p7
S'zero'
p8
sS'lib'
p9
(dp10
sS'unicodes'
p11
(tsS'width'
p12
I1100
sS'contours'
p13
(tsS'components'
p14
(tsS'anchors'
p15
(tsss."
LayerCount: 2
Fore
SplineSet
604 254 m 256
 483 254 434 352 434 556 c 256
 434 787 483 899 604 899 c 256
 727 899 776 787 776 557 c 256
 776 353 727 254 604 254 c 256
604 -22 m 256
 952 -22 1152 196 1152 557 c 256
 1152 947 952 1174 604 1174 c 256
 259 1174 58 948 58 557 c 256
 58 196 259 -22 604 -22 c 256
EndSplineSet
EndChar
